<?xml version="1.0" encoding="UTF-8"?><svg xmlns="http://www.w3.org/2000/svg" viewBox="0 0 18.13 19.99"><defs><style>.cls-1{fill:none;}.cls-2{fill:#231815;}.cls-3{fill:#ffd500;}</style></defs><g><g><path class="cls-3" d="M11.13,15.05l-6.87,3.97c-1.15.67-2.61.28-3.28-.87-.21-.37-.33-.79-.33-1.21V3.06c0-1.33,1.07-2.4,2.39-2.41.43,0,.84.11,1.21.33l12.02,6.94c1.15.66,1.55,2.13.89,3.28-.21.37-.52.68-.89.89l-5.15,2.97Z"/><path class="cls-2" d="M3.06,19.99c-1.05,0-2.08-.54-2.64-1.52C.14,18,0,17.47,0,16.93V7.61C0,7.25.29,6.96.65,6.96s.65.29.65.65v9.32c0,.31.08.62.24.89.49.83,1.56,1.12,2.39.63l4.81-2.78c.31-.18.71-.07.89.24.18.31.07.71-.24.89l-4.81,2.78c-.48.28-1.01.41-1.52.41Z"/><rect class="cls-1" x=".22" y=".22" width="17.69" height="19.56"/><path class="cls-2" d="M11.96,15.22c-.22,0-.44-.12-.56-.32-.18-.31-.07-.71.24-.89l4.31-2.49c.27-.16.5-.38.65-.65.23-.41.29-.88.17-1.33-.12-.45-.41-.83-.82-1.06L3.93,1.54c-.27-.16-.56-.2-.89-.24-.47,0-.91.18-1.24.52-.33.33-.51.77-.51,1.24v1.25c0,.36-.29.65-.65.65S0,4.67,0,4.31v-1.25c0-.81.31-1.58.89-2.16C1.46.32,2.23,0,3.04,0c.5,0,1.07.14,1.54.41l12.02,6.94c.71.4,1.21,1.06,1.42,1.85.21.79.11,1.61-.3,2.32-.27.47-.66.86-1.13,1.13l-4.31,2.49c-.1.06-.21.09-.32.09Z"/></g></g></svg>