<?xml version="1.0" encoding="UTF-8"?><svg id="_レイヤー_2" xmlns="http://www.w3.org/2000/svg" viewBox="0 0 606.42 178.98"><defs><style>.cls-1{fill:#fc0;}.cls-2{fill:#1b9540;}.cls-3{fill:#178bff;}.cls-4{fill:#e3e438;}.cls-5{fill:#fbba72;}.cls-6{fill:#f8a22d;}.cls-7{fill:#231815;}.cls-8{fill:#fff;}.cls-9{fill:#219ebc;}.cls-10{fill:#8fc31f;}.cls-11{fill:#172a88;}.cls-12{fill:#f8f9fa;}.cls-13{fill:#4dc1c1;}.cls-14{fill:#fcf;}.cls-15{fill:#eae2b7;}.cls-16{fill:#fb8500;}.cls-17{fill:#c9f;}</style></defs><g id="logo"><path id="_パス_9820" class="cls-3" d="M163.32,86.02c-.45-.02-.87-.23-1.15-.57-11.63-11.46-26.61-19.49-35.46-26.36-4.01-3.11-5.98-6.8-5.98-10.48s1.88-7.12,5.57-10.15c5.57-4.5,22.11-14.57,33.98-25.38.28-.29.66-.47,1.07-.49.43.02.84.19,1.15.49l10.32,8.93c.34.25.55.64.57,1.07,0,.47-.25.91-.65,1.15-11.46,8.27-27.76,17.93-33.08,21.94-.83.52-1.37,1.4-1.48,2.37.04.87.54,1.65,1.31,2.05,6.63,4.09,23.34,13.35,35.62,23.26.61.33.84,1.1.5,1.71-.12.21-.29.39-.5.5l-10.72,9.5c-.28.29-.66.47-1.06.49Z"/><path d="M176.44,74.36c-.14-.49-.46-.9-.9-1.16-9.88-7.96-22.36-15.36-30.63-20.26-2-1.18-3.71-2.2-5.07-3.04-.51-.27-.86-.78-.9-1.36.1-.73.5-1.37,1.18-1.8,2.35-1.78,6.94-4.71,12.24-8.1,2.22-1.42,4.58-2.93,6.97-4.48.35-.23.45-.69.22-1.04-.23-.35-.69-.45-1.04-.22-2.39,1.55-4.74,3.05-6.96,4.47-5.33,3.41-9.94,6.35-12.29,8.13-1.03.65-1.69,1.72-1.82,2.93,0,.04,0,.08,0,.11.05,1.13.71,2.16,1.66,2.65,1.32.82,3.04,1.83,5.04,3.02,8.24,4.89,20.7,12.27,30.5,20.18.03.03.07.05.11.07.12.07.21.17.25.3s.02.27-.04.39c-.05.09-.12.16-.2.2-.05.03-.1.06-.14.1l-10.77,9.55c-.14.14-.32.23-.51.25-.22-.01-.43-.12-.63-.35-2.31-2.28-4.84-4.51-7.72-6.83-.32-.26-.8-.21-1.05.12-.26.32-.21.79.12,1.05,2.84,2.28,5.33,4.48,7.55,6.66.42.52,1.04.82,1.7.85,0,0,0,0,0,0,0,0,.01,0,.02,0,.01,0,.03,0,.04,0,.6-.03,1.16-.29,1.52-.68l10.67-9.45c.3-.18.55-.44.72-.75.26-.47.32-1.01.16-1.53Z"/><path d="M137.95,65.98c-4-2.66-7.78-5.17-10.77-7.5-3.72-2.88-5.69-6.3-5.69-9.89s1.83-6.73,5.29-9.57c1.84-1.49,4.99-3.66,8.63-6.17,7.36-5.07,17.44-12.01,25.42-19.28.15-.16.35-.25.49-.26.25.01.48.11.69.31l10.37,8.96c.16.12.26.3.27.46,0,.2-.11.39-.34.53-2.47,1.78-5.33,3.75-8.75,6.02-.35.23-.44.69-.21,1.04.23.35.69.44,1.04.21,3.43-2.28,6.31-4.26,8.74-6.01.64-.37,1.03-1.06,1.03-1.83-.03-.65-.35-1.25-.83-1.6l-10.29-8.9c-.44-.42-1.02-.67-1.71-.7-.6.03-1.15.29-1.53.69-7.87,7.16-17.9,14.07-25.22,19.12-3.82,2.63-6.84,4.71-8.73,6.24-3.82,3.14-5.84,6.86-5.84,10.73s2.17,7.9,6.27,11.07c3.04,2.36,6.84,4.89,10.86,7.56,3.47,2.31,7.06,4.69,10.72,7.32.13.1.29.14.44.14.23,0,.46-.11.61-.31.24-.34.17-.8-.17-1.05-3.68-2.65-7.28-5.04-10.77-7.36Z"/><path id="_パス_9822" class="cls-3" d="M287.68,81.75l-3.56-9.3c-.33-.86.07-1.39,1.06-1.45,13.33-.66,17.82-8.12,17.82-15.11,0-1.38-.19-2.75-.53-4.09-1-4.32-3.94-7.93-7.96-9.78-.66-.32-1.45-.04-1.76.62-.06.14-.11.28-.12.43-1.01,9.48-5.49,22.52-11.2,30.83-2.24,3.15-5.9,4.98-9.77,4.88-3.8-.01-7.43-1.59-10.03-4.36-3.8-4.29-5.85-9.85-5.74-15.57,0-7.79,3.5-16.36,11.94-22.9,5.39-4.02,11.95-6.16,18.68-6.07,11.81,0,23.76,6.2,27.52,19.07.77,2.59,1.17,5.28,1.19,7.99,0,13.73-10.76,24.88-26.06,25.8-.67.1-1.3-.33-1.45-.99M274.22,44.6c-4.49,3.83-6.93,9.11-6.93,13.86-.07,2.58.77,5.11,2.38,7.13.35.44.89.71,1.45.73.72-.03,1.36-.43,1.72-1.06,3.63-5.41,6.88-15.28,7.73-22.06.09-.73-.43-1.38-1.16-1.47-.23-.03-.46,0-.67.09-1.64.69-3.16,1.62-4.52,2.77"/><path d="M288.91,83.51c-.87,0-1.7-.62-1.94-1.53l-3.1-8.09c-.15-.39.04-.82.43-.97.39-.15.82.04.97.43l3.12,8.13s.02.06.03.1c.06.27.33.46.61.41,14.76-.89,25.42-11.43,25.42-25.06-.02-2.63-.4-5.24-1.16-7.77-1.62-5.54-4.96-10.19-9.67-13.44-.34-.24-.43-.7-.19-1.04.24-.34.7-.43,1.04-.19,4.99,3.45,8.54,8.37,10.25,14.25.79,2.66,1.2,5.42,1.22,8.19,0,14.45-11.26,25.62-26.77,26.55-.09.01-.18.02-.27.02ZM271.95,79.54c-.11,0-.21,0-.32,0-3.97-.01-7.83-1.69-10.56-4.6-3.95-4.46-6.06-10.17-5.94-16.1,0-9.03,4.35-17.37,12.23-23.48,5.5-4.1,12.27-6.31,19.15-6.23,4.25,0,8.51.8,12.3,2.33.38.15.57.59.42.98-.15.38-.59.57-.98.42-3.62-1.45-7.68-2.22-11.75-2.22-6.55-.08-13,2.02-18.23,5.92-10.13,7.84-11.64,17.34-11.64,22.3-.1,5.57,1.87,10.92,5.55,15.08,2.44,2.59,5.9,4.1,9.48,4.11,3.63.1,7.05-1.61,9.15-4.56,5.36-7.8,10.01-20.63,11.06-30.48.02-.23.09-.46.19-.67.49-1.03,1.73-1.47,2.76-.98,4.19,1.93,7.33,5.78,8.37,10.29.35,1.38.54,2.82.55,4.26,0,3.29-1.2,14.13-16.66,15.72-.41.04-.78-.26-.82-.67-.04-.41.26-.78.67-.82,13.82-1.42,15.31-10.42,15.31-14.23,0-1.31-.18-2.63-.5-3.91-.94-4.08-3.77-7.54-7.55-9.29-.29-.14-.64-.02-.77.26-.03.06-.05.12-.05.19-1.08,10.07-5.84,23.18-11.33,31.18-2.34,3.28-6.09,5.21-10.09,5.21ZM271.16,67.07c-.85-.02-1.58-.39-2.07-1-1.72-2.16-2.62-4.86-2.54-7.62,0-5.17,2.69-10.57,7.19-14.41,1.42-1.2,3-2.18,4.72-2.89.33-.14.69-.19,1.05-.15.55.06,1.04.34,1.38.77s.5.98.43,1.53c-.16,1.3-.41,2.71-.74,4.21-.09.4-.49.66-.89.57-.4-.09-.66-.49-.57-.89.32-1.46.56-2.83.72-4.07.02-.15-.02-.3-.12-.42-.09-.12-.23-.2-.38-.21-.1-.01-.2,0-.29.04-1.57.66-3.02,1.55-4.32,2.65-4.17,3.56-6.66,8.53-6.66,13.29-.07,2.42.72,4.78,2.21,6.66.22.27.54.43.89.44.4-.02.81-.27,1.04-.68,2.11-3.15,4.2-7.96,5.77-13.26.12-.4.54-.62.93-.51.4.12.62.54.51.93-1.61,5.44-3.77,10.4-5.93,13.62-.45.8-1.32,1.34-2.3,1.39Z"/><path id="_パス_9829" class="cls-3" d="M580.95,85.12c-6.67.15-13.32-.7-19.73-2.54-8.84-2.78-14.41-9.99-14.41-18.18,0-7.46,4.61-15.76,15.39-22.15.63-.37.94-1.1.77-1.81-1.77-7.48-1.92-15.88-1.99-24.19-.12-.74.38-1.43,1.12-1.56.15-.02.29-.02.44,0h13.42c.75-.07,1.41.48,1.48,1.23,0,.11,0,.22,0,.33-.3,5.87-.14,11.75.47,17.6.11.9.93,1.54,1.83,1.42,0,0,0,0,0,0,.08-.01.16-.03.24-.05,5.73-1.6,12.25-3.05,18.91-4.32.78-.24,1.61.19,1.86.97h0s.02.06.03.09l4.01,11.87c.33.62.1,1.4-.52,1.73-.19.1-.41.16-.63.15-11.3,1.8-21.78,4.17-29.07,7.04-8.52,3.36-11.47,7.53-11.47,10.89.02,2.18,1.29,4.16,3.28,5.08,2.7,1.23,7.21,1.72,12.28,1.72,8.51-.16,17-.98,25.39-2.44h.41c.82,0,1.23.41,1.23,1.31l-.25,12.28c.07.83-.54,1.56-1.37,1.63h-.11c-7.62,1.15-15.3,1.78-23.01,1.88"/><path d="M555.37,48.27c2.04-1.94,4.47-3.75,7.21-5.37.92-.54,1.37-1.59,1.12-2.62-1.69-7.18-1.9-15.13-1.97-24.03,0-.04,0-.08,0-.12-.05-.33.17-.64.5-.69.07-.01.13-.01.2,0,.04,0,.08,0,.12,0h13.49c.34-.04.64.21.67.55,0,.05,0,.1-.01.22-.3,5.89-.14,11.85.47,17.73.16,1.31,1.36,2.24,2.67,2.08.12-.02.23-.04.35-.07,5.38-1.5,11.72-2.95,18.93-4.32.39-.12.8.1.92.48,0,0,.03.1.03.1l4.01,11.87s.03.08.05.11c.07.12.08.27.04.4-.04.13-.13.25-.26.31-.08.04-.17.07-.26.06-.04,0-.09,0-.13,0-4.45.71-8.65,1.49-12.49,2.32-.41.09-.66.49-.58.89.08.35.39.59.73.59.05,0,.11,0,.16-.02,3.8-.82,7.95-1.59,12.35-2.29.32,0,.64-.09.92-.24.48-.26.83-.68.98-1.2.15-.5.11-1.02-.12-1.48l-3.98-11.77s-.03-.11-.03-.12c-.37-1.17-1.62-1.83-2.71-1.48-7.16,1.36-13.54,2.82-18.97,4.33-.05.01-.09.02-.14.03-.24.03-.47-.04-.66-.18-.19-.15-.31-.36-.33-.58-.6-5.79-.76-11.67-.47-17.41.02-.17.03-.33.01-.5-.11-1.16-1.14-2.01-2.23-1.91h-13.37c-.2-.03-.41-.02-.62.01-1.12.19-1.89,1.23-1.74,2.35.08,8.97.29,16.99,2.01,24.31.09.39-.08.78-.42.99-2.84,1.68-5.35,3.56-7.48,5.57-.3.29-.31.76-.03,1.06.29.3.76.31,1.06.03Z"/><path d="M604.44,67.26h-.41s-.09,0-.13.01c-8.32,1.45-16.82,2.27-25.26,2.43-5.46,0-9.59-.57-11.97-1.65-1.71-.79-2.82-2.52-2.84-4.4,0-3.72,4.01-7.44,10.99-10.2,2.66-1.05,5.86-2.07,9.51-3.03.4-.11.64-.52.53-.92-.11-.4-.52-.64-.92-.53-3.7.98-6.96,2.02-9.68,3.09-10.39,4.1-11.94,9.02-11.94,11.6.02,2.46,1.48,4.72,3.71,5.75,2.61,1.19,6.85,1.79,12.61,1.79,8.5-.16,17.06-.98,25.44-2.44h.34c.34,0,.48,0,.48.54l-.25,12.36c.04.42-.27.78-.62.82h-.11s-.08,0-.11,0c-7.56,1.14-15.26,1.77-22.91,1.87-6.6.15-13.16-.69-19.49-2.5-8.44-2.65-13.89-9.51-13.89-17.46,0-3.66,1.18-7.42,3.41-10.88.22-.35.12-.81-.22-1.04-.35-.22-.81-.12-1.04.22-2.39,3.71-3.65,7.75-3.65,11.7,0,8.62,5.86,16.04,14.96,18.9,6,1.72,12.2,2.58,18.43,2.58.51,0,1.01,0,1.52-.02,7.69-.1,15.45-.74,23.06-1.88h.11c1.24-.11,2.15-1.21,2.05-2.37l.25-12.3c0-1.31-.72-2.06-1.98-2.06Z"/><path id="_パス_9819" class="cls-3" d="M347.68,86.26c-7.7,0-15.39-2.95-18.92-8.93-1.43-2.43-2.19-5.2-2.21-8.03-.03-4.74,2.38-9.17,6.39-11.71,3.93-2.54,9.34-4.09,15.8-4.09,1.53,0,3.06.09,4.59.25-.05-.61-.07-1.28-.08-1.99-.01-.89-.74-1.61-1.64-1.61h-22.85c-.86,0-1.55-.69-1.56-1.55h0v-9.58c-.12-.74.38-1.43,1.12-1.56.15-.02.29-.02.44,0l22.5-.07c.91,0,1.64-.74,1.63-1.64h0v-.03l-.03-1.15c-.02-.89-.75-1.6-1.64-1.6h-24.02c-.76.1-1.46-.43-1.56-1.19h0c-.02-.12-.02-.24,0-.36v-9.83c-.1-.76.43-1.45,1.19-1.56.12-.02.24-.02.37,0l23.54-.08c.91,0,1.64-.74,1.63-1.65h0v-.03c-.04-1.44-.05-2.84-.11-4.14-.1-.76.43-1.46,1.19-1.56.12-.02.24-.02.36,0l12.94-.08c.74-.11,1.44.4,1.55,1.15.02.11.02.22,0,.33v4.34c0,.9.73,1.64,1.63,1.64,0,0,0,0,0,0h19.41c.86,0,1.55.7,1.55,1.56v9.91c0,.86-.69,1.55-1.55,1.56h-19.41c-.9,0-1.64.73-1.64,1.64v1.14c0,.9.73,1.64,1.64,1.64h0l17.68-.07c.74-.12,1.43.38,1.56,1.11.02.15.02.3,0,.44v9.74c0,.86-.7,1.56-1.56,1.56h-17.65c-.91,0-1.64.74-1.64,1.65v.03c.04,1.95.04,3.86.04,5.77,7.86,3.17,15.18,7.53,21.7,12.94.39.25.64.68.65,1.15.01.4-.14.78-.41,1.06l-8.52,10.15c-.27.36-.69.57-1.15.57-.4-.02-.79-.2-1.06-.49-3.78-3.61-7.83-6.92-12.12-9.91-1.72,5.4-5.4,9.99-10.81,11.79-2.91.96-5.95,1.43-9.01,1.4"/><path id="_パス_9911" class="cls-8" d="M355.49,64.5c-.93-.38-1.94-.49-2.93-.33-.41.07-.83-.03-1.17-.28-3.25-2.48-7.88-1.85-10.36,1.39s-1.85,7.88,1.39,10.36c2.65,2.02,6.33,2.02,8.98,0,.33-.25.74-.35,1.15-.28.29.05.59.07.89.07,3.12,0,5.66-2.52,5.67-5.64,0-2.34-1.43-4.44-3.6-5.28h0Z"/><path d="M390.58,69.96c-.89-.74-1.82-1.47-2.75-2.19-.33-.25-.8-.19-1.05.14-.25.33-.19.8.14,1.05.92.7,1.83,1.42,2.78,2.2.19.12.3.32.31.54,0,.19-.07.38-.23.56l-8.54,10.19c-.13.17-.33.27-.5.27-.21-.01-.41-.1-.58-.29-3.79-3.62-7.9-6.98-12.21-9.98-.2-.14-.44-.17-.67-.09-.23.08-.4.26-.47.48-1.78,5.59-5.55,9.71-10.33,11.31-2.83.93-5.77,1.39-8.77,1.36-8.16,0-15.16-3.28-18.27-8.56-1.36-2.32-2.09-4.96-2.11-7.65-.02-2.83.91-5.64,2.61-7.91.25-.33.18-.8-.15-1.05-.33-.25-.8-.18-1.05.15-1.9,2.53-2.93,5.66-2.91,8.82.02,2.95.82,5.86,2.31,8.4,3.38,5.73,10.87,9.3,19.56,9.3.1,0,.19,0,.29,0,3.05,0,6.06-.48,8.96-1.43,4.96-1.65,8.91-5.75,10.96-11.31,3.95,2.81,7.71,5.92,11.19,9.24.41.44.97.7,1.61.73h0c.68,0,1.33-.33,1.72-.84l8.48-10.12c.41-.43.64-1.02.62-1.61-.02-.71-.4-1.37-.92-1.7Z"/><path d="M327.21,33.71h24.02c.49,0,.88.38.89.87l.03,1.17c0,.49-.4.89-.88.89l-22.45.07c-.2-.03-.41-.02-.61.01-1.12.18-1.89,1.23-1.75,2.35v9.53c0,1.27,1.04,2.3,2.31,2.3h22.85c.48,0,.88.39.88.87,0,.42.01.8.03,1.15-1.26-.11-2.53-.17-3.79-.17-6.34,0-11.94,1.46-16.2,4.21-.2.12-.39.25-.58.38-.34.24-.42.71-.18,1.04.15.21.38.32.62.32.15,0,.3-.04.43-.14.17-.12.34-.24.52-.35,4.02-2.6,9.35-3.97,15.39-3.97,1.5,0,3.02.09,4.51.25.22.02.44-.05.6-.21.16-.15.24-.37.23-.59-.05-.6-.07-1.25-.07-1.95-.02-1.3-1.09-2.35-2.38-2.35h-22.86c-.44,0-.81-.36-.81-.81v-9.58s0-.08,0-.12c-.05-.33.17-.64.5-.69.07-.01.13-.01.19,0,.04,0,.12,0,.12,0l22.5-.07c1.32,0,2.38-1.08,2.38-2.45l-.03-1.15c-.03-1.3-1.08-2.33-2.39-2.33h-24.12c-.34.05-.67-.19-.71-.54,0-.05,0-.11,0-.16,0-.03,0-.07,0-.1v-9.92c-.03-.17.02-.33.12-.47.1-.13.25-.22.42-.24.06,0,.11,0,.17,0,.03,0,.1.01.1,0l23.54-.07c1.31,0,2.38-1.08,2.38-2.45l-.03-1.2c-.02-1.02-.04-2.01-.09-3.02-.05-.35.2-.67.54-.71.06,0,.12,0,.17,0,.03,0,.06,0,.1,0l12.94-.08s.07,0,.1,0c.16-.02.32.02.46.12.13.1.22.24.24.41,0,.05,0,.09,0,.21v4.34c0,1.32,1.07,2.39,2.38,2.39h2.13c.41,0,.75-.34.75-.75s-.34-.75-.75-.75h-2.13c-.49,0-.89-.4-.89-.89v-4.27c.01-.17,0-.33-.02-.5-.08-.56-.38-1.05-.83-1.39-.44-.33-.97-.47-1.51-.4l-12.85.08c-.17-.02-.33-.02-.5,0-1.17.16-1.99,1.23-1.84,2.33.04.93.06,1.91.08,2.92l.03,1.22c0,.49-.4.89-.88.89l-23.49.07c-.17-.02-.34-.02-.51,0-.57.08-1.07.37-1.42.82-.35.45-.5,1.01-.43,1.48v9.78c-.02.17-.02.34,0,.51.15,1.17,1.22,1.99,2.3,1.84Z"/><path d="M389.36,19.19h-12.16c-.41,0-.75.34-.75.75s.34.75.75.75h12.16c.44,0,.8.36.8.81v9.91c0,.21-.08.42-.24.57s-.35.24-.57.24h-19.41c-1.31,0-2.38,1.07-2.39,2.39v1.14c0,1.32,1.07,2.39,2.4,2.39l17.68-.07s.08,0,.12-.01c.34-.06.64.17.69.5.01.06.01.13,0,.2,0,.04,0,.08,0,.12v9.74c0,.44-.36.81-.81.81h-17.65c-1.32,0-2.39,1.08-2.38,2.44.04,1.94.04,3.85.04,5.75,0,.31.19.58.47.7,5.45,2.2,10.67,4.99,15.52,8.31.13.09.28.13.42.13.24,0,.47-.11.62-.33.23-.34.15-.81-.2-1.04-4.8-3.28-9.96-6.06-15.34-8.27,0-1.75,0-3.5-.04-5.3,0-.49.4-.89.89-.89h17.65c1.27,0,2.31-1.04,2.31-2.31v-9.69c.03-.21.02-.42,0-.62-.19-1.12-1.24-1.89-2.35-1.74l-17.63.07c-.49,0-.89-.4-.89-.89v-1.14c0-.49.4-.89.89-.89h19.41c.62,0,1.2-.24,1.63-.68.44-.44.67-1.02.67-1.63v-9.91c0-1.27-1.03-2.31-2.3-2.31Z"/><path d="M340.33,66.29c-.39-.16-.82.03-.98.41-1.38,3.39-.3,7.31,2.61,9.53,1.46,1.11,3.2,1.67,4.94,1.67,1.75,0,3.49-.56,4.95-1.67.16-.12.36-.17.57-.14.33.05.67.08,1.01.08,3.53,0,6.41-2.86,6.42-6.39,0-2.63-1.63-5.03-4.07-5.98-1.06-.43-2.21-.56-3.34-.38-.2.04-.42-.02-.58-.14-2.61-1.99-6.15-2.23-9-.59-.36.21-.48.66-.28,1.02.21.36.66.48,1.02.28,2.33-1.33,5.21-1.15,7.35.49.5.37,1.13.53,1.74.42.85-.14,1.73-.04,2.54.29,1.87.73,3.13,2.57,3.13,4.58,0,2.7-2.21,4.9-4.91,4.9-.27,0-.52-.02-.77-.06-.6-.1-1.24.05-1.73.42-2.37,1.82-5.69,1.82-8.07,0-2.38-1.81-3.25-5.01-2.13-7.78.16-.38-.03-.82-.41-.98Z"/><path id="_パス_9826" class="cls-3" d="M514.46,85.85c-13.26,0-26.61-7.04-26.86-21.94v-4.34c0-.45-.37-.82-.82-.82h-9.66c-.86,0-1.56-.7-1.56-1.56h0v-9.34c-.1-.76.43-1.46,1.19-1.56.12-.02.24-.02.36,0h10.56c.42,0,.77-.32.82-.73.19-1.84.38-3.68.57-5.56.04-.45-.28-.85-.74-.9h-10.64c-.74.12-1.43-.38-1.56-1.12h0c-.02-.14-.02-.29,0-.44l-.08-9.34c-.08-.78.49-1.48,1.27-1.56.09,0,.19,0,.28,0h12.12c.42,0,16.11-.06,16.56,0,.03,0,.06,0,.09,0h15.05c.86,0,1.55.7,1.55,1.56v9.34c0,.86-.69,1.55-1.55,1.56h-16.46c-.42,0-.78.32-.82.75-.17,1.89-.31,3.74-.44,5.58-.03.45.31.84.76.87h16.21c.76-.1,1.45.43,1.55,1.19.02.12.02.24,0,.36l.08,9.34c.11.74-.41,1.44-1.15,1.55-.11.02-.22.02-.33,0h-17.04c-.45,0-.82.37-.82.82v2.87c0,6.31,5.32,9.58,11.22,9.58,2.85,0,5.65-.77,8.11-2.21,3.11-1.88,4.75-5.65,4.75-10.07-.03-3.23-.75-6.41-2.13-9.33-.49-1.15-.08-1.88,1.15-1.88l12.04.25c.79-.09,1.54.39,1.8,1.15,1.37,3.53,2.09,7.27,2.13,11.06,0,8.51-3.77,16.46-11.05,20.72-5.05,2.82-10.75,4.26-16.54,4.18"/><path id="_パス_9844" class="cls-4" d="M510.88,20.8c-1.39,3.33-3.96,6.03-7.23,7.57-2.06.95-3.86,2.36-5.28,4.12-.39.49-1.1.58-1.59.19-.07-.06-.13-.12-.19-.19-1.41-1.77-3.22-3.18-5.28-4.13-7.24-3.41-10.35-12.04-6.95-19.29,3.41-7.24,12.04-10.35,19.29-6.95,4.56,2.14,7.68,6.5,8.24,11.51"/><path id="_パス_9846" class="cls-8" d="M496.85,9.17c3.26-.32,6.16,2.05,6.49,5.31.32,3.26-2.05,6.16-5.31,6.49-3.26.32-6.16-2.05-6.49-5.31-.32-3.26,2.05-6.16,5.31-6.49,0,0,0,0,0,0"/><path d="M488.36,63.91v-4.34c0-.86-.71-1.57-1.57-1.57h-9.66c-.44,0-.81-.36-.81-.81v-9.44c-.05-.35.19-.67.54-.71.05,0,.11,0,.16,0,.03,0,.07,0,.1,0h10.56c.82,0,1.48-.6,1.56-1.41.19-1.84.38-3.68.57-5.57.08-.86-.55-1.63-1.41-1.72-.03,0-.13,0-.16,0h-10.56s-.08,0-.12,0c-.16.03-.32-.01-.45-.1-.13-.09-.22-.23-.24-.4,0-.06,0-.12,0-.19,0-.04.01-.09.01-.13l-.09-9.4c-.04-.37.23-.7.6-.74.05,0,.1,0,.21,0h10.39c.06,0,.11-.02.17-.03.85.65,1.76,1.22,2.75,1.68,1.94.89,3.67,2.24,5,3.91.31.4.75.65,1.25.71.08,0,.15.01.23.01.42,0,.82-.14,1.16-.4.12-.09.22-.2.31-.31,1.33-1.67,3.07-3.02,5.01-3.92,7.61-3.58,10.88-12.68,7.31-20.28-1.73-3.68-4.8-6.47-8.63-7.85-3.83-1.38-7.97-1.19-11.66.55-4.76,2.24-8.08,6.88-8.66,12.11-.05.41.25.78.66.83.42.04.78-.25.83-.66.53-4.71,3.52-8.9,7.81-10.92,3.32-1.56,7.06-1.74,10.51-.49,3.45,1.24,6.22,3.76,7.78,7.08,3.23,6.86.27,15.06-6.58,18.28-2.15.99-4.07,2.49-5.62,4.41-.11.08-.22.09-.28.08-.06,0-.17-.03-.26-.15-1.48-1.85-3.4-3.35-5.54-4.33-3.1-1.46-5.54-4.01-6.86-7.18-.16-.38-.6-.56-.98-.4-.38.16-.56.6-.4.98.75,1.81,1.85,3.44,3.19,4.82h-8.82c-.14,0-.28-.01-.43,0-1.19.12-2.06,1.19-1.95,2.31l.08,9.28c-.03.2-.02.41.01.61.09.55.39,1.04.85,1.37.44.31.97.45,1.5.38h10.5s.07.04.07.07c-.19,1.88-.38,3.73-.64,5.62h-10.51c-.17-.02-.34-.02-.51,0-1.17.15-1.99,1.23-1.84,2.3v9.34c0,1.27,1.03,2.31,2.31,2.31l9.73.07v4.35c.07,4.5,1.31,8.51,3.67,11.92.15.21.38.32.62.32.15,0,.3-.04.43-.13.34-.24.43-.7.19-1.04-2.19-3.16-3.33-6.9-3.4-11.08Z"/><path d="M540.63,49.67c-.37-1.1-1.44-1.77-2.49-1.65l-12.05-.25c-1.06,0-1.58.44-1.82.82-.25.39-.46,1.06,0,2.14,1.32,2.8,2.03,5.92,2.06,9.01,0,4.31-1.6,7.74-4.38,9.42-2.09,1.23-4.47,1.95-6.89,2.08-.41.02-.73.38-.71.79s.37.73.79.71c2.65-.15,5.27-.94,7.57-2.29,3.25-1.96,5.11-5.87,5.11-10.72-.03-3.31-.79-6.65-2.19-9.62-.18-.42-.15-.64-.11-.7.03-.05.19-.14.56-.14l12.13.24c.45-.04.87.22,1.02.67,1.34,3.45,2.04,7.08,2.08,10.78,0,8.66-3.99,16.16-10.67,20.06-4.93,2.75-10.52,4.16-16.17,4.07-7.21,0-14.04-2.15-18.74-5.9-.32-.26-.79-.21-1.05.12-.26.32-.21.8.12,1.05,5.03,4.02,12.02,6.23,19.67,6.23.17,0,.34,0,.51,0,5.73,0,11.39-1.47,16.41-4.28,7.16-4.18,11.43-12.17,11.43-21.37-.04-3.89-.78-7.7-2.17-11.29Z"/><path d="M511.14,26.65c0,.41.34.75.75.75h9.54c.44,0,.81.36.81.81v9.34c0,.21-.08.42-.23.57-.15.15-.35.24-.57.24h-16.46c-.81,0-1.48.62-1.56,1.43-.15,1.67-.29,3.45-.44,5.6-.06.86.6,1.61,1.51,1.67h16.31c.17-.03.34.02.47.12.13.1.22.25.24.42,0,.06,0,.11,0,.17,0,.03,0,.07,0,.1l.08,9.34s0,.07,0,.1c.05.33-.18.65-.51.69-.05,0-.1,0-.22,0h-17.04c-.86,0-1.56.71-1.57,1.57v2.87c0,4.2,2.28,7.57,6.26,9.24.09.04.19.06.29.06.29,0,.57-.17.69-.46.16-.38-.02-.82-.4-.98-3.45-1.45-5.34-4.24-5.34-7.86v-2.86s.03-.07.07-.07h16.97c.17.01.33,0,.5-.02,1.13-.17,1.92-1.21,1.79-2.34l-.08-9.25c.02-.17.02-.33,0-.5-.07-.57-.36-1.07-.82-1.42-.45-.35-1.01-.5-1.48-.43l-16.22-.07c.14-2.14.28-3.91.43-5.56,0-.04.04-.07.07-.07h16.46c.62,0,1.19-.24,1.63-.68.44-.44.67-1.01.67-1.63v-9.34c0-1.27-1.03-2.31-2.3-2.31h-9.54c-.41,0-.75.34-.75.75Z"/><path d="M496.93,9.91c2.35-.23,4.56,1.15,5.38,3.37.14.39.58.59.96.45.39-.14.59-.57.45-.96-1.05-2.86-3.91-4.65-6.93-4.34-1.78.18-3.38,1.03-4.51,2.41-1.13,1.38-1.66,3.12-1.48,4.89.34,3.44,3.25,6.02,6.64,6.02.22,0,.44-.01.67-.03,1.46-.15,2.8-.75,3.88-1.75.3-.28.32-.76.04-1.06-.28-.3-.76-.32-1.06-.04-.83.77-1.87,1.24-3.01,1.35-2.84.28-5.38-1.8-5.67-4.64-.14-1.38.27-2.72,1.15-3.79.88-1.07,2.12-1.74,3.49-1.87Z"/><path id="_パス_9818" class="cls-3" d="M189.66,79.63l-2.62-11.87c-.25-1.15.33-1.72,1.47-1.56,6.41,1.11,12.9,1.74,19.41,1.88,6.39,0,12.28-.98,16.13-3.85,2-1.31,3.25-3.51,3.36-5.89-.05-2.48-1.71-4.64-4.1-5.32-1.97-.71-4.05-1.07-6.14-1.06-5.65,0-12.37,2.38-18.92,7.45-.55.46-1.25.69-1.96.66l-10.89-.41c-.98,0-1.47-.66-1.47-1.64.25-8.52,1.04-20.14,2.02-28.41-.01-.81.64-1.47,1.45-1.48.06,0,.13,0,.19.01l11.46.25c1.15,0,1.55.66,1.4,1.72-.7,4.1-1.4,8.25-1.68,11.94-.07.9.6,1.69,1.5,1.76.29.02.59-.03.85-.16,5.62-2.92,11.85-4.47,18.19-4.53,4.03-.03,8.04.72,11.79,2.21,8.27,3.52,12.04,9.99,12.04,16.71,0,6.14-3.19,12.61-9.17,17.2-6.88,5.32-16.62,7.12-26.86,7.12-5.32-.05-10.62-.46-15.88-1.24-.8-.07-1.44-.68-1.56-1.47"/><path class="cls-8" d="M242.92,12.21c-.97-.43-2.02-.66-3.09-.66h-.01c-.66,0-1.32.1-1.96.27l-1.29.18c-2.5-2.85-6.32-4.19-10.05-3.47-5.82-5.73-15.19-5.66-20.92.16,0,0,0,0,0,0l-.12.12c-5.68-1.94-11.86,1.09-13.8,6.77-.31.91-.49,1.83-.56,2.75-.34,4.8,2.56,9.42,7.33,11.05,2.28.78,4.75.78,7.03,0,5.66,5.89,15.03,6.07,20.91.4,0,0,0,0,0,0l.12-.12c3.83.73,7.75-.67,10.24-3.67,3.81,1.7,8.28,0,9.98-3.82,1.7-3.81,0-8.28-3.82-9.98Z"/><path id="_パス_9856" class="cls-6" d="M210.81,26.88c0,5.44-4.41,9.84-9.84,9.84s-9.84-4.41-9.84-9.84,4.41-9.84,9.84-9.84c5.44,0,9.84,4.41,9.84,9.84h0"/><path id="_パス_9816" class="cls-3" d="M44.16,81.35c-1.21-8.21-1.75-16.51-1.64-24.81.03-13.17.88-26.32,2.54-39.39,0-.77.61-1.41,1.38-1.41,0,0,0,0,0,0h0c.08,0,.16,0,.24.02l12.37.65c.73-.07,1.38.47,1.45,1.2.02.18,0,.35-.05.52-2.1,12.53-3.14,25.21-3.12,37.92-.13,8.06.48,16.12,1.8,24.07.25,1.06-.25,1.64-1.31,1.72l-11.95.82c-.79.15-1.55-.38-1.7-1.17,0,0,0,0,0,0h0s-.02-.09-.02-.14M80.28,84.29c-4.8.14-9.47-1.53-13.1-4.67-2.95-2.75-4.62-6.61-4.59-10.65,0-4.85,2.39-9.39,6.39-12.12,3.7-2.41,8.04-3.64,12.45-3.52.63,0,1.27.02,1.91.07.89.05,1.66-.62,1.73-1.51v-.15l-.03-1.95c-.01-.44-.37-.8-.82-.8h-19.34c-1.07,0-1.56-.49-1.56-1.47v-10.07c-.1-.76.43-1.46,1.19-1.56,0,0,0,0,0,0,.12-.02.24-.02.36,0l19.05-.08c.45,0,.82-.37.81-.82,0,0,0,0,0,0h0v-.03c-.04-1.16-.06-2.32-.1-3.45-.02-.44-.38-.79-.82-.79h-17.95c-.76.1-1.46-.43-1.56-1.19h0c-.02-.12-.02-.24,0-.36v-10.4c0-.86.7-1.56,1.56-1.56h43.31c.76-.1,1.45.43,1.56,1.19.02.12.02.24,0,.36v10.32c0,.86-.7,1.56-1.56,1.56h-9.83c-.45,0-.82.37-.82.82v3.6c0,.45.37.82.82.82h10.08c.86,0,1.56.7,1.56,1.56h0v9.99c0,.86-.69,1.56-1.55,1.56,0,0,0,0,0,0h-9.98c-.45,0-.82.37-.82.82h0v.02c.05,2.5.07,4.99.12,7.38.01.59.35,1.13.87,1.4,4.62,2.42,8.98,5.31,12.99,8.65.36.27.57.69.57,1.15.02.38-.1.76-.33,1.07l-6.88,9.91c-.2.4-.62.65-1.07.66-.45-.02-.86-.23-1.15-.57-1.64-1.78-3.38-3.48-5.2-5.07-.34-.3-.85-.26-1.15.08,0,0,0,0,0,0h0c-.05.06-.1.13-.13.2-1.54,3.66-4.49,6.54-8.18,7.99-2.82,1.09-5.82,1.65-8.84,1.64M80.35,64.81c-1.5-.08-2.99.38-4.17,1.31-.89.68-1.41,1.74-1.4,2.86.01.89.36,1.74.98,2.38.99,1.01,2.35,1.57,3.77,1.55,1.2,0,2.37-.37,3.36-1.06,1.23-.98,2.04-2.38,2.27-3.93.24-1.2-.5-2.38-1.69-2.68-1.02-.27-2.06-.42-3.11-.43"/><path id="_パス_9863" class="cls-17" d="M125.41,18.3c-1.14,2.74-3.26,4.96-5.95,6.23-1.69.78-3.18,1.94-4.34,3.39-.32.4-.9.47-1.3.16-.06-.05-.11-.1-.15-.16-1.16-1.45-2.65-2.62-4.34-3.4-5.96-2.8-8.51-9.9-5.71-15.86,2.8-5.96,9.9-8.51,15.86-5.71,3.75,1.76,6.31,5.35,6.77,9.46"/><path class="cls-13" d="M135.62,9.47c-2.43-5.17-8.58-7.4-13.76-5.01,2.42,1.95,4.03,4.79,4.38,7.96l-.84,5.88c-.82,1.96-2.14,3.65-3.81,4.92.06.03.13.07.19.1,1.48.68,2.77,1.69,3.79,2.96.28.35.79.41,1.14.14.05-.04.1-.09.14-.14,1.02-1.27,2.31-2.29,3.79-2.97,5.2-2.45,7.42-8.64,4.98-13.84Z"/><path class="cls-8" d="M125.8,9.19s0,0,0,0c-.12.01-.24.05-.36.07.41,1,.69,2.06.81,3.16l-.83,5.86c.42.08.85.12,1.29.07,2.53-.25,4.38-2.51,4.13-5.04s-2.51-4.38-5.04-4.13Z"/><path id="_パス_9901" class="cls-12" d="M9.78,88.94h9.53l-1.73,1.78c-.78.81-3.09,3.15-3.09,3.15l-4.71-4.93Z"/><path id="_パス_9899" class="cls-8" d="M56.77,60.65c-1.18,0-2.35.16-3.49.48-6.9-6.31-17.62-5.84-23.93,1.07-.51.56-.99,1.16-1.42,1.78-5.33-1.67-11,1.3-12.67,6.63-1.67,5.33,1.3,11,6.63,12.67,1.97.62,4.08.62,6.04,0,5.33,7.69,15.88,9.61,23.57,4.28.63-.44,1.23-.91,1.79-1.43,6.91,1.93,14.07-2.11,16-9.02s-2.11-14.07-9.02-16c-1.14-.32-2.31-.48-3.49-.48"/><path id="_パス_9902" class="cls-2" d="M11.06,104.67c-.89.03-1.75-.33-2.35-.99-.18-.21-.31-.45-.4-.71-.44-1.47.02-3.07,1.18-4.07,1.71-1.7,3.34-3.34,4.97-4.99,1.48-1.5,2.97-3.03,4.53-4.64l.31-.32h-9.52l-8.58-9c-.67-.7-.64-1.81.06-2.48.33-.31.76-.48,1.21-.48h8.47l-4.15-6.04-.05-.14c-.24-.7.14-1.46.84-1.69.14-.05.28-.07.43-.07h4.72c1.11,0,2.17.47,2.92,1.29l6.62,6.65h23.76c6.09,0,11.1,4.78,11.38,10.87l.05,1.1h-15.28l-3.55,1.97c-6.11,3.39-14.66,7.84-25.4,13.22-.68.34-1.42.53-2.18.54"/><path id="_パス_9903" class="cls-8" d="M26.18,99.78l-.48-1.98c6.65-3.44,12.02-6.33,15.95-8.58l.08-.06.28-.21h15.47l-.19,1.21c-.9,5.53-5.66,9.6-11.26,9.64l-19.85-.02Z"/><path id="_パス_9904" class="cls-8" d="M31.42,85.49c-1.3-.04-2.32-1.12-2.28-2.41.04-1.24,1.04-2.24,2.28-2.28h2.6c1.3,0,2.34,1.06,2.34,2.36,0,1.26-1,2.28-2.25,2.34h-2.69Z"/><path id="_パス_9905" class="cls-8" d="M42.3,85.49c-1.3.02-2.37-1.01-2.39-2.3-.02-1.3,1.01-2.37,2.3-2.39h12.1l.26.31c.81.95,1.46,2.03,1.91,3.19l.47,1.19h-14.65Z"/><path id="_パス_9907" class="cls-2" d="M19.34,88.94c-3.37,3.51-6.37,6.52-9.81,9.95-1.16,1.01-1.62,2.6-1.19,4.07.09.26.22.5.39.71,1.23,1.16,3.09,1.35,4.53.45,7.79-3.9,17.8-9.01,25.37-13.2"/><path id="_パス_9865" class="cls-8" d="M113.85,8.34c2.9-.29,5.49,1.83,5.77,4.73.29,2.9-1.83,5.49-4.73,5.77-2.9.29-5.49-1.83-5.77-4.73,0,0,0,0,0,0-.29-2.9,1.83-5.48,4.73-5.77"/><path d="M136.3,9.15c-1.58-3.35-4.7-5.69-8.36-6.27-.41-.06-.79.21-.86.62s.21.79.62.86c3.17.5,5.87,2.53,7.24,5.42,1.1,2.33,1.22,4.95.35,7.38-.87,2.43-2.64,4.37-4.96,5.46-1.58.73-2.98,1.82-4.06,3.18,0,0,0,0-.01,0-.03,0-.09,0-.09,0-.54-.68-1.16-1.29-1.84-1.82-.33-.26-.8-.2-1.05.13-.25.33-.2.8.13,1.05.59.46,1.13.99,1.59,1.57.26.33.63.54,1.04.58.06,0,.13.01.19.01.35,0,.68-.12.96-.33.1-.08.19-.16.26-.26.94-1.17,2.15-2.12,3.52-2.76,2.69-1.27,4.73-3.51,5.74-6.31,1.01-2.8.86-5.83-.41-8.52Z"/><path d="M127.57,17.4c-.39.14-.59.57-.45.96.11.31.4.5.71.5.08,0,.17-.01.25-.04,2.31-.83,3.75-3.12,3.5-5.57-.16-1.57-.99-2.98-2.29-3.88-.34-.24-.81-.15-1.04.19-.24.34-.15.81.19,1.04.93.65,1.53,1.66,1.65,2.79.17,1.76-.86,3.41-2.52,4.01Z"/><path d="M102.4,13.17s.06,0,.08,0c.38,0,.7-.28.74-.67.33-3.01,1.9-5.79,4.3-7.63.33-.25.39-.72.14-1.05-.25-.33-.72-.39-1.05-.14-2.72,2.09-4.5,5.24-4.88,8.65-.05.41.25.78.66.83Z"/><path d="M126.25,18.03c1.15-3.18.98-6.62-.46-9.69-2.48-5.27-8.19-8.16-13.89-7.04-.41.08-.67.47-.59.88.08.41.47.67.88.59,5.02-.99,10.06,1.57,12.25,6.21,1.27,2.7,1.41,5.73.4,8.54-1.01,2.81-3.05,5.05-5.75,6.32-1.79.82-3.39,2.07-4.65,3.64-.08.06-.19.05-.25-.03-1.23-1.54-2.82-2.78-4.61-3.6-2.52-1.19-4.5-3.26-5.57-5.83-.16-.38-.6-.56-.98-.4-.38.16-.56.6-.4.98,1.21,2.92,3.46,5.27,6.33,6.62,1.58.72,2.98,1.82,4.06,3.18.33.42.82.64,1.32.64.36,0,.73-.12,1.03-.36.11-.08.2-.18.28-.28,1.09-1.36,2.49-2.46,4.08-3.19,3.06-1.44,5.38-3.99,6.53-7.17Z"/><path d="M110.55,18.25c1.09.89,2.42,1.36,3.81,1.36.2,0,.41-.01.61-.03,1.6-.16,3.05-.93,4.07-2.18,1.02-1.25,1.49-2.81,1.33-4.42-.3-2.97-2.77-5.3-5.75-5.43-.41-.03-.76.31-.78.72-.02.41.31.76.72.78,2.24.09,4.09,1.84,4.32,4.07.12,1.2-.24,2.38-1,3.32s-1.85,1.52-3.05,1.64c-1.21.12-2.38-.24-3.32-1-.94-.77-1.52-1.85-1.64-3.05-.11-1.1.19-2.21.84-3.11.24-.33.17-.8-.17-1.05-.34-.24-.8-.17-1.05.17-.87,1.2-1.27,2.67-1.12,4.14.16,1.6.93,3.05,2.18,4.07Z"/><path d="M81.8,17.98h18.88c.41,0,.75-.34.75-.75s-.34-.75-.75-.75h-18.88c-.41,0-.75.34-.75.75s.34.75.75.75Z"/><path d="M109.18,31.41c1.27,0,2.3-1.04,2.3-2.31v-.99c0-.41-.34-.75-.75-.75s-.75.34-.75.75v.99c0,.21-.08.42-.23.57-.15.15-.35.24-.57.24h-9.83c-.86,0-1.57.7-1.57,1.57v3.6c0,.86.7,1.57,1.57,1.57h10.08c.44,0,.81.36.81.81v9.99c0,.44-.36.81-.81.81h-9.97c-.42,0-.81.16-1.11.46-.3.3-.46.69-.46,1.15.03,1.24.04,2.48.06,3.7.02,1.24.03,2.47.06,3.68.02.86.51,1.65,1.28,2.05,1.45.76,2.9,1.58,4.31,2.44.12.07.26.11.39.11.25,0,.5-.13.64-.36.22-.35.1-.81-.25-1.03-1.44-.88-2.92-1.72-4.4-2.49-.28-.15-.46-.44-.47-.75-.03-1.2-.04-2.42-.06-3.66-.02-1.23-.03-2.47-.06-3.7l.07-.09h9.98c.62,0,1.19-.24,1.63-.68.43-.44.67-1.02.67-1.63v-9.99c0-1.27-1.03-2.31-2.31-2.31l-10.15-.07.07-3.67h9.83Z"/><path d="M42.55,53.45h.01c.41,0,.74-.33.75-.74.17-11.81,1.01-23.74,2.5-35.46,0-.03,0-.07,0-.1,0-.36.28-.65.65-.66.04,0,.07,0,.19.02l4.63.25c.42.01.77-.3.79-.71.02-.41-.29-.77-.71-.79l-4.54-.24c-.12-.02-.25-.03-.39-.03-1.17.01-2.11.96-2.13,2.12-1.49,11.76-2.33,23.73-2.5,35.58,0,.41.33.75.74.76Z"/><path d="M113.1,66.69c-1.54-1.28-3.15-2.51-4.78-3.65-.34-.24-.81-.16-1.04.18-.24.34-.16.81.18,1.04,1.6,1.12,3.18,2.33,4.72,3.6.17.13.27.33.27.58,0,.21-.05.41-.19.6l-6.93,9.99c-.08.15-.23.25-.37.25-.23,0-.45-.12-.62-.33-1.65-1.79-3.42-3.52-5.26-5.13-.65-.56-1.64-.49-2.21.16-.1.11-.18.24-.25.39-1.45,3.45-4.28,6.21-7.76,7.58-2.74,1.06-5.61,1.57-8.57,1.58-.06,0-.09,0-.14.01-2.67.06-5.38-.48-7.82-1.55-.38-.17-.82,0-.99.39-.17.38,0,.82.39.99,2.52,1.1,5.28,1.68,8.03,1.68.18,0,.37,0,.55,0,.03,0,.06,0,.09,0,3.09,0,6.11-.57,9-1.69,3.86-1.52,6.99-4.57,8.69-8.4,1.8,1.57,3.53,3.26,5.11,4.98.42.52,1.04.83,1.74.85.73,0,1.39-.41,1.68-.98l6.86-9.89c.33-.44.5-.99.48-1.51,0-.68-.33-1.34-.84-1.72Z"/><path d="M83.66,64.51c-1.08-.29-2.19-.45-3.3-.46-.03,0-.06,0-.09,0-1.64-.06-3.26.46-4.55,1.47-1.07.82-1.7,2.12-1.69,3.47.02,1.08.44,2.11,1.2,2.89,1.11,1.13,2.66,1.78,4.24,1.78.02,0,.05,0,.07,0,1.36,0,2.67-.42,3.82-1.23,1.38-1.1,2.29-2.66,2.54-4.37.32-1.59-.66-3.16-2.22-3.56ZM84.4,67.81c-.2,1.37-.91,2.6-1.96,3.43-.86.61-1.87.93-2.93.93h0c-1.23,0-2.38-.47-3.22-1.33-.49-.5-.76-1.17-.77-1.86,0-.88.41-1.73,1.11-2.27.97-.75,2.15-1.16,3.37-1.16.1,0,.2,0,.3,0,.05,0,.09,0,.14,0,.95.02,1.9.16,2.83.41.8.2,1.3,1,1.13,1.85Z"/><path d="M64.91,62.58c1.06-2.03,2.59-3.79,4.47-5.08,3.58-2.34,7.74-3.52,12.04-3.4.62,0,1.24.02,1.86.06,1.29.07,2.43-.91,2.52-2.26l-.03-2.11c-.02-.86-.71-1.53-1.57-1.53h-19.34c-.73,0-.81-.23-.81-.72v-10.17c-.03-.17.02-.34.12-.47s.25-.22.42-.24c.06,0,.12,0,.27,0l19.05-.08c.86,0,1.56-.71,1.56-1.63-.02-.53-.03-1.05-.04-1.58-.02-.63-.03-1.26-.06-1.87-.03-.85-.72-1.51-1.56-1.51h-18.06c-.17.03-.33-.02-.47-.12-.13-.1-.22-.25-.24-.42,0-.05,0-.11,0-.16,0-.03,0-.07,0-.1v-10.4c0-.44.36-.81.81-.81h9.77c.41,0,.75-.34.75-.75s-.34-.75-.75-.75h-9.77c-1.27,0-2.31,1.03-2.31,2.31v10.35c-.02.17-.02.34,0,.51.07.57.37,1.07.82,1.42.45.35,1.01.5,1.48.43l18.02.07c.02.61.04,1.23.06,1.85.01.53.03,1.06.04,1.57,0,0-.07.1-.07.1l-18.95.08c-.19-.02-.37-.02-.56,0-.57.08-1.07.37-1.41.82s-.5,1.01-.43,1.48v10.07c0,1.41.84,2.22,2.31,2.22l19.41.06.04,2.03c-.03.48-.46.85-.93.82-.65-.04-1.3-.07-1.93-.07h-.01c-4.59-.13-9.04,1.14-12.89,3.65-2.06,1.41-3.74,3.3-4.91,5.5-.99-.57-2.05-1.03-3.18-1.35-.77-.22-1.56-.35-2.36-.43-.02-1.3-.03-2.62,0-3.92-.02-12.62,1.03-25.34,3.09-37.69.08-.26.11-.53.08-.81-.11-1.12-1.1-1.96-2.21-1.88l-2.03-.11c-.42-.02-.77.3-.79.71s.3.77.71.79l2.08.11s.07,0,.11,0c.32-.02.61.21.64.53,0,.08,0,.15-.05.32-2.1,12.53-3.15,25.33-3.13,38.02-.02,1.29-.01,2.58,0,3.87-1.05.01-2.1.14-3.13.4-7.21-6.29-18.2-5.71-24.69,1.39-.41.45-.81.93-1.17,1.42-3.66-.95-7.55.07-10.29,2.72-.3.29-.3.76-.02,1.06.29.3.76.3,1.06.02,2.47-2.39,6.04-3.24,9.32-2.22.31.1.65-.02.84-.29.41-.59.87-1.17,1.36-1.7,6.02-6.59,16.29-7.05,22.87-1.02.19.18.46.24.71.17,1.07-.3,2.18-.45,3.29-.45.03,0,.06,0,.09,0,1.08,0,2.16.16,3.2.45,3.15.88,5.76,2.93,7.37,5.78,1.6,2.85,2,6.15,1.13,9.3-1.16,4.16-4.48,7.43-8.66,8.54-.4.11-.64.52-.53.92.09.34.39.56.72.56.06,0,.13,0,.19-.02,4.69-1.24,8.42-4.92,9.72-9.59.99-3.53.54-7.24-1.26-10.44-.97-1.72-2.28-3.17-3.82-4.31Z"/><path d="M11.65,91.62c.19,0,.37-.07.52-.21.3-.29.31-.76.03-1.06l-10.42-10.93c-.18-.19-.28-.43-.28-.69,0-.55.45-1,1-1h8.47c.28,0,.53-.15.66-.4.13-.25.11-.54-.05-.77l-4.07-5.91c-.04-.08-.06-.17-.06-.26,0-.16.06-.3.17-.42s.26-.17.41-.17h4.73c.88,0,1.74.37,2.36,1.03l6.64,6.68c.14.14.33.22.53.22h8.3c.41,0,.75-.34.75-.75s-.34-.75-.75-.75h-7.99l-6.4-6.44c-.89-.95-2.14-1.49-3.44-1.49h-4.73c-.56,0-1.08.22-1.48.61s-.61.92-.61,1.48c0,.33.08.65.28,1.03l3.31,4.82H2.5c-1.38,0-2.5,1.12-2.5,2.5,0,.65.25,1.26.69,1.73l10.42,10.93c.15.15.35.23.54.23Z"/><path d="M46.07,76.22h-11.51c-.41,0-.75.34-.75.75s.34.75.75.75h11.5c2.45.02,4.7.89,6.5,2.32h-10.33c-.83.02-1.6.35-2.17.95s-.88,1.38-.87,2.21c.03,1.69,1.42,3.04,3.08,3.04.02,0,.04,0,.06,0h14.07c.13.63.21,1.29.22,1.96h-14.61c-.41,0-.75.34-.75.75s.34.75.75.75h14.53c-.64,5.22-5.07,9.3-10.46,9.35l-19.1-.02h0c-.41,0-.75.34-.75.75s.33.75.75.75l19.11.02c6.71-.06,12.11-5.57,12.05-12.27-.06-6.58-5.47-11.98-12.05-12.05ZM42.32,84.74c-.88.06-1.61-.69-1.63-1.57,0-.43.15-.83.45-1.14s.69-.48,1.11-.49h11.82s.03,0,.04,0c.8.94,1.42,2.03,1.86,3.2h-13.64Z"/><path d="M39.3,90.56c-.2-.36-.66-.49-1.02-.29-7.83,4.33-18.1,9.56-25.4,13.22-1.15.72-2.64.57-3.56-.3-.11-.14-.2-.29-.25-.44-.35-1.19.03-2.48,1-3.33,3.51-3.51,6.46-6.47,9.82-9.96.29-.3.28-.77-.02-1.06-.15-.15-.35-.21-.54-.21,0,0,0,0,0,0h-4.66c-.41,0-.75.34-.75.75s.34.75.75.75h2.92c-2.85,2.94-5.5,5.6-8.53,8.63-1.37,1.2-1.92,3.1-1.41,4.87.12.35.29.67.59,1.02.86.81,1.98,1.23,3.09,1.23.8,0,1.6-.21,2.29-.65,7.25-3.63,17.55-8.87,25.4-13.21.36-.2.49-.66.29-1.02Z"/><path d="M28.27,83.27c.03.83.39,1.59,1,2.15.58.53,1.32.82,2.07.82.04,0,.08,0,.12,0h2.6s.11,0,.12,0c1.66-.07,2.96-1.42,2.97-3.08,0-.83-.32-1.61-.9-2.19-.58-.59-1.36-.91-2.19-.92h-2.83c-1.71.07-3.04,1.52-2.97,3.22ZM31.38,81.55h2.69c.43,0,.83.17,1.13.47.3.3.46.7.46,1.13,0,.86-.68,1.55-1.5,1.59h-2.72c-.43.02-.83-.13-1.15-.42-.31-.29-.5-.68-.51-1.11-.04-.88.65-1.63,1.6-1.66Z"/><path d="M196.43,60.81c.84,0,1.65-.29,2.28-.82,6.07-4.7,12.62-7.29,18.46-7.29h0c1.8,0,3.59.28,5.3.83.4.13.82-.09.94-.49.13-.39-.09-.82-.49-.94-1.87-.6-3.8-.9-5.76-.9h0c-6.17,0-13.05,2.7-19.4,7.62-.41.34-.93.51-1.46.48l-10.92-.41c-.23,0-.72,0-.72-.87.26-8.92,1.09-20.58,2.02-28.44,0-.39.31-.72.7-.72.04,0,.07,0,.17.01h.66c.42.02.76-.3.77-.72,0-.41-.32-.76-.73-.77h-.59c-.09-.02-.2-.03-.29-.03-.59,0-1.14.25-1.56.67s-.64.98-.62,1.48c-.94,7.93-1.76,19.38-2.02,28.5,0,1.45.87,2.39,2.19,2.39h0l10.88.41c.06,0,.12,0,.18,0Z"/><path d="M188.39,66.94c6.43,1.12,12.99,1.75,19.53,1.89,7.44,0,13.02-1.34,16.54-3.97,2.19-1.44,3.57-3.87,3.7-6.53-.02-.98-.27-1.96-.72-2.83-.19-.37-.64-.51-1.01-.32-.37.19-.51.64-.32,1.01.35.68.54,1.4.55,2.11-.1,2.14-1.23,4.12-3.06,5.33-3.3,2.45-8.57,3.7-15.67,3.7-6.45-.13-12.94-.76-19.31-1.87-1.05-.15-1.63.2-1.93.53-.3.32-.61.92-.39,1.93l2.61,11.82c.17,1.14,1.09,2.01,2.19,2.11,4.86.72,9.82,1.13,14.74,1.23h.02c.41,0,.74-.33.75-.74,0-.41-.32-.76-.74-.76-4.85-.09-9.75-.5-14.59-1.22-.46-.04-.82-.39-.9-.89l-2.62-11.87c-.08-.36-.03-.54.02-.59.05-.05.23-.12.59-.07Z"/><path d="M191.23,17.24c.06.02.12.02.18.02.34,0,.64-.23.73-.57.07-.29.16-.58.25-.86.87-2.56,2.69-4.62,5.12-5.81s5.17-1.36,7.73-.49c.27.1.58.02.78-.19l.11-.12c2.63-2.67,6.14-4.16,9.89-4.19,3.77-.04,7.29,1.4,9.96,4.03.18.17.43.25.67.2,2.91-.56,5.89.2,8.18,2.08.32.26.79.22,1.06-.1.26-.32.22-.79-.1-1.06-2.53-2.08-5.8-2.96-9.03-2.46-2.92-2.74-6.74-4.24-10.74-4.2-4.05.03-7.85,1.6-10.75,4.43-2.81-.84-5.78-.59-8.42.71-2.79,1.37-4.87,3.74-5.88,6.67-.11.33-.21.66-.29.99-.1.4.15.81.55.91Z"/><path d="M243.23,11.52c-.9-.4-1.86-.64-2.85-.7-.42-.02-.77.29-.8.7-.03.41.29.77.7.8.81.05,1.59.25,2.33.58,3.43,1.53,4.97,5.56,3.44,8.99-.74,1.66-2.08,2.93-3.78,3.58-1.7.65-3.54.6-5.21-.14-.31-.14-.67-.05-.88.21-2.32,2.79-5.97,4.1-9.53,3.41-.24-.05-.49.03-.66.2l-.12.11c-3.54,3.41-8.69,4.72-13.45,3.43-.4-.11-.81.13-.92.53s.13.81.53.92c1.34.36,2.71.54,4.06.54,3.91,0,7.75-1.47,10.66-4.19,3.79.59,7.63-.75,10.21-3.58,4.06,1.5,8.66-.4,10.45-4.41,1.87-4.18-.02-9.1-4.2-10.97Z"/><path d="M231.37,40.62c-3.86-1.54-7.94-2.31-12.07-2.26-6.42.05-12.83,1.65-18.51,4.6-.14.07-.3.1-.46.09-.49-.04-.85-.46-.81-.95.1-1.37.28-2.91.52-4.67.31.03.62.05.93.05,4.8,0,9.16-3.29,10.31-8.17.29-1.23.36-2.48.21-3.72-.05-.41-.42-.7-.84-.65-.41.05-.7.42-.65.84.13,1.07.07,2.14-.18,3.2-1.15,4.88-6.06,7.92-10.94,6.76-4.88-1.15-7.91-6.06-6.76-10.94,1.15-4.88,6.05-7.92,10.94-6.76,1.86.44,3.5,1.42,4.75,2.86.27.31.75.34,1.06.07.31-.27.34-.75.07-1.06-1.46-1.67-3.37-2.82-5.54-3.33-2.76-.65-5.6-.19-8,1.3-2.41,1.49-4.09,3.82-4.74,6.58-1.34,5.68,2.19,11.4,7.88,12.74,0,0,0,0,.01,0-.25,1.8-.43,3.39-.54,4.79-.1,1.31.88,2.46,2.19,2.56.42.03.85-.05,1.25-.25,5.49-2.85,11.66-4.39,17.85-4.44,3.98-.03,7.83.69,11.49,2.15,7.36,3.13,11.58,8.97,11.58,16.02,0,6.13-3.32,12.34-8.88,16.61-4.45,3.45-10.54,5.64-18.1,6.52-.41.05-.71.42-.66.83.04.38.37.66.74.66.03,0,.06,0,.09,0,7.84-.91,14.18-3.2,18.85-6.82,5.93-4.55,9.46-11.2,9.46-17.79,0-7.68-4.55-14.02-12.51-17.4Z"/><path id="_パス_9825" class="cls-3" d="M419.57,79.22l-4.42-12.12c-.41-1.07.08-1.8,1.31-1.72,10.65.33,20.39-.33,26.7-3.77,5.57-3.03,8.84-8.35,8.84-13.35,0-6.63-5.89-12.53-19.98-11.06-10.73,1.06-20.63,3.93-28.17,6.14-.75.3-1.59-.06-1.89-.81-.03-.08-.06-.17-.08-.26l-3.76-11.7c-.31-.66-.04-1.44.62-1.76.14-.07.29-.11.45-.12,11.52-2.75,23.24-4.64,35.05-5.65,1.56-.08,3.11-.17,4.5-.17,21.2,0,30.21,12.12,30.21,24.97-.09,10.96-6.1,21.02-15.72,26.28-9.25,4.91-21.62,6.14-31.85,6.31-.82.09-1.58-.43-1.8-1.23"/><path id="_パス_9848" class="cls-8" d="M450.03,70.45c-1.19,0-2.37.25-3.45.74-2.8-3.37-7.22-4.96-11.53-4.13-6.55-6.45-17.09-6.36-23.54.19l-.13.14c-6.39-2.18-13.34,1.22-15.53,7.61-2.18,6.39,1.22,13.34,7.61,15.53,2.56.88,5.35.88,7.91,0,6.37,6.62,16.91,6.83,23.53.45h0s.09-.09.13-.13c4.31.83,8.72-.76,11.53-4.13,4.29,1.92,9.31,0,11.23-4.29,1.92-4.29,0-9.31-4.29-11.23-1.1-.49-2.28-.74-3.49-.74"/><path d="M469.69,47.86c0-6.11-1.94-11.64-5.62-15.98-.27-.32-.74-.36-1.06-.09-.32.27-.36.74-.09,1.06,3.44,4.07,5.26,9.26,5.26,15.01-.08,9.49-4.72,18.35-12.45,23.82-.58-.45-1.22-.85-1.92-1.17-1.2-.54-2.47-.81-3.78-.81-.87,0-1.66.11-2.47.33-.4.11-.63.52-.52.92.11.4.52.63.92.52.67-.18,1.36-.28,2.05-.28h.01c1.1,0,2.16.23,3.17.68,3.9,1.75,5.66,6.34,3.91,10.24-1.75,3.9-6.34,5.65-10.24,3.91-.31-.14-.67-.05-.88.21-.78.93-1.69,1.73-2.72,2.37-.35.22-.46.68-.24,1.03.14.23.39.35.64.35.13,0,.27-.04.4-.11,1.01-.63,1.92-1.39,2.71-2.27,4.54,1.71,9.7-.4,11.7-4.88,1.55-3.46.78-7.38-1.62-10.02,7.96-5.76,12.74-14.98,12.82-24.85Z"/><path d="M414.39,26.35c6.57-1.13,13.27-1.98,19.88-2.55,1.52-.08,3.09-.17,4.46-.17,8.85,0,15.96,2.1,21.13,6.24.14.11.3.16.47.16.22,0,.44-.1.59-.28.26-.32.21-.8-.12-1.05-5.45-4.36-12.88-6.56-22.07-6.56-1.41,0-3,.08-4.56.17-6.68.57-13.42,1.43-20.03,2.57-.41.07-.68.46-.61.87.07.41.46.68.87.61Z"/><path d="M401.14,42.43c.03.13.06.26.11.38.22.55.63.98,1.18,1.21.54.23,1.14.24,1.63.05,6.81-2,17.11-5.03,28.03-6.12,9.14-.96,13.8,1.31,16.1,3.38,2,1.8,3.06,4.2,3.06,6.93,0,4.92-3.32,9.9-8.46,12.69-1.51.82-3.31,1.52-5.35,2.07-.4.11-.64.52-.53.92.09.33.39.56.72.56.06,0,.13,0,.19-.03,2.15-.58,4.06-1.32,5.68-2.2,5.61-3.05,9.24-8.55,9.24-14.01,0-3.17-1.23-5.95-3.55-8.05-2.52-2.27-7.56-4.77-17.25-3.76-11.06,1.1-21.44,4.15-28.37,6.19-.17.07-.37.07-.54,0-.17-.08-.31-.21-.38-.38-.02-.04-.03-.08-.06-.21l-3.76-11.7s-.02-.06-.04-.09c-.14-.28-.02-.62.26-.76.06-.03.13-.05.2-.05.03,0,.07,0,.1-.02,3.06-.73,6.18-1.41,9.27-2.02.41-.08.67-.47.59-.88-.08-.41-.47-.67-.88-.59-3.09.61-6.22,1.29-9.28,2.02-.22.03-.44.09-.64.19-1.01.49-1.45,1.69-.99,2.71l3.73,11.57Z"/><path d="M438.01,90.28c-.94.06-1.89,0-2.82-.18-.24-.04-.62.15-.79.33-6.32,6.08-16.4,5.88-22.47-.43-.2-.21-.51-.28-.78-.19-1.48.51-3.03.7-4.58.58-.4-.03-.77.28-.8.69-.03.41.28.77.69.8,1.61.12,3.19-.05,4.73-.52,3.36,3.32,7.77,4.98,12.19,4.98s8.56-1.56,11.93-4.71c.93.15,1.87.19,2.8.14.41-.03.73-.38.7-.79-.03-.41-.38-.73-.79-.7Z"/><path d="M440.59,66.51c-1.71-.45-3.53-.54-5.29-.26-6.79-6.39-17.47-6.28-24.12.27-3.15-.95-6.49-.68-9.46.77-3.11,1.53-5.44,4.17-6.57,7.45-1.86,5.46.13,11.56,4.86,14.85.13.09.28.13.43.13.24,0,.47-.11.62-.32.24-.34.15-.81-.19-1.04-4.18-2.91-5.95-8.31-4.3-13.13.99-2.9,3.05-5.24,5.81-6.59,2.75-1.35,5.87-1.55,8.77-.56.27.09.58.02.78-.19l.13-.13c6.15-6.25,16.23-6.32,22.48-.18.18.17.42.25.67.2,1.65-.32,3.38-.26,5.01.17.4.11.81-.13.92-.53.11-.4-.13-.81-.53-.92Z"/><path id="_パス_9885" class="cls-8" d="M341.68,98.04h11.35c.53.02,1.04.23,1.44.6.38.38.6.9.6,1.44v.23c0,1.12-.91,2.03-2.04,2.03h-11.35s0-4.3,0-4.3Z"/><path id="_パス_9886" class="cls-8" d="M360.96,102.35c-1.12-.01-2.02-.92-2.02-2.04v-.23c0-1.12.92-2.03,2.04-2.03h8.38s.18.52.18.52l.04.11c.26.86.64,1.69,1.13,2.44l.88,1.22h-10.62s-.01,0-.01,0Z"/><path id="_パス_9796" class="cls-3" d="M288.77,161.46c.03-.48.31-.91.74-1.15,16.46-11.46,15.72-26.2,15.23-50.69,0-1.06.49-1.56,1.47-1.56h12.04c.74-.12,1.43.38,1.56,1.11,0,0,0,0,0,0h0c.02.15.02.29,0,.44-.08,29.89-.08,46.1-17.77,61.41-.28.29-.66.47-1.07.49-.43-.02-.84-.19-1.15-.49l-10.4-8.51c-.36-.25-.6-.63-.65-1.07M326.76,168.66v-60.25c0-.86.7-1.55,1.55-1.56h12.37c.76-.1,1.45.43,1.56,1.19.02.12.02.24,0,.37-.3,12.62-.88,26.35-1.03,38.46,0,.91.72,1.65,1.62,1.66.4,0,.79-.14,1.09-.4,4.08-3.46,7.5-8.85,10.19-14.91.15-.48.56-.84,1.06-.9.4.02.79.2,1.07.49l8.52,8.03c.66.66.82,1.23.57,1.8-5.81,12.61-17.44,26.69-37.01,27.6-.98.08-1.55-.49-1.55-1.56"/><path class="cls-7" d="M301.01,172.28c-.69-.03-1.27-.28-1.71-.7l-10.36-8.48c-.48-.33-.84-.9-.92-1.54,0-.05,0-.1,0-.15.05-.74.47-1.39,1.12-1.75,1.36-.95,2.69-2,3.88-3.06.31-.28.78-.25,1.06.06.28.31.25.78-.06,1.06-1.23,1.11-2.61,2.19-4.09,3.22-.24.14-.37.31-.41.51.05.19.16.35.32.46l10.45,8.55c.22.21.46.31.71.32.14-.01.34-.1.49-.26,13.33-11.55,16.41-23.73,17.24-40.88.02-.41.37-.75.79-.71.41.02.73.37.71.79-.85,17.56-4.02,30.04-17.7,41.89-.36.38-.92.64-1.51.67ZM328.14,170.99c-.71,0-1.18-.28-1.45-.53-.31-.29-.68-.83-.68-1.79,0,0,0-.02,0-.03v-7.28c0-.41.34-.75.75-.75s.75.34.75.75v7.31s0,.02,0,.02c0,.31.07.55.2.67.14.13.38.14.55.13,9.12-.42,25.95-4.51,36.38-27.16.05-.11.16-.37-.42-.96l-8.5-8.01c-.16-.16-.33-.25-.52-.28-.18.04-.32.18-.38.36-3.04,6.88-6.54,11.98-10.42,15.27-.44.38-1.02.56-1.58.58-.64,0-1.24-.26-1.68-.72-.45-.46-.69-1.06-.68-1.7.09-7.35.35-15.42.59-23.22l.04-1.29c.01-.41.37-.73.77-.73.41.01.74.36.73.77l-.04,1.29c-.24,7.79-.5,15.85-.59,23.19,0,.24.09.46.25.63.17.17.39.26.63.27h.01c.21,0,.42-.08.58-.22,3.66-3.1,7.12-8.16,10-14.65.2-.68.86-1.24,1.66-1.34.04,0,.09,0,.13,0,.6.03,1.15.29,1.57.72l8.49,8c.88.88,1.12,1.76.75,2.64-10.78,23.39-28.22,27.61-37.67,28.05-.07,0-.14,0-.21,0ZM297.79,153.3c-.16,0-.32-.05-.45-.15-.33-.25-.39-.72-.14-1.05,7.46-9.82,7.21-22.07,6.82-40.61l-.04-1.84c0-1.48.81-2.32,2.22-2.32h11.98c.53-.07,1.06.06,1.5.37.45.32.75.8.85,1.35,0,0,0,.01,0,.02.03.2.04.41,0,.62v.17c-.01,4.51-.02,8.76-.1,12.72,0,.41-.34.76-.76.74-.41,0-.74-.35-.74-.76.07-3.94.08-8.2.1-12.7v-.22s0-.08.01-.12c.01-.06.01-.12,0-.19h0c-.05-.34-.36-.56-.69-.5-.04,0-.08.01-.12.01h-12.04c-.49,0-.72.08-.72.8l.04,1.83c.37,18.18.64,31.32-7.13,41.55-.15.19-.37.3-.6.3ZM326.76,152.37c-.41,0-.75-.34-.75-.75v-43.21c0-1.27,1.03-2.3,2.3-2.31h12.37c1.06-.15,2.14.67,2.3,1.84.03.19.03.38,0,.57-.05,2.23-.11,4.58-.18,6.95-.01.41-.36.73-.77.73-.41-.01-.74-.36-.73-.77.07-2.37.13-4.72.19-7.03.01-.14.01-.19,0-.25-.05-.35-.37-.6-.71-.55h-12.47c-.44,0-.8.37-.8.81v43.21c0,.41-.34.75-.75.75Z"/><rect class="cls-3" x="76.18" y="106.57" width="56.82" height="15.29" rx="2.86" ry="2.86"/><path id="_パス_9792" class="cls-3" d="M84.57,173.67l-9.58-9.99c-.28-.26-.45-.61-.49-.98,0-.49.41-.9,1.15-1.06,14.98-3.29,20.51-9.58,22.51-17.76.32-1.32-.5-2.65-1.82-2.97,0,0,0,0,0,0-.19-.04-.38-.07-.58-.07h-24.78c-.86,0-1.55-.69-1.56-1.55,0,0,0,0,0,0v-10.56c0-.86.69-1.55,1.55-1.56h67.3c.86,0,1.56.7,1.56,1.56v10.56c0,.86-.7,1.56-1.56,1.56h-21.82c-1.22,0-2.26.9-2.43,2.11-1.97,14.07-8.29,25.21-27.33,31.22-.74.28-1.58.08-2.13-.49"/><path id="_パス_9812" class="cls-1" d="M128.19,114.93c-1.64-4.27-3.77-8.33-6.34-12.1-.26-.34-.4-.75-.39-1.17,0-.49.29-.97,1.07-1.27l4.1-1.56c.87-.44,1.93-.14,2.44.68,2.88,3.7,5.24,7.77,7.03,12.1.46.8.19,1.82-.6,2.28-.12.07-.24.12-.37.16l-4.58,1.95c-.75.44-1.71.19-2.15-.55,0,0,0,0,0,0-.09-.16-.16-.34-.19-.52"/><path id="_パス_9813" class="cls-1" d="M139.02,110.54c-1.68-4.13-3.81-8.05-6.35-11.71-.28-.33-.45-.74-.49-1.17,0-.49.39-.97,1.17-1.27l3.9-1.66c.86-.45,1.91-.25,2.54.49,3.05,3.63,5.52,7.71,7.32,12.1.39.85.02,1.86-.83,2.25h0c-.08.04-.16.07-.24.09l-4.59,1.95c-.8.46-1.81.18-2.26-.61-.08-.14-.14-.3-.18-.46"/><path id="_パス_9850" class="cls-8" d="M119.89,156.8c-.85,0-1.69.12-2.5.34-4.94-4.52-12.61-4.18-17.13.76-.37.4-.71.83-1.02,1.27-3.82-1.19-7.88.93-9.07,4.75-1.19,3.82.93,7.88,4.75,9.07,1.41.44,2.91.44,4.32,0,3.81,5.51,11.36,6.88,16.87,3.07.45-.31.88-.65,1.28-1.02,4.94,1.41,10.09-1.45,11.49-6.39s-1.45-10.09-6.39-11.49c-.85-.24-1.72-.36-2.6-.36"/><path class="cls-3" d="M288.36,106.52c-14.17.08-32.1.17-43.97.17-.82-.07-1.57.44-1.8,1.23-2.54,7.21-9.33,18.83-20.31,25.3-.47.2-.78.64-.82,1.15.02.42.23.81.57,1.06l8.93,7.78c.3.31.71.49,1.14.5.36,0,.7-.11.98-.33,1.92-1.26,3.73-2.68,5.41-4.23.49-.46,1.21-.57,1.82-.29,4.74,2.26,9.71,4.84,14.37,7.5.19.11.35.25.48.41.56.71.44,1.75-.28,2.31-7.08,5.53-15.91,9.18-25.98,10.84-.82.16-1.23.49-1.23,1.07.05.33.19.65.41.9l8.92,11.79h0c.43.68,1.28.99,2.05.73,29.81-9.01,48.07-29.39,50.77-66.24.08-1.06-.41-1.64-1.47-1.64Z"/><path id="_パス_9840" class="cls-14" d="M271.1,129.55c-1.18,2.83-3.37,5.12-6.14,6.42-1.75.8-3.28,2-4.48,3.5-.33.41-.93.49-1.34.16-.06-.05-.11-.1-.16-.16-1.2-1.5-2.74-2.7-4.48-3.5-6.15-2.89-8.78-10.22-5.89-16.37,2.89-6.15,10.22-8.78,16.37-5.89,3.86,1.82,6.5,5.51,6.98,9.75"/><path id="_パス_9842" class="cls-8" d="M259.12,118.85c3.22-.32,6.09,2.03,6.41,5.25.32,3.22-2.03,6.09-5.25,6.41-3.22.32-6.09-2.03-6.41-5.25-.32-3.22,2.03-6.09,5.25-6.41,0,0,0,0,0,0"/><path d="M79.04,122.62h9.88c.41,0,.75-.34.75-.75s-.34-.75-.75-.75h-9.88c-1.17,0-2.11-.95-2.11-2.11v-9.56c0-1.17.95-2.11,2.11-2.11h41.69c.41,0,.75-.34.75-.75s-.34-.75-.75-.75h-41.69c-1.99,0-3.61,1.62-3.61,3.61v9.56c0,1.99,1.62,3.61,3.61,3.61Z"/><path d="M132.25,117.77v1.24c0,1.17-.95,2.11-2.11,2.11h-35.98c-.41,0-.75.34-.75.75s.34.75.75.75h35.98c1.99,0,3.61-1.62,3.61-3.61v-1.24c0-.41-.34-.75-.75-.75s-.75.34-.75.75Z"/><path d="M138.27,126.41h-56.28c-.41,0-.75.34-.75.75s.34.75.75.75h56.28c.44,0,.81.36.81.81v10.56c0,.44-.36.8-.81.81h-11.43c-.41,0-.75.34-.75.75s.34.75.75.75h11.43c1.27,0,2.3-1.04,2.3-2.31v-10.56c0-1.27-1.03-2.3-2.31-2.31Z"/><path d="M112.14,152.11c.32,0,.61-.2.71-.52.84-2.59,1.47-5.39,1.91-8.55.12-.83.84-1.46,1.68-1.46h5c.41,0,.75-.34.75-.75s-.34-.75-.75-.75h-5c-1.58,0-2.95,1.18-3.17,2.75-.43,3.08-1.04,5.79-1.85,8.3-.13.39.09.82.48.95.08.03.16.04.23.04Z"/><path d="M127.46,115.15c.05.25.14.48.27.69.44.74,1.23,1.15,2.01,1.15.38,0,.75-.09,1.08-.29l4.5-1.92c.19-.06.37-.13.54-.23.56-.33.96-.85,1.12-1.47.16-.61.08-1.24-.22-1.79-1.32-3.2-2.97-6.29-4.9-9.17-.23-.35-.7-.44-1.04-.21-.34.23-.44.7-.21,1.04,1.88,2.81,3.49,5.82,4.78,8.95.01.03.03.06.04.09.26.44.11,1-.33,1.26-.06.04-.13.07-.29.12l-4.67,2c-.19.11-.41.14-.62.09-.21-.05-.39-.19-.5-.38-.05-.09-.08-.18-.1-.28-.01-.06-.03-.13-.06-.18-1.65-4.3-3.81-8.4-6.43-12.24-.15-.2-.24-.45-.23-.71,0-.23.2-.42.59-.57l4.17-1.59c.53-.26,1.16-.09,1.52.47l.41.53c.25.33.72.4,1.05.15.33-.25.4-.72.15-1.05l-.38-.49c-.73-1.16-2.19-1.57-3.35-.99l-4.1,1.56c-1.41.53-1.56,1.56-1.56,1.96,0,.59.19,1.17.52,1.6,2.53,3.71,4.63,7.71,6.24,11.89Z"/><path d="M147.81,107.03c-.1-.25-.21-.5-.32-.75-.16-.38-.6-.56-.99-.39-.38.16-.56.6-.39.99.1.24.21.49.32.76.22.48,0,1.04-.46,1.26-.05.02-.09.04-.22.08l-4.67,1.99c-.44.25-.99.09-1.24-.34-.04-.06-.06-.13-.08-.2,0-.05-.02-.11-.05-.16-1.7-4.17-3.86-8.16-6.47-11.92-.18-.21-.29-.46-.31-.68,0-.15.21-.39.71-.58l3.95-1.69c.55-.29,1.22-.16,1.62.31,2.03,2.41,3.8,5.04,5.28,7.81.19.37.65.5,1.01.31.37-.19.5-.65.31-1.01-1.53-2.87-3.36-5.59-5.46-8.08-.86-1-2.28-1.28-3.4-.69l-3.87,1.65c-1.04.39-1.66,1.13-1.65,2.03.05.6.28,1.15.62,1.54,2.49,3.59,4.59,7.46,6.24,11.5.05.21.13.42.24.61.45.79,1.28,1.23,2.11,1.23.38,0,.76-.09,1.1-.29l4.5-1.92c.12-.03.23-.08.34-.13,1.23-.56,1.77-2.02,1.21-3.22Z"/><path d="M122.7,156.44c-.9-.26-1.82-.39-2.75-.39-.8,0-1.58.08-2.36.27-.88-.76-1.86-1.39-2.91-1.88-.38-.18-.82-.02-1,.36-.18.38-.02.82.36,1,1.03.49,1.99,1.13,2.84,1.91.19.17.46.24.71.17.75-.21,1.52-.32,2.3-.32.77-.01,1.61.11,2.39.33,2.2.63,4.02,2.07,5.13,4.07,1.11,2,1.38,4.3.75,6.5-.63,2.2-2.07,4.02-4.07,5.13-2,1.11-4.3,1.38-6.5.75-.25-.07-.52,0-.71.17-.38.34-.78.67-1.2.96-5.16,3.57-12.25,2.28-15.82-2.88-.19-.27-.53-.39-.84-.29-1.27.4-2.6.4-3.87,0-1.65-.52-3.01-1.65-3.81-3.18-.8-1.54-.96-3.29-.45-4.95,1.07-3.41,4.71-5.32,8.13-4.26.31.1.65-.02.84-.29.29-.42.61-.82.95-1.19,2.05-2.25,4.86-3.56,7.9-3.69.41-.02.73-.37.72-.78-.02-.41-.35-.76-.78-.72-3.44.15-6.62,1.63-8.94,4.17-.27.29-.52.6-.76.92-4.05-.96-8.22,1.36-9.48,5.39-.64,2.04-.44,4.2.55,6.09.36.69.82,1.32,1.35,1.87-1.54.64-3.18,1.24-4.93,1.79-.46.17-.98.05-1.32-.31l-9.61-10.02c-.15-.13-.24-.32-.25-.43,0-.1.21-.25.56-.33,13.59-2.98,20.71-8.63,23.08-18.32.2-.83.06-1.7-.38-2.43-.45-.73-1.15-1.25-1.99-1.45-.24-.06-.49-.09-.75-.09h-24.79c-.21,0-.42-.08-.57-.23-.15-.15-.24-.35-.24-.57v-10.56c0-.44.36-.8.8-.81h5.2c.41,0,.75-.34.75-.75s-.34-.75-.75-.75h-5.21c-1.27,0-2.3,1.04-2.3,2.31v10.57c0,.62.24,1.19.68,1.63.43.43,1.01.67,1.63.67h24.78c.14,0,.27.02.4.05.92.22,1.48,1.15,1.26,2.06-2.25,9.18-8.81,14.33-21.95,17.21-1.07.24-1.73.93-1.73,1.88.06.55.32,1.07.7,1.42l9.58,9.98c.53.55,1.25.85,1.98.85.31,0,.62-.05.91-.16,2.03-.64,3.95-1.36,5.74-2.13.62.41,1.31.74,2.04.97,1.39.43,2.84.48,4.24.15,1.95,2.59,4.76,4.32,7.97,4.9.78.14,1.56.21,2.33.21,2.59,0,5.12-.78,7.3-2.29.37-.25.72-.53,1.05-.81,2.46.6,5.01.25,7.24-.99,2.35-1.3,4.04-3.45,4.78-6.03s.42-5.29-.88-7.64c-1.3-2.35-3.44-4.04-6.03-4.78Z"/><path class="cls-7" d="M282.04,139.83c-.37-.18-.82-.03-1,.34-8.11,16.42-21.91,27.38-42.21,33.52-.44.15-.92-.02-1.21-.47l-8.96-11.83c-.11-.13-.19-.28-.22-.44.02-.07.11-.19.6-.29,10.31-1.7,19.16-5.4,26.32-10.99.5-.39.82-.96.9-1.6.08-.63-.1-1.26-.49-1.76-.2-.25-.43-.46-.7-.61-4.45-2.54-9.44-5.14-14.43-7.53-.89-.42-1.93-.25-2.65.42-1.65,1.53-3.44,2.92-5.36,4.19-.15.11-.3.16-.51.17-.23,0-.45-.1-.66-.32l-8.98-7.82c-.16-.12-.26-.3-.27-.4.02-.23.16-.43.46-.56,1.4-.83,2.79-1.77,4.12-2.79.33-.25.39-.72.14-1.05s-.72-.39-1.05-.14c-1.28.99-2.62,1.9-3.88,2.65-.73.31-1.21,1-1.27,1.88.03.65.35,1.25.83,1.59l8.88,7.73c.44.46,1.05.72,1.68.73.52,0,1.04-.16,1.41-.45,1.94-1.28,3.8-2.73,5.51-4.31.27-.25.65-.31.98-.16,4.95,2.37,9.9,4.95,14.33,7.48.1.06.19.13.26.22.3.39.24.95-.15,1.25-6.96,5.43-15.58,9.03-25.67,10.69-1.51.3-1.83,1.15-1.83,1.8,0,.03,0,.07,0,.1.07.48.27.93.55,1.25l8.89,11.73c.47.75,1.28,1.18,2.12,1.18.26,0,.52-.04.78-.13,20.69-6.25,34.79-17.47,43.1-34.28.18-.37.03-.82-.34-1Z"/><path class="cls-7" d="M290.06,106.41c-.4-.43-.97-.64-1.71-.64h-2.08c-.41.01-.75.35-.75.77,0,.41.34.75.75.75h2.08c.17-.01.47,0,.6.15.1.11.15.35.12.67-.7,9.56-2.5,18.24-5.34,25.8-.15.39.05.82.44.97.09.03.18.05.26.05.3,0,.59-.19.7-.49,2.89-7.69,4.72-16.51,5.43-26.22.06-.76-.12-1.37-.52-1.8Z"/><path class="cls-7" d="M282.4,105.8h0c-9.12.05-26.17.13-37.94.14-1.18-.11-2.26.64-2.58,1.73-.82,2.32-4.05,10.47-11.29,17.97-.29.3-.28.77.02,1.06.15.14.33.21.52.21s.39-.08.54-.23c7.46-7.72,10.79-16.12,11.64-18.55.13-.44.55-.73,1.08-.69,11.84,0,28.9-.08,38.02-.13.41,0,.75-.34.75-.75,0-.41-.34-.75-.75-.75Z"/><path class="cls-7" d="M248.98,129.26c-.16-.38-.6-.56-.98-.4-.38.16-.56.6-.4.98,1.25,3.01,3.57,5.43,6.52,6.82,1.63.75,3.09,1.89,4.21,3.28.28.36.69.58,1.14.64.07,0,.14.01.2.01.38,0,.75-.13,1.05-.37.11-.08.2-.18.28-.28,1.12-1.4,2.58-2.54,4.22-3.29,3.15-1.49,5.54-4.11,6.72-7.39s1.01-6.82-.47-9.98c-1.49-3.15-4.11-5.54-7.39-6.72-3.28-1.18-6.82-1.01-9.98.47-4.07,1.92-6.91,5.88-7.41,10.35-.05.41.25.78.66.83.41.04.78-.25.83-.66.44-3.95,2.96-7.46,6.56-9.16,2.79-1.31,5.93-1.46,8.83-.42,2.9,1.04,5.23,3.16,6.54,5.95,1.31,2.79,1.46,5.93.42,8.83s-3.16,5.23-5.94,6.54c-1.84.85-3.49,2.13-4.79,3.75-.08.06-.23.04-.29-.04-1.27-1.58-2.91-2.87-4.75-3.71-2.61-1.23-4.66-3.37-5.77-6.03Z"/><path class="cls-7" d="M259.2,119.6c1.43-.14,2.87.33,3.93,1.3.31.28.78.25,1.06-.05.28-.31.25-.78-.05-1.06-1.38-1.25-3.24-1.86-5.09-1.68-1.76.17-3.34,1.02-4.46,2.39-1.12,1.37-1.64,3.08-1.46,4.84.17,1.76,1.02,3.34,2.39,4.46,1.19.98,2.65,1.5,4.17,1.5.22,0,.44-.01.67-.03,3.31-.33,5.87-3.08,5.95-6.41,0-.41-.32-.76-.73-.77-.4.03-.76.32-.77.73-.06,2.57-2.04,4.7-4.6,4.95-1.36.13-2.69-.27-3.74-1.13-1.06-.86-1.71-2.09-1.85-3.45s.27-2.69,1.13-3.74c.86-1.06,2.09-1.71,3.45-1.85Z"/><path id="_パス_9797" class="cls-3" d="M408.88,174.65c-.41,0-.74-.25-1.06-.74-8.6-12.77-19.41-23.01-33.25-32.02-.44-.23-.75-.65-.82-1.15.06-.45.33-.85.74-1.07l10.15-7.45c.32-.27.73-.41,1.15-.41.41,0,.81.11,1.15.33,4.21,2.54,8.24,5.38,12.06,8.49.61.49,1.47.48,2.08-.01,4.71-3.95,8.87-8.52,12.36-13.58.51-.74.33-1.76-.42-2.28-.28-.19-.61-.29-.95-.29l-43.96.38c-.76.1-1.45-.43-1.56-1.19-.02-.12-.02-.24,0-.36v-11.79c0-.86.7-1.56,1.55-1.56h67.31c1.06,0,1.64.57,1.47,1.64-2.2,16.59-13.01,30.46-23.58,39.73-.68.59-.76,1.63-.17,2.31.02.02.03.04.05.05,2.79,2.87,5.37,5.93,7.73,9.16.21.26.32.57.33.9-.01.49-.26.95-.65,1.23l-10.64,9.17c-.28.29-.66.47-1.07.49"/><path id="_パス_9884" class="cls-14" d="M374.43,112.9c-1.3,0-2.34-1.06-2.34-2.36v-8.19s11.35,0,11.35,0c1.12,0,2.03-.91,2.04-2.03v-.23c0-1.12-.9-2.02-2.02-2.03h-11.37s0-1.39,0-1.39c0-1.3,1.05-2.35,2.35-2.36h5.2c5.29-.01,12.54-.02,14.42,0h.47c1.42-.03,2.79.46,3.86,1.39.35.36.64.78.86,1.24l.57,1.13h-8.46c-1.12,0-2.03.91-2.04,2.03v.23c0,1.12.9,2.02,2.02,2.04h11.21s.16.07.16.07c.49.22.99.41,1.5.56,1.15.24,2.19.84,2.98,1.71.54.81.82,1.78.78,2.75.02,1.02.04,2.04.05,3.06.02,1.3-1.03,2.37-2.33,2.39,0,0,0,0,0,0h-.03s-31.24,0-31.24,0h0Z"/><path id="_パス_9896" class="cls-8" d="M402.87,113.08c0,2.47-2,4.47-4.48,4.47-2.47,0-4.47-2-4.47-4.48,0-2.47,2-4.47,4.47-4.47,2.47,0,4.47,2,4.47,4.48"/><path id="_パス_9896-2" class="cls-8" d="M385.28,112.95c0,2.47-2,4.47-4.48,4.47-2.47,0-4.47-2-4.47-4.48,0-2.47,2-4.47,4.47-4.47,2.47,0,4.47,2,4.47,4.48"/><path class="cls-3" d="M158.91,172.76l-4.66-12.36c-.41-.98.08-1.64,1.15-1.8,31.28-3.77,42.09-19.16,50.69-42.17.25-.65.65-.98,1.15-.98.36,0,.7.11.98.33l10.81,6.88c.82.49,1.06,1.07.82,1.8-9.34,24.97-25.06,43.97-58.96,49.38-.83.22-1.69-.25-1.96-1.07"/><path class="cls-3" d="M149,135.75c-.74-.25-1.06-.65-1.06-1.23.02-.29.1-.57.25-.82l5.73-9.5c.37-.76,1.26-1.12,2.05-.82,7.17,2.01,13.87,5.4,19.73,9.99.36.27.57.7.57,1.15,0,.35-.11.7-.33.98l-6.47,9.99c-.23.42-.66.7-1.15.74-.4.01-.78-.14-1.07-.41-5.52-4.3-11.68-7.7-18.26-10.07"/><path class="cls-3" d="M158.5,117.34c-.65-.25-1.07-.66-1.07-1.15.04-.32.15-.63.33-.9l5.81-9.01c.34-.74,1.2-1.1,1.97-.82,7.54,2,14.61,5.48,20.8,10.24.38.26.62.68.65,1.15-.03.39-.17.76-.41,1.07l-6.8,9.01c-.25.45-.72.73-1.23.74-.36-.03-.71-.17-.98-.41-4.91-3.68-12.6-7.46-19.07-9.91"/><path id="_パス_9809" class="cls-6" d="M204.5,119.14c-1.68-4.13-3.8-8.05-6.34-11.71-.28-.33-.45-.74-.49-1.17,0-.49.39-.97,1.17-1.27l3.9-1.66c.86-.45,1.91-.25,2.54.49,3.05,3.63,5.52,7.71,7.32,12.1.39.85.02,1.86-.83,2.25h0c-.08.04-.16.07-.24.09l-4.59,1.95c-.8.46-1.81.18-2.26-.61-.08-.14-.14-.3-.18-.46"/><path id="_パス_9808" class="cls-6" d="M193.67,123.53c-1.64-4.27-3.77-8.33-6.35-12.1-.26-.34-.4-.75-.39-1.17,0-.49.29-.97,1.07-1.27l4.1-1.56c.87-.44,1.93-.14,2.44.68,2.88,3.7,5.24,7.77,7.03,12.1.46.8.2,1.82-.6,2.28-.12.07-.24.12-.37.16l-4.59,1.95c-.75.44-1.71.19-2.15-.55-.09-.16-.16-.34-.19-.52"/><path id="_パス_9884-2" class="cls-4" d="M165.85,165.79c-1.16.59-2.57.13-3.16-1.03l-3.75-7.28,10.09-5.2c1-.52,1.39-1.74.88-2.74l-.1-.21c-.51-.99-1.73-1.38-2.72-.88l-10.1,5.21-.64-1.23c-.59-1.16-.14-2.57,1.01-3.17l4.62-2.39c4.7-2.43,11.14-5.76,12.82-6.61l.42-.21c1.24-.68,2.69-.87,4.07-.54.48.16.93.4,1.33.7l1.02.74-7.52,3.87c-1,.52-1.39,1.74-.88,2.74l.11.21c.51.99,1.73,1.39,2.73.88l9.96-5.13h.17c.53-.03,1.06-.1,1.59-.19,1.13-.32,2.33-.26,3.43.15.86.47,1.54,1.21,1.95,2.09.49.9.97,1.8,1.45,2.7.61,1.15.17,2.58-.98,3.19,0,0,0,0,0,0h-.02s-27.77,14.32-27.77,14.32h0Z"/><path id="_パス_9885-2" class="cls-8" d="M156.96,153.66l10.09-5.2c.49-.23,1.04-.27,1.55-.13.51.16.94.52,1.19,1l.1.21c.51,1,.12,2.23-.88,2.74l-10.09,5.2-1.97-3.82Z"/><path id="_パス_9886-2" class="cls-8" d="M176.07,148.65c-1,.5-2.21.11-2.73-.88l-.1-.21c-.51-1-.12-2.22.88-2.74l7.45-3.84.4.38.09.08c.63.65,1.34,1.21,2.13,1.65l1.35.68-9.44,4.87h-.01Z"/><path id="_パス_9896-3" class="cls-8" d="M191.21,152.91c1.13,2.2.27,4.89-1.93,6.03-2.2,1.13-4.89.27-6.03-1.93-1.13-2.2-.27-4.89,1.93-6.03,2.2-1.13,4.9-.27,6.03,1.93"/><path id="_パス_9896-4" class="cls-8" d="M175.52,160.86c1.13,2.2.27,4.89-1.93,6.03-2.2,1.13-4.89.27-6.03-1.93-1.13-2.2-.27-4.89,1.93-6.03,2.2-1.13,4.9-.27,6.03,1.93"/><path id="_パス_9798" class="cls-3" d="M453.13,174.1l-7.35-8.3c-.23-.24-.38-.55-.41-.88,0-.41.41-.68,1.02-.82,21.44-3.4,29.74-13.68,30.42-35.59,0-.88.55-1.29,1.43-1.16l9.6,1.36c.65.03,1.15.58,1.12,1.22h0c0,.07-.01.13-.03.2-2.04,22.32-9.12,38.86-34.1,44.51-.62.14-1.27-.07-1.7-.55"/><path id="_パス_9867" class="cls-4" d="M442.77,143.18c0,4.48,3.63,13.96,8.11,13.96s8.11-9.48,8.11-13.96c.05-4.48-3.54-8.16-8.02-8.21-4.48-.05-8.16,3.54-8.21,8.02,0,.06,0,.12,0,.18"/><path id="_パス_9869" class="cls-10" d="M470.8,134.91c0,4.85-3.93,20.85-8.77,20.85s-8.77-16.01-8.77-20.85,3.93-8.77,8.77-8.77,8.77,3.93,8.77,8.77"/><path d="M398.4,111.64h0c-.79,0-1.43.64-1.43,1.44,0,.79.64,1.43,1.44,1.43.79,0,1.43-.64,1.43-1.44h0c0-.79-.64-1.43-1.43-1.43Z"/><path d="M412.58,125.39c.2.13.33.34.37.57.04.23,0,.47-.14.66-3.45,5.01-7.57,9.53-12.22,13.43-.32.27-.8.27-1.12.01-1.11-.9-2.24-1.78-3.35-2.62-.33-.25-.8-.18-1.05.15-.25.33-.18.8.15,1.05,1.1.82,2.21,1.69,3.31,2.58.44.35.97.52,1.5.52s1.09-.18,1.53-.55c4.76-3.99,8.97-8.61,12.5-13.73.75-1.08.47-2.57-.61-3.32-.41-.28-.89-.42-1.38-.42l-44.05.39c-.17.02-.33-.02-.47-.13-.13-.1-.22-.25-.24-.42,0-.06,0-.12,0-.27v-11.79c0-.21.08-.42.24-.57.15-.15.35-.24.57-.24.42,0,.75-.34.75-.75s-.34-.75-.75-.75c-.62,0-1.19.24-1.63.68s-.67,1.02-.67,1.63v11.69c-.02.18-.02.37,0,.56.07.57.37,1.07.82,1.42.45.35,1.01.49,1.49.43l43.96-.38c.19,0,.36.05.51.16Z"/><path d="M413.7,153.15c-.32-.37-.28-.93.09-1.26,1.74-1.52,3.43-3.13,5.03-4.76.29-.3.28-.77-.01-1.06-.29-.29-.77-.28-1.06.01-1.57,1.61-3.23,3.19-4.94,4.68-1,.86-1.1,2.38-.25,3.36.01.01.07.08.08.09,2.75,2.84,5.33,5.89,7.69,9.11.1.13.16.29.17.41,0,.25-.13.49-.39.68l-10.7,9.22c-.15.16-.35.25-.52.26-.11,0-.26-.14-.44-.41-8.54-12.69-19.17-22.93-33.52-32.26-.19-.1-.34-.28-.4-.48.05-.17.17-.32.33-.4.03-.02.06-.04.09-.06l10.19-7.48c.19-.15.42-.24.68-.24h0c.29-.01.51.07.75.22,1.37.83,2.75,1.71,4.1,2.61.34.23.81.14,1.04-.21.23-.34.14-.81-.21-1.04-1.36-.91-2.76-1.8-4.13-2.63-.46-.3-.99-.46-1.52-.46-.01,0-.03,0-.04,0-.59,0-1.17.21-1.59.55l-10.12,7.42c-.58.34-.98.93-1.07,1.6,0,.07,0,.14,0,.21.11.73.56,1.36,1.15,1.67,14.11,9.19,24.61,19.29,33.03,31.81.18.26.72,1.07,1.72,1.07h0c.6-.03,1.16-.29,1.52-.67l10.59-9.13c.59-.42.95-1.1.97-1.87-.02-.49-.19-.96-.48-1.32-2.38-3.25-5-6.36-7.82-9.26Z"/><path d="M437.2,109.93c-.28-.32-.82-.71-1.79-.71h-18.47c-.41,0-.75.34-.75.75s.34.75.75.75h18.47c.31,0,.55.07.66.19.12.14.1.43.08.6-1.38,10.44-6.52,21.06-14.85,30.73-.27.31-.24.79.08,1.06.14.12.32.18.49.18.21,0,.42-.09.57-.26,8.52-9.89,13.78-20.78,15.2-31.5.14-.91-.15-1.48-.42-1.79Z"/><path d="M383.62,95.04h0c4.85,0,10.46,0,10.94,0,1.19-.03,2.42.4,3.32,1.17.31.3.54.68.74,1.08h-7.24c-1.53,0-2.78,1.25-2.78,2.78v.24c0,1.53,1.25,2.78,2.79,2.78h11.02c.52.25,1.06.43,1.59.6.22.07.44.14.66.22.08.03.17.04.25.04.31,0,.6-.19.71-.5.14-.39-.07-.82-.46-.96-.23-.08-.46-.16-.69-.23-.83-.27-1.62-.52-2.21-1.02-.78-.65-1.16-1.71-1.55-2.83-.41-1.16-.84-2.36-1.8-3.32-1.21-1.04-2.77-1.6-4.32-1.57-.37-.01-3.64-.01-10.95,0-.41,0-.75.34-.75.75s.34.75.75.75ZM399.23,98.8s.03.09.05.13c.33.92.66,1.87,1.25,2.67h-9.15c-.71,0-1.29-.58-1.29-1.28v-.24c0-.71.58-1.28,1.29-1.29h7.85Z"/><path d="M372.09,107.58c.41,0,.75-.34.75-.75v-8.03s10.6,0,10.6,0c.71,0,1.29.58,1.29,1.28v.24c0,.71-.58,1.28-1.29,1.29h-7.96c-.41,0-.75.33-.75.75s.34.75.75.75h7.97c1.53,0,2.78-1.25,2.78-2.78v-.24c0-1.53-1.25-2.78-2.78-2.78h-10.6s0-.63,0-.63c0-.89.72-1.61,1.61-1.61h5.06c.41,0,.75-.34.75-.76s-.34-.75-.75-.75h-5.06c-1.71,0-3.11,1.4-3.11,3.12v10.17c0,.41.33.75.75.75Z"/><path d="M405.68,112.15h-2.15c-.44-2.44-2.57-4.3-5.13-4.3-2.56,0-4.69,1.86-5.13,4.3h-7.3c-.2-1.29-.86-2.47-1.9-3.3-.32-.26-.79-.21-1.05.12-.26.32-.2.8.12,1.05.89.71,1.41,1.77,1.41,2.92,0,2.05-1.67,3.72-3.72,3.72h0c-2.05,0-3.72-1.67-3.72-3.72,0-2.05,1.67-3.72,3.72-3.72.15,0,.31,0,.46.03.42.05.79-.24.84-.65.05-.41-.24-.79-.65-.84-.21-.03-.42-.04-.64-.04-2.61,0-4.76,1.93-5.14,4.43h-1.22c-.89,0-1.61-.72-1.61-1.61v-.54c0-.41-.33-.75-.74-.76-.41.02-.75.33-.76.74v.55c0,1.71,1.39,3.11,3.11,3.11h1.21c.35,2.54,2.51,4.52,5.15,4.52h0c2.64,0,4.8-1.97,5.15-4.52h7.27c.29,2.61,2.48,4.65,5.16,4.65h0c2.68,0,4.87-2.04,5.17-4.64h2.16c.83-.01,1.61-.34,2.19-.94.58-.6.89-1.38.88-2.21-.01-1.02-.03-2.05-.05-3.03.03-.99-.21-1.97-.69-2.84-.2-.36-.66-.49-1.02-.29-.36.2-.49.66-.29,1.02.35.63.52,1.34.5,2.1.02,1.02.04,2.03.05,3.05,0,.43-.16.84-.46,1.14-.3.31-.7.48-1.15.49ZM398.4,116.8h0c-2.05,0-3.72-1.67-3.72-3.73,0-2.05,1.67-3.72,3.72-3.72,2.05,0,3.72,1.67,3.72,3.73,0,2.05-1.67,3.72-3.72,3.72Z"/><path d="M380.81,111.51c-.79,0-1.43.64-1.43,1.44,0,.79.64,1.43,1.44,1.43.79,0,1.43-.64,1.43-1.44h0c0-.79-.64-1.43-1.43-1.43h0Z"/><path d="M187.89,156.24c.7-.36.98-1.23.62-1.93h0c-.36-.7-1.23-.98-1.93-.62,0,0,0,0,0,0-.7.36-.98,1.23-.62,1.93s1.23.98,1.93.62Z"/><path d="M192.95,123.74c.05.25.15.48.28.7.44.74,1.23,1.15,2.01,1.15.38,0,.75-.09,1.08-.29l4.5-1.92c.19-.05.37-.13.54-.23,1.13-.66,1.53-2.12.9-3.26-1.1-2.66-2.43-5.24-3.94-7.69-.22-.35-.68-.46-1.03-.24-.35.22-.46.68-.24,1.03,1.48,2.39,2.78,4.91,3.85,7.51.01.03.03.06.05.09.26.44.11,1-.33,1.26-.07.04-.14.07-.29.12l-4.68,2c-.39.23-.89.1-1.12-.29-.05-.09-.09-.18-.1-.28,0-.04-.02-.09-.04-.13-1.66-4.31-3.82-8.44-6.45-12.29-.15-.2-.24-.45-.24-.71,0-.23.2-.42.59-.57l4.17-1.59c.52-.26,1.16-.09,1.52.47.26.33.51.67.76,1.01.25.33.72.4,1.05.16.33-.25.4-.72.16-1.05-.26-.35-.52-.69-.74-.97-.73-1.16-2.19-1.57-3.35-.98l-4.1,1.56c-1.41.53-1.56,1.56-1.56,1.96,0,.59.19,1.17.52,1.6,2.53,3.7,4.63,7.7,6.24,11.89Z"/><path d="M203.78,119.36c.05.21.13.41.24.6.45.79,1.28,1.23,2.11,1.23.38,0,.76-.09,1.1-.29l4.5-1.92c.12-.03.23-.08.35-.13,1.23-.57,1.77-2.02,1.21-3.22-.42-1.02-.88-2.04-1.37-3.02-.18-.37-.63-.52-1-.34-.37.18-.52.63-.34,1,.47.95.92,1.94,1.33,2.96.22.48,0,1.04-.46,1.26-.04.02-.09.04-.22.08l-4.67,1.99c-.21.12-.46.15-.69.09-.23-.06-.43-.22-.55-.43-.04-.07-.07-.15-.09-.24,0-.04-.02-.08-.04-.12,0,0,0,0,0,0,0,0,0,0,0,0,0,0,0,0,0-.01-1.69-4.16-3.85-8.15-6.46-11.9-.18-.21-.29-.47-.31-.68,0-.15.21-.39.71-.58l3.95-1.69c.55-.29,1.22-.16,1.62.31,1.5,1.78,2.86,3.69,4.06,5.67.21.35.67.47,1.03.25.35-.21.47-.68.25-1.03-1.24-2.05-2.65-4.02-4.2-5.87-.86-1-2.28-1.28-3.4-.69l-3.87,1.65c-1.04.39-1.66,1.13-1.65,2.03.04.59.28,1.16.62,1.54,2.49,3.59,4.59,7.46,6.24,11.51Z"/><path d="M202.13,125.97c-.37-.18-.82-.02-1,.36-2.35,4.94-4.82,9.05-7.57,12.56-.26.33-.2.8.13,1.05.14.11.3.16.46.16.22,0,.44-.1.59-.29,2.82-3.59,5.35-7.79,7.75-12.84.18-.37.02-.82-.36-1Z"/><path d="M174.17,136.87c-.23.35-.13.81.22,1.04.13.08.27.12.41.12.25,0,.49-.12.63-.34l1.11-1.71c.32-.41.49-.93.48-1.44,0-.69-.33-1.34-.86-1.74-1.14-.9-2.33-1.76-3.53-2.56-.34-.23-.81-.14-1.04.21-.23.34-.14.81.21,1.04,1.17.78,2.32,1.62,3.45,2.5.17.13.27.33.27.56,0,.18-.06.37-.21.56l-1.14,1.77Z"/><path d="M158.23,118.04c5.7,2.16,13.66,5.87,18.85,9.78.4.34.89.54,1.49.59.76-.02,1.45-.42,1.84-1.07l6.76-8.96c.34-.43.53-.94.57-1.48,0-.03,0-.07,0-.1-.05-.69-.41-1.31-.95-1.69-3.37-2.59-7.03-4.83-10.88-6.65-.37-.18-.82-.02-1,.36-.18.37-.02.82.36,1,3.75,1.77,7.32,3.95,10.64,6.5.18.12.3.32.33.53-.02.22-.11.42-.25.61l-6.8,9.01s-.04.06-.06.09c-.12.21-.35.35-.51.36-.21-.02-.4-.1-.59-.26-5.36-4.03-13.46-7.81-19.26-10.01-.38-.14-.58-.34-.59-.36.02-.2.09-.4.21-.58l5.81-9.01s.04-.06.05-.09c.18-.39.63-.57,1.09-.41,1.01.27,2.03.57,3.01.89.39.13.82-.09.94-.48.13-.39-.09-.82-.48-.94-1.01-.33-2.05-.63-3.03-.89-1.11-.41-2.36.1-2.88,1.16l-5.78,8.96c-.24.37-.4.79-.45,1.32,0,.8.56,1.47,1.55,1.85Z"/><path d="M219.42,122.02l-4.1-2.61c-.35-.22-.81-.12-1.04.23s-.12.81.23,1.04l4.12,2.62c.67.4.58.68.5.89-8.54,22.83-21.43,36.89-40.57,44.24-.39.15-.58.58-.43.97.11.3.4.48.7.48.09,0,.18-.02.27-.05,19.57-7.51,32.74-21.85,41.44-45.14.25-.76.26-1.84-1.13-2.67Z"/><path d="M161.84,142.77c.25,0,.49-.12.64-.35.22-.35.12-.81-.24-1.03-4.08-2.57-8.45-4.7-13-6.34-.55-.19-.55-.39-.56-.47,0-.17.06-.34.14-.47l5.77-9.56c.2-.42.68-.61,1.17-.42,3.79,1.06,7.48,2.53,10.97,4.36.36.19.82.05,1.01-.32.19-.37.05-.82-.32-1.01-3.58-1.88-7.37-3.39-11.2-4.46-1.16-.44-2.45.08-2.95,1.13l-5.74,9.51c-.21.35-.33.75-.35,1.2,0,.64.27,1.5,1.56,1.93,4.43,1.6,8.7,3.68,12.69,6.19.12.08.26.12.4.12Z"/><path d="M168.41,171.57c-2.45.59-5.02,1.1-7.72,1.54-.45.11-.92-.14-1.06-.58-.01-.03-.03-.07-.04-.1l-4.65-12.32c-.09-.21-.11-.39-.06-.49.06-.1.25-.22.6-.28.44-.05.87-.11,1.3-.17.41-.05.7-.43.64-.84-.05-.41-.43-.71-.84-.64-.42.06-.85.11-1.3.17-1.02.16-1.49.65-1.7,1.03-.2.36-.37.96-.03,1.78l4.67,12.37s.02.04.03.06c.36.95,1.27,1.55,2.21,1.55.18,0,.37-.02.55-.07,2.67-.43,5.29-.95,7.77-1.55.4-.1.65-.5.55-.9-.1-.4-.5-.65-.91-.55Z"/><path d="M168.68,151.61l-7.08,3.65c-.37.19-.51.64-.32,1.01.13.26.4.41.67.41.12,0,.23-.03.34-.08l7.08-3.65c1.36-.71,1.9-2.39,1.2-3.74l-.11-.22c-.7-1.36-2.38-1.89-3.75-1.2l-9.42,4.86-.29-.56c-.41-.79-.1-1.76.69-2.17l4.5-2.33c.37-.19.51-.64.32-1.01s-.64-.51-1.01-.32l-4.5,2.33c-1.52.79-2.12,2.67-1.34,4.19l4.66,9.04c.13.26.4.41.67.41.12,0,.23-.03.34-.08.37-.19.51-.64.32-1.01l-3.68-7.14,9.42-4.86c.63-.32,1.41-.07,1.73.55l.11.21c.32.63.07,1.41-.55,1.73Z"/><path d="M172.57,147.9l.11.21c.5.95,1.47,1.5,2.48,1.5.43,0,.86-.1,1.27-.31l9.8-5.05c.57-.02,1.14-.1,1.69-.19.23-.04.46-.08.69-.11.41-.06.7-.44.64-.85-.06-.41-.44-.7-.85-.64-.24.03-.48.07-.73.11-.86.14-1.68.27-2.43.11-1-.22-1.81-.99-2.68-1.8-.9-.84-1.82-1.71-3.12-2.12-1.56-.37-3.19-.16-4.56.59-.33.16-3.34,1.71-9.74,5.01-.37.19-.51.64-.32,1.01.13.26.4.41.67.41.12,0,.23-.03.34-.08,3.96-2.05,9.28-4.79,9.73-5.01,1.08-.58,2.34-.75,3.48-.48.41.13.79.35,1.16.62l-6.43,3.32c-1.36.71-1.9,2.39-1.2,3.75ZM174.46,145.49l6.98-3.6s.07.06.1.1c.71.67,1.45,1.35,2.34,1.8l-8.13,4.19c-.63.32-1.41.08-1.73-.54l-.11-.21c-.32-.63-.07-1.41.55-1.73Z"/><path d="M182.89,157.85c.99,1.49,2.64,2.33,4.35,2.33.8,0,1.62-.19,2.38-.58,1.24-.64,2.16-1.72,2.58-3.05.37-1.14.31-2.34-.12-3.44l1.91-.99c.73-.39,1.27-1.04,1.52-1.84.24-.79.16-1.64-.23-2.37-.48-.91-.96-1.81-1.43-2.67-.43-.9-1.09-1.66-1.91-2.21-.34-.23-.81-.13-1.04.21-.23.35-.13.81.21,1.04.6.4,1.08.95,1.41,1.64.49.89.97,1.79,1.44,2.69.2.38.24.82.12,1.23-.13.41-.4.75-.8.96l-1.91.99c-1.51-1.97-4.25-2.65-6.53-1.48-2.28,1.18-3.32,3.81-2.59,6.18l-6.49,3.34c-.77-1.06-1.9-1.8-3.2-2.06-.4-.08-.8.18-.88.59-.08.41.18.8.59.88,1.12.22,2.06.93,2.58,1.95.94,1.83.22,4.08-1.61,5.02-1.82.94-4.08.22-5.02-1.61-.94-1.82-.22-4.07,1.6-5.02.14-.07.28-.13.42-.18.39-.14.59-.58.44-.96s-.58-.59-.96-.44c-.2.07-.39.16-.59.26-2.32,1.19-3.34,3.89-2.54,6.29l-1.08.56c-.38.2-.82.23-1.23.1-.41-.13-.74-.41-.94-.79l-.25-.48c-.19-.37-.64-.52-1.01-.33-.37.19-.52.64-.33,1.01l.25.49c.38.74,1.03,1.28,1.82,1.54.31.1.63.15.95.15.49,0,.97-.12,1.42-.35l1.05-.54c1,1.42,2.61,2.23,4.28,2.23.8,0,1.62-.19,2.38-.58,2.34-1.21,3.37-3.95,2.51-6.38l6.45-3.32ZM185.53,151.65c.54-.28,1.13-.41,1.7-.41,1.35,0,2.66.74,3.32,2.02.46.88.54,1.89.24,2.84-.3.95-.96,1.72-1.84,2.18-1.83.94-4.08.22-5.02-1.61-.94-1.83-.22-4.08,1.6-5.02Z"/><path d="M170.26,163.57c.36.7,1.23.98,1.93.62.7-.36.98-1.23.62-1.93,0,0,0,0,0,0-.36-.7-1.23-.98-1.93-.62,0,0,0,0,0,0-.7.36-.98,1.23-.62,1.93Z"/><path d="M487.94,127.98l-9.59-1.36c-.86-.13-1.38.14-1.67.39-.28.24-.62.7-.62,1.49-.45,14.63-4.37,23.83-13.17,29.31v-1.32c5.4-1.55,8.77-17.44,8.77-21.57,0-.93-.13-1.85-.39-2.73-.13-.45-.6-.71-1.06-.58-.45.13-.71.61-.58,1.06.21.72.32,1.48.32,2.25,0,2.28-.94,7.38-2.52,11.96-1.45,4.2-3.09,6.97-4.55,7.78v-9.03c0-.47-.38-.85-.85-.85s-.85.38-.85.85v9.02c-2.58-1.4-5.33-8.71-6.58-15.56-.08-.46-.53-.76-.99-.68-.46.08-.77.53-.68.99.12.67,2.93,15.61,8.26,17.09v2.3c-2.72,1.45-5.85,2.6-9.44,3.48v-4.37c1.68-.36,3.32-1.75,4.77-4.11.25-.4.12-.92-.28-1.17-.4-.25-.92-.12-1.17.28-1.07,1.74-2.22,2.84-3.33,3.23v-10.02c0-.47-.38-.85-.85-.85s-.85.38-.85.85v10.02c-1.39-.49-2.85-2.12-4.13-4.66-1.35-2.69-2.29-6.09-2.29-8.28,0-3.59,2.58-6.61,6.12-7.18.46-.07.78-.51.71-.97s-.51-.78-.97-.71c-4.38.7-7.56,4.42-7.56,8.86,0,4.66,3.45,13.71,8.12,14.72v4.76c-1.22.26-2.5.5-3.82.71-1.45.32-1.61,1.19-1.6,1.62.05.5.27.98.59,1.31l7.35,8.3c.48.54,1.17.83,1.87.83.18,0,.37-.02.55-.06,2.02-.46,3.97-1,5.8-1.61.39-.13.61-.56.47-.95-.13-.39-.55-.6-.95-.47-1.78.59-3.69,1.12-5.66,1.57-.36.08-.73-.04-.98-.31l-7.37-8.33c-.09-.09-.15-.21-.18-.3.06-.04.18-.1.37-.14,1.22-.19,2.4-.41,3.54-.65v.99c0,.47.38.85.85.85s.85-.38.85-.85v-1.37c3.55-.84,6.69-1.93,9.44-3.29v4.66c0,.47.38.85.85.85s.85-.38.85-.85v-5.56c9.84-5.63,14.18-15.35,14.67-31.11,0-.18.04-.32.09-.37.06-.05.21-.09.48-.04l9.67,1.37c.23.01.41.21.4.44,0,0-.03.17-.03.17-1.91,20.86-8.18,32.63-20.98,39.38-.37.19-.51.65-.31,1.01.19.37.65.51,1.01.31,13.3-7.01,19.82-19.14,21.76-40.47.02-.11.04-.22.04-.33.05-1.06-.77-1.96-1.76-2Z"/><path d="M453.4,133.12c.08.03.17.04.25.04.36,0,.7-.23.81-.6,1.04-3.33,4.08-5.57,7.56-5.57h0c1.79,0,3.48.58,4.89,1.69.37.29.9.23,1.19-.14.29-.37.23-.9-.14-1.19-1.71-1.34-3.76-2.06-5.94-2.06h0c-4.24,0-7.93,2.72-9.19,6.76-.14.45.11.93.56,1.07Z"/><path id="_パス_9799" class="cls-3" d="M506.27,173.17l-6.31-12.04c-.57-1.07-.08-1.8,1.06-1.97,30.76-5.36,38-21.23,40.62-31.5.23-.87-.3-1.77-1.17-1.99-.14-.04-.28-.05-.43-.05-13.58.17-31.76.47-43.51.63-.78.08-1.48-.49-1.56-1.27,0-.09,0-.19,0-.28v-11.95c-.1-.76.43-1.45,1.19-1.56.12-.02.24-.02.37,0l61.25-.08c.75-.07,1.41.48,1.48,1.23,0,0,0,0,0,0,.01.11,0,.22,0,.32-1.07,31.2-16.62,54.45-50.93,61.41-.81.26-1.69-.13-2.05-.9"/><path d="M496.33,127.02c-1.05,0-2-.84-2.11-1.96-.01-.14-.01-.29,0-.44v-11.88c-.15-1.07.67-2.14,1.84-2.3.17-.02.34-.02.51,0l46.58-.06h0c.41,0,.75.33.75.75s-.33.75-.75.75l-46.63.06h0s-.07,0-.1,0c-.05,0-.11,0-.16,0-.35.05-.59.37-.55.71v12.05c0,.12,0,.16,0,.21.04.37.36.64.74.6,2.44-.04,5.07-.07,7.87-.11h.01c.41,0,.74.33.75.74,0,.41-.33.75-.74.76-2.8.04-5.44.08-7.81.11-.07,0-.14.01-.2.01Z"/><path id="_パス_9836" class="cls-1" d="M563.64,113.2c-1.14,2.74-3.26,4.96-5.95,6.22-1.69.78-3.18,1.94-4.34,3.39-.32.4-.9.47-1.3.15-.06-.05-.11-.1-.15-.15-1.16-1.45-2.65-2.62-4.34-3.39-5.96-2.8-8.51-9.9-5.71-15.86,2.8-5.96,9.9-8.51,15.86-5.71,3.75,1.76,6.31,5.35,6.77,9.46"/><path id="_パス_9838" class="cls-8" d="M552.07,103.24c2.9-.29,5.49,1.82,5.78,4.72.29,2.9-1.82,5.49-4.72,5.78s-5.49-1.82-5.78-4.72h0c-.29-2.91,1.83-5.49,4.73-5.78"/><path d="M509.51,126.82h.01l6.12-.09c8.32-.13,17.04-.26,24.41-.35.12-.01.16,0,.23.03.47.12.76.61.63,1.08-1.76,6.92-5.65,16.94-19.01,24.13-.37.2-.5.65-.3,1.02.13.25.39.39.66.39.12,0,.24-.03.35-.09,10.42-5.61,16.88-13.81,19.75-25.08.33-1.27-.44-2.58-1.71-2.91-.2-.05-.41-.07-.62-.08-7.37.09-16.1.23-24.42.35l-6.11.09c-.42,0-.75.35-.74.76,0,.41.34.74.75.74Z"/><path d="M542.99,155.14c-8.39,9.09-20.11,15.22-34.9,18.23-.45.15-.94-.07-1.15-.54l-6.31-12.04c-.13-.25-.18-.47-.13-.58.05-.1.25-.23.66-.29,5.55-.97,10.62-2.33,15.09-4.06.39-.15.58-.58.43-.97-.15-.39-.58-.58-.97-.43-4.37,1.69-9.35,3.03-14.79,3.97-.84.12-1.47.51-1.76,1.1-.2.4-.34,1.06.14,1.96l6.29,12c.41.9,1.3,1.44,2.2,1.44.23,0,.45-.03.67-.11,15.03-3.05,27.01-9.33,35.62-18.66.28-.3.26-.78-.04-1.06-.3-.28-.78-.26-1.06.04Z"/><path d="M564.01,103.25c-1.44-3.06-3.99-5.38-7.17-6.53-3.18-1.15-6.62-.98-9.69.46-3.96,1.86-6.71,5.72-7.2,10.06-.05.41.25.78.66.83.42.05.78-.25.83-.66.43-3.83,2.86-7.23,6.35-8.87,2.7-1.27,5.73-1.41,8.54-.4,2.81,1.01,5.05,3.05,6.32,5.75,1.27,2.7,1.41,5.73.4,8.54s-3.05,5.05-5.75,6.32c-1.79.82-3.39,2.07-4.65,3.64-.08.06-.19.05-.25-.03-1.23-1.54-2.82-2.78-4.61-3.6-2.52-1.19-4.5-3.26-5.57-5.83-.16-.38-.6-.56-.98-.4-.38.16-.56.6-.4.98,1.21,2.92,3.46,5.27,6.32,6.62,1.58.73,2.99,1.83,4.06,3.18.33.42.82.64,1.32.64.36,0,.73-.12,1.04-.36.1-.08.19-.17.27-.27,1.08-1.35,2.48-2.45,4.06-3.17-1.27,10.9-4.51,20.41-9.65,28.26-.23.35-.13.81.22,1.04.13.08.27.12.41.12.24,0,.48-.12.63-.34,5.45-8.31,8.83-18.41,10.03-30.01,2.26-1.49,3.98-3.65,4.92-6.25,1.15-3.18.98-6.62-.46-9.69Z"/><path d="M552.14,103.98c2.05-.2,3.97.99,4.69,2.91.14.39.58.59.96.44.39-.15.58-.58.44-.97-.96-2.56-3.52-4.15-6.25-3.88-3.3.33-5.72,3.29-5.4,6.52,0,.03,0,.07,0,.1.17,1.59.94,3.03,2.18,4.04,1.09.89,2.42,1.36,3.8,1.36.2,0,.41-.01.61-.03,1.99-.2,3.75-1.38,4.71-3.14.2-.36.06-.82-.3-1.02-.36-.2-.82-.06-1.02.3-.72,1.33-2.04,2.21-3.54,2.36-1.2.12-2.38-.23-3.32-1-.94-.77-1.52-1.85-1.64-3.05,0,0,0-.02,0-.02-.24-2.47,1.58-4.68,4.05-4.93Z"/><path id="_パス_9871" class="cls-15" d="M510.36,111.77c0,2.83-2.3,5.13-5.13,5.13s-5.13-2.3-5.13-5.13,2.3-5.13,5.13-5.13,5.13,2.3,5.13,5.13h0"/><path d="M505.24,117.64c-3.24,0-5.88-2.64-5.88-5.88s2.64-5.88,5.88-5.88,5.88,2.64,5.88,5.88-2.64,5.88-5.88,5.88ZM505.24,107.38c-2.41,0-4.38,1.96-4.38,4.38s1.96,4.38,4.38,4.38,4.38-1.96,4.38-4.38-1.96-4.38-4.38-4.38Z"/><path id="_パス_9873" class="cls-15" d="M528.07,111.77c0,2.83-2.3,5.13-5.13,5.13s-5.13-2.3-5.13-5.13,2.3-5.13,5.13-5.13h0c2.83,0,5.12,2.3,5.12,5.13"/><path d="M522.94,117.64c-3.24,0-5.88-2.64-5.88-5.88s2.64-5.88,5.88-5.88,5.88,2.64,5.88,5.88-2.64,5.88-5.88,5.88ZM522.94,107.38c-2.41,0-4.38,1.96-4.38,4.38s1.96,4.38,4.38,4.38,4.38-1.96,4.38-4.38-1.96-4.38-4.38-4.38Z"/><path class="cls-16" d="M522.23,102.71s0,0,0,0l-.36-3.17c-.03-.27-.28-.47-.55-.44-.27.03-.47.28-.44.55l.31,2.65-10.33.93-.88-2.1c-.11-.25-.4-.38-.65-.27-.25.11-.38.4-.27.65l.92,2.2-5.15,7.76c-.1.15-.11.35-.02.51.09.16.26.26.44.26h8.66c.08,0,.15-.02.22-.06.02-.01.04-.03.06-.04.03-.02.07-.04.1-.07l7.12-8.16,1.06,7.9c.03.25.25.43.49.43.02,0,.04,0,.07,0,.27-.04.47-.29.43-.56l-1.2-8.98ZM506.17,111.26l4.27-6.43,2.7,6.43h-6.97ZM514.04,110.83l-2.78-6.62,9.28-.84-6.5,7.45Z"/><path id="_パス_9880" class="cls-9" d="M512.76,111c.6.29,1.86.49,1.5,1.45-.17.39-.62.58-1.01.41,0,0,0,0,0,0-.09-.04-.17-.09-.24-.16l-.83-.83c-.2-.22-.19-.56.02-.76.15-.14.36-.18.56-.11"/><path id="_パス_9879" class="cls-5" d="M517.38,91.18c0,1.37-1.11,2.47-2.47,2.47-1.37,0-2.47-1.11-2.47-2.47,0-1.37,1.11-2.47,2.47-2.47h0c1.37,0,2.47,1.11,2.47,2.47"/><path id="_パス_9881" class="cls-11" d="M514.22,105.84c.04-.09,0-.19-.08-.24-.01,0-.03-.01-.04-.01-1.8-.46-3.43-1.4-4.71-2.74-.71-.66-1.19-1.54-1.36-2.49-.13-.69.18-1.38.78-1.74.63-.18,1.31-.07,1.86.3,2.19.98,4.13,2.45,5.65,4.31.49.55.75,1.26.74,2-.11.55-.34,1.06-.69,1.5-.55.81-1.1,1.63-1.64,2.44l-1.37,2.04c-.06.11-.15.21-.27.27-.25.06-.5-.08-.56-.33v-.02c-.04-.25-.01-.5.08-.74.44-1.55.99-3.08,1.63-4.57"/><path id="_パス_9883" d="M513.04,92.94c-1.11-.92-1.27-2.56-.35-3.67.63-.77,1.65-1.11,2.62-.88,1.19.25,2.08,1.25,2.18,2.47-.78-.04-1.61-.22-2.39-.26,0,.37-.09.74-.24,1.07-.06-.2-.28-.32-.48-.25-.19.06-.31.26-.26.45.01.04.03.08.05.11.13.18.38.22.56.09,0,0,0,0,0,0h.02c-.34.59-1.01.94-1.7.87"/><ellipse class="cls-5" cx="522.12" cy="99.34" rx=".6" ry=".5"/><path id="_パス_9882" class="cls-9" d="M521.69,98.71l-6.19-4.74c-.27-.23-.57-.41-.9-.53-.11-.03-.23-.05-.34-.04-.56-.05-1.11.14-1.52.53-1.36,1.03-2.59,2.2-3.69,3.5-.68.64-1.06,1.53-1.05,2.46.2.83.78,1.52,1.56,1.87.41.25.88.38,1.36.35.88-.1,1.45-.95,1.89-1.71.71-1.2,1.41-2.41,1.99-3.67l5.06,2.38c.46.23.93.42,1.42.57.28.08.64.09.78-.16.15-.29-.13-.6-.39-.8"/><path id="_パス_9877" d="M506.14,111.76c0,.5-.4.9-.9.9-.5,0-.9-.4-.9-.9s.4-.9.9-.9h0c.5,0,.9.4.9.9"/><path id="_パス_9878" d="M523.84,111.76c0,.5-.4.9-.9.9-.5,0-.9-.4-.9-.9s.4-.9.9-.9h0c.5,0,.9.4.9.9"/></g></svg>