<?xml version="1.0" encoding="UTF-8"?><svg xmlns="http://www.w3.org/2000/svg" viewBox="0 0 23.64 26.14"><defs><style>.cls-1{fill:#fff;}.cls-2{fill:#8FC31F;}</style></defs><path class="cls-2" d="M22.12,16.1c-1.06,2.55-3.04,4.62-5.54,5.8-1.58.72-2.96,1.81-4.04,3.16-.3.38-.84.44-1.21.15-.05-.04-.1-.09-.15-.15-1.08-1.35-2.47-2.44-4.05-3.16C1.58,19.28-.79,12.67,1.82,7.13,4.43,1.58,11.04-.8,16.59,1.81c3.49,1.64,5.87,4.98,6.3,8.81"/><path d="M11.79,26.14c-.48,0-.95-.21-1.27-.62-1-1.25-2.3-2.27-3.77-2.94-2.68-1.26-4.78-3.46-5.92-6.19-.16-.38.02-.82.4-.98.38-.16.82.02.98.4.99,2.39,2.83,4.31,5.17,5.41,1.67.77,3.16,1.93,4.31,3.37.04.05.12.06.16.02,1.17-1.46,2.67-2.63,4.34-3.4,5.16-2.43,7.38-8.61,4.95-13.77-1.18-2.5-3.26-4.39-5.86-5.33-2.6-.94-5.41-.8-7.91.38C4.14,4.01,1.89,7.16,1.5,10.7c-.05.41-.42.71-.83.66-.41-.05-.71-.42-.66-.83C.46,6.48,3.04,2.88,6.73,1.13,9.6-.21,12.81-.37,15.79.7c2.98,1.07,5.36,3.24,6.71,6.1,1.35,2.86,1.5,6.08.43,9.06-1.07,2.98-3.24,5.36-6.1,6.71-1.47.67-2.77,1.69-3.78,2.95-.08.1-.17.19-.28.27-.29.23-.64.34-.99.34Z"/><path class="cls-1" d="M11.37,7.18c2.5-.25,4.72,1.57,4.97,4.07.25,2.5-1.57,4.72-4.07,4.97-2.5.25-4.72-1.57-4.97-4.07,0,0,0,0,0,0-.25-2.5,1.57-4.72,4.07-4.97"/><path d="M11.82,17c-.07,0-.14,0-.21,0-1.41-.05-2.72-.65-3.68-1.69-.96-1.04-1.46-2.39-1.41-3.8.05-1.41.65-2.72,1.69-3.68.84-.78,1.93-1.27,3.07-1.38,2.39-.24,4.66,1.18,5.49,3.44.14.39-.06.82-.45.96-.39.14-.82-.06-.96-.45-.6-1.62-2.22-2.64-3.94-2.47-.82.08-1.6.43-2.2.99-.74.69-1.17,1.62-1.21,2.64-.04,1.01.32,1.98,1.01,2.72.69.74,1.62,1.17,2.64,1.21,1.02.04,1.98-.32,2.72-1.01.3-.28.78-.26,1.06.04.28.3.26.78-.04,1.06-.99.91-2.25,1.41-3.59,1.41Z"/></svg>