<?xml version="1.0" encoding="UTF-8"?><svg xmlns="http://www.w3.org/2000/svg" viewBox="0 0 281.8 71.72"><defs><style>.cls-1{fill:none;}.cls-2{fill:#231815;}.cls-3{fill:#fff;}.cls-4{fill:#fcf8f0;}</style></defs><g><path class="cls-3" d="M250.9,60.9h-96.97c-3.94,0-7.54,2.23-9.29,5.76l-1.27,2.57c-.7,1.41-2.42,1.99-3.83,1.29-.53-.26-.97-.69-1.25-1.22l-1.56-2.93c-1.8-3.38-5.32-5.48-9.15-5.48H30.9C14.33,60.9.9,47.47.9,30.9S14.33.9,30.9.9h220c16.57,0,30,13.43,30,30s-13.43,30-30,30"/><path class="cls-4" d="M31,53.41c-12.7,0-23-10.3-23-23S18.3,7.41,31,7.41h220c12.7,0,23,10.3,23,23s-10.3,23-23,23H31Z"/><path class="cls-2" d="M116.36,61.8H30.9C13.86,61.8,0,47.94,0,30.9S13.86,0,30.9,0h6.91c.5,0,.9.4.9.9s-.4.9-.9.9h-6.91C14.85,1.8,1.8,14.85,1.8,30.9s13.05,29.1,29.1,29.1h85.46c.5,0,.9.4.9.9s-.4.9-.9.9Z"/><path class="cls-2" d="M140.8,71.72c-.57,0-1.14-.13-1.67-.39-.71-.35-1.28-.9-1.65-1.6l-1.56-2.93c-1.65-3.09-4.85-5.01-8.35-5.01h-5.43c-.5,0-.9-.4-.9-.9s.4-.9.9-.9h5.43c4.17,0,7.98,2.28,9.94,5.96l1.56,2.93c.19.36.49.65.86.83.47.23,1,.27,1.5.1.5-.17.9-.52,1.13-.99l1.27-2.57c1.92-3.86,5.79-6.27,10.1-6.27h81.05c.5,0,.9.4.9.9s-.4.9-.9.9h-81.05c-3.62,0-6.88,2.02-8.49,5.26l-1.27,2.57c-.45.9-1.21,1.57-2.17,1.89-.39.13-.8.2-1.21.2Z"/><path class="cls-2" d="M250.9,61.8c-.5,0-.9-.4-.9-.9s.4-.9.9-.9c16.05,0,29.1-13.05,29.1-29.1s-13.05-29.1-29.1-29.1H53.33c-.5,0-.9-.4-.9-.9s.4-.9.9-.9h197.57c17.04,0,30.9,13.86,30.9,30.9s-13.86,30.9-30.9,30.9Z"/><path class="cls-2" d="M250.9,54.55h-55.55c-.36,0-.65-.29-.65-.65s.29-.65.65-.65h55.55c12.32,0,22.35-10.03,22.35-22.35s-10.03-22.35-22.35-22.35H69.18c-.36,0-.65-.29-.65-.65s.29-.65.65-.65h181.72c13.04,0,23.65,10.61,23.65,23.65s-10.61,23.65-23.65,23.65Z"/><path class="cls-2" d="M185.22,54.55H30.9c-13.04,0-23.65-10.61-23.65-23.65S17.86,7.25,30.9,7.25h32.56c.36,0,.65.29.65.65s-.29.65-.65.65H30.9c-12.32,0-22.35,10.03-22.35,22.35s10.03,22.35,22.35,22.35h154.32c.36,0,.65.29.65.65s-.29.65-.65.65Z"/><rect class="cls-1" y="0" width="281.8" height="71.72"/></g></svg>