<?xml version="1.0" encoding="UTF-8"?><svg id="_レイヤー_2" xmlns="http://www.w3.org/2000/svg" xmlns:xlink="http://www.w3.org/1999/xlink" viewBox="0 0 138.83 153.85"><defs><style>.cls-1{fill:none;}.cls-2{fill:#f6eeda;}.cls-3,.cls-4{font-family:Como-ExtraBold, Como;font-size:5.03px;font-weight:700;isolation:isolate;}.cls-5{fill:#00bad0;}.cls-6{fill:#9fa0a0;}.cls-7{fill:#fdc5f5;}.cls-8{fill:#c6e7f5;}.cls-4{letter-spacing:.1em;}.cls-9{clip-path:url(#clippath-1);}.cls-10{clip-path:url(#clippath-2);}.cls-11{fill:#231815;}.cls-12{fill:#7fbff5;}.cls-13{fill:#fff;}.cls-14{fill:#ffd500;}.cls-15{fill:#2196f3;}.cls-16{fill:#bfdbf7;}.cls-17{clip-path:url(#clippath);}</style><clipPath id="clippath"><rect class="cls-1" x="38.87" y="62.94" width="62.41" height="47.96"/></clipPath><clipPath id="clippath-1"><rect class="cls-1" x="58.46" y="90.69" width="23.24" height="5.31"/></clipPath><clipPath id="clippath-2"><rect class="cls-1" x="63.1" y="74.01" width="13.97" height="13.96"/></clipPath></defs><g id="_レイヤー_1-2"><path id="_パス_10065" class="cls-13" d="M6.04,43.4c-13.83,33.78,1.23,72.48,34.27,88.01,9.72,4.47,18.25,11.14,24.93,19.49h0c1.82,2.31,5.17,2.71,7.48.89.33-.26.63-.56.89-.89,6.69-8.36,15.24-15.04,24.97-19.51,34.23-16.11,48.91-56.92,32.8-91.15C115.26,6.02,74.45-8.66,40.22,7.45,24.73,14.74,12.54,27.57,6.04,43.4"/><path class="cls-11" d="M6.04,44.31c-.11,0-.23-.02-.34-.07-.46-.19-.68-.72-.49-1.17,5.25-12.75,14.08-23.56,25.52-31.26.41-.28.97-.17,1.25.24.28.41.17.97-.24,1.25-11.15,7.5-19.74,18.03-24.86,30.45-.14.35-.48.56-.83.56Z"/><path class="cls-11" d="M102.73,130.17c-.32,0-.62-.17-.79-.46-.24-.43-.09-.98.35-1.22,15.78-8.79,27.19-23.19,32.13-40.56,4.94-17.37,2.83-35.62-5.96-51.4C110.96,5.11,71.96-7.11,39.66,8.7c-.45.22-.99.03-1.2-.41-.22-.45-.03-.99.41-1.2,33.15-16.24,73.2-3.69,91.16,28.56,9.02,16.2,11.2,34.94,6.12,52.77-5.07,17.83-16.79,32.62-32.98,41.64-.14.08-.29.11-.44.11Z"/><path class="cls-11" d="M69.43,153.85c-1.85,0-3.68-.82-4.9-2.38-6.55-8.19-15.06-14.85-24.6-19.23C6.43,116.48-8.82,77.31,5.2,43.06c.19-.46.72-.68,1.17-.49.46.19.68.71.49,1.17-13.66,33.36,1.19,71.51,33.81,86.86,9.79,4.5,18.52,11.33,25.25,19.75,1.51,1.93,4.31,2.26,6.23.75.28-.22.53-.47.74-.74,5.07-6.38,11.18-11.75,18.16-15.94.43-.26.98-.12,1.24.31.26.43.12.98-.31,1.24-6.79,4.08-12.74,9.3-17.67,15.51-.3.38-.65.73-1.04,1.04-1.14.9-2.5,1.33-3.85,1.33Z"/><path id="_パス_10069" class="cls-8" d="M23.14,109.57c-14.02-16.13-18.61-38.4-12.12-58.76l.97.07c1.74,11.15,2.74,21.41,2.75,28.12,0,.93-.04,1.87-.07,2.81-.14,3.38-.27,6.86,1.44,9.75.84,1.43,2.12,2.55,3.65,3.2l.21.1,4.02,14.25-.86.46Z"/><path id="_パス_10070" class="cls-2" d="M115.37,52.61c-4.19-.1-8.36-.59-12.46-1.47-4.33-.88-8.6-1.96-12.74-3-5.45-1.38-11.07-2.8-16.73-3.74-3.87-.66-7.8-1-11.72-1-3.01,0-6.02.2-9.01.59-3.76.45-7.55,1.16-11.21,1.85l-.29.06c-6.03,1.13-12.27,2.3-18.46,2.3h-.48c-3.14.06-6.26-.58-9.13-1.85l-.42-.21.18-.43C25.98,14.49,61.9-.21,93.12,12.88c16.06,6.73,28.49,19.97,34.2,36.42l.13.37-.42.28c-.18.13-.38.24-.57.35-3.46,1.63-7.26,2.43-11.09,2.31"/><path id="_パス_10071" class="cls-2" d="M69.42,130.72c-10.5,0-20.82-2.7-29.97-7.84l-.18-.1-.06-.21c-.5-1.88-.96-3.54-1.4-5.08l-.38-1.35,1.15.8c5.09,3.53,11.78,3.92,18.76,4.04,2.74.04,5.68.07,8.98.07,4.12,0,8.24-.03,12.28-.07,0,0,1.87-.01,2.29-.01,2.21,0,4.44.04,6.61.08s4.32.08,6.46.09h2.4c1.71,0,3.08-.03,4.32-.1l.29.93c-9.53,5.73-20.43,8.75-31.54,8.74"/><path id="_パス_10072" class="cls-16" d="M28.06,96.54c-.71-.12-1.41-.23-2.11-.33-3.99-.58-7.75-1.12-9.85-4.65-1.72-2.88-1.58-6.37-1.44-9.74.04-.95.08-1.89.07-2.82-.01-7.07-1.15-18.29-3.05-30.02l-.02-.13.04-.12c.25-.69.52-1.39.8-2.1l.2-.5.48.23c1.61.76,3.33,1.26,5.09,1.5l.34.05,10.16,48.73-.72-.12Z"/><path id="_パス_10073" class="cls-2" d="M38.21,122.16c-5.01-2.96-9.57-6.63-13.55-10.87l-.08-.09-4.6-16.29.89.29c1.66.48,3.36.82,5.08,1.02.83.12,1.67.25,2.5.39l.33.06.18.86c1.51,7.25,3.28,14.11,8.31,18.42l.11.1.04.14c.48,1.65.97,3.41,1.51,5.42l.32,1.19-1.06-.63Z"/><path id="_パス_10074" class="cls-16" d="M93.96,121.14c-2.14,0-4.29-.04-6.43-.08-2.07-.04-4.48-.08-6.87-.08h-1.82c-4.1.04-8.28.08-12.47.08-3.32,0-6.27-.02-9.02-.07-7.51-.12-14.68-.58-19.85-4.86s-6.99-11.24-8.52-18.61l-10.33-49.58.68.08c.92.1,1.91.17,2.95.19h.26c6.41,0,12.79-1.2,18.97-2.35,3.66-.69,7.44-1.4,11.22-1.85,2.98-.39,5.99-.59,9-.59,3.93,0,7.85.34,11.73,1,5.66.94,11.29,2.36,16.73,3.73,4.16,1.05,8.44,2.13,12.74,3,4.1.88,8.27,1.37,12.46,1.47,3.83.11,7.62-.68,11.08-2.31.13-.07.26-.15.39-.22l.9-.55-.14,1.04c-1.39,9.91-3.71,19.67-6.93,29.15l-1,2.96c-1.68,4.99-3.42,10.14-4.83,15.32-.76,2.72-1.38,5.49-1.84,8.27-.21,1.3-.34,2.63-.47,3.91-.1,1-.21,1.99-.34,2.97l-.02.17-.12.12c-2.83,2.74-5.91,5.2-9.21,7.35l-.1.07h-.12c-2.1.22-4.2.31-6.31.28h-2.34Z"/><path id="_パス_10075" class="cls-8" d="M112.35,111.88c.06-.54.12-1.09.17-1.63.14-1.33.27-2.66.48-3.96.47-2.79,1.08-5.55,1.84-8.27,1.4-5.14,3.13-10.28,4.81-15.25l1.02-3.03c3.01-8.89,5.23-18.02,6.65-27.29l.98-.06c6.16,21.23.39,44.14-15.1,59.91l-1.02,1.04.16-1.44Z"/><path id="_パス_10076" class="cls-13" d="M70.09,66.81c-4.81,0-9.61-.59-14.28-1.75l-.38-.11v-2.64c0-1.95,1.58-3.52,3.53-3.53h22.26c1.95,0,3.52,1.58,3.53,3.53v2.64s-.32.1-.39.11c-4.66,1.16-9.45,1.74-14.25,1.75,0,0,0,0,0,0Z"/><path class="cls-6" d="M82.81,61.53c-.1,0-.19-.05-.25-.13-.3-.45-.81-.72-1.36-.72h-18.77c-.17,0-.3-.13-.3-.3s.13-.3.3-.3h18.77c.75,0,1.44.37,1.85.99.09.14.06.32-.08.42-.05.03-.11.05-.17.05Z"/><path class="cls-6" d="M57.01,64.03c-.17,0-.3-.13-.3-.3v-1.42c0-1.23,1-2.23,2.23-2.24h1.13c.17,0,.3.13.3.3s-.13.3-.3.3h-1.13c-.9,0-1.63.74-1.64,1.64v1.42c0,.17-.13.3-.3.3Z"/><g class="cls-17"><path id="_パス_10080" class="cls-12" d="M70.08,110.91c-9.34.03-18.18-4.22-23.99-11.54-7.01-8.71-9.28-22.97-5.18-32.46,1.4-2.71,3.31-3.96,6.01-3.96,2.16.14,4.28.6,6.31,1.35.86.27,1.73.54,2.58.76,4.67,1.16,9.47,1.75,14.28,1.75,4.81,0,9.59-.59,14.26-1.75.87-.23,1.74-.5,2.58-.76,2.03-.75,4.16-1.21,6.32-1.35,2.7,0,4.6,1.25,5.99,3.92,4.12,9.53,1.85,23.79-5.16,32.5-5.81,7.32-14.64,11.57-23.98,11.53h0Z"/></g><g class="cls-9"><text class="cls-4" transform="translate(58.46 94.89)"><tspan x="0" y="0">POCKE</tspan></text><text class="cls-3" transform="translate(78.36 94.89)"><tspan x="0" y="0">T</tspan></text></g><path d="M99.23,65.86c-3.09-4.96-7.85-3.48-12.45-2.04-.52.16-1.04.32-1.55.47v-1.98c0-2.22-1.81-4.03-4.03-4.03h-22.26c-2.22,0-4.03,1.81-4.03,4.03v.49c0,.28.22.5.5.5s.5-.22.5-.5v-.49c0-1.67,1.36-3.03,3.03-3.03h22.26c1.67,0,3.03,1.36,3.03,3.03v2.26s0,0,0,0c-9.26,2.3-19.04,2.3-28.29,0-.24-.06-.49-.13-.73-.2-.27-.08-.54.08-.62.34-.08.26.07.54.34.62.25.07.51.14.77.21,4.71,1.17,9.55,1.76,14.39,1.76,4.84,0,9.69-.59,14.4-1.76.86-.23,1.73-.5,2.6-.77,4.43-1.38,8.62-2.68,11.3,1.62.15.24.46.31.69.16.23-.15.31-.45.16-.69Z"/><path d="M89.92,104.18c-.14,0-.28-.06-.38-.18-.18-.21-.15-.53.06-.7,1.49-1.27,2.87-2.7,4.08-4.24,6.5-8.07,8.94-21.18,5.68-30.49-.09-.26.05-.55.31-.64s.55.05.64.31c3.36,9.61.85,23.13-5.84,31.45-1.25,1.59-2.67,3.06-4.22,4.37-.09.08-.21.12-.32.12Z"/><path d="M85.66,107.21c-.18,0-.35-.1-.44-.27-.13-.24-.04-.55.21-.68.49-.26.98-.54,1.45-.83.24-.15.54-.07.69.16.15.23.07.54-.16.69-.49.31-1,.6-1.51.87-.08.04-.16.06-.24.06Z"/><path d="M69.99,111.41c-9.52,0-18.37-4.27-24.29-11.73-.12-.15-.24-.3-.35-.45-.17-.22-.13-.53.09-.7s.53-.13.7.09c.11.15.22.29.34.43,5.73,7.22,14.29,11.35,23.5,11.35h.1c4.06-.03,8.03-.84,11.79-2.38.26-.1.55.02.65.27.1.26-.02.55-.27.65-3.88,1.59-7.97,2.42-12.17,2.46h-.1Z"/><path d="M44.14,97.11c-.17,0-.33-.08-.42-.24-5.66-9.11-7-21.52-3.25-30.19,2.75-5.31,7.12-4.56,11.01-3.45.27.08.42.35.34.62-.08.26-.35.42-.62.34-4.47-1.28-7.68-1.24-9.83,2.91-3.61,8.35-2.3,20.38,3.2,29.23.15.23.07.54-.16.69-.08.05-.17.08-.26.08Z"/><path d="M70.11,68.7c-.7,0-1.36-.01-2.01-.03-.17,0-.3-.14-.29-.31,0-.17.15-.29.31-.29.65.02,1.3.03,1.94.03.17,0,.32.13.32.3s-.11.3-.28.3ZM72.11,68.66c-.16,0-.29-.13-.3-.29,0-.17.12-.3.29-.31.66-.02,1.33-.06,1.99-.1.15-.01.31.11.32.28.01.17-.11.31-.28.32-.67.04-1.34.08-2.01.1h0ZM66.11,68.56s-.01,0-.02,0c-.67-.04-1.34-.1-2-.17-.17-.02-.29-.16-.27-.33.02-.16.17-.28.33-.27.66.06,1.32.12,1.98.16.17.01.29.15.28.32-.01.16-.14.28-.3.28ZM76.1,68.39c-.15,0-.28-.12-.3-.27-.02-.16.1-.31.27-.33.66-.07,1.32-.14,1.98-.23.16-.02.31.09.34.26.02.16-.09.31-.26.34-.66.09-1.33.17-2,.23-.01,0-.02,0-.03,0ZM62.13,68.17s-.03,0-.04,0c-.67-.09-1.33-.19-1.99-.3-.16-.03-.27-.18-.25-.34.03-.16.17-.28.34-.25.66.11,1.31.21,1.97.29.16.02.28.17.26.34-.02.15-.15.26-.3.26ZM80.06,67.87c-.14,0-.27-.1-.3-.25-.03-.16.08-.32.25-.35.65-.11,1.31-.23,1.96-.36.16-.04.32.07.35.24.03.16-.07.32-.24.35-.66.13-1.32.25-1.98.36-.02,0-.03,0-.05,0ZM58.19,67.52s-.04,0-.06,0c-.66-.13-1.31-.27-1.96-.43-.16-.04-.26-.2-.22-.36.04-.16.19-.26.36-.22.65.15,1.29.29,1.95.42.16.03.27.19.24.35-.03.14-.15.24-.29.24ZM83.98,67.08c-.14,0-.26-.09-.29-.23-.04-.16.06-.32.22-.36.26-.06.53-.13.79-.19.37-.1.75-.21,1.13-.32.17-.05.33.04.37.2.05.16-.04.33-.2.37-.38.11-.77.22-1.15.33-.27.07-.54.13-.8.19-.02,0-.05,0-.07,0ZM54.3,66.58s-.06,0-.09-.01c-.46-.14-.92-.28-1.38-.42l-.54-.19c-.16-.06-.24-.23-.18-.38.06-.16.23-.24.38-.18l.52.18c.45.14.91.28,1.37.42.16.05.25.21.2.37-.04.13-.16.21-.29.21ZM96.86,66.42c-.09,0-.17-.04-.23-.11-.33-.4-.72-.73-1.18-.98-.14-.08-.2-.26-.12-.41.08-.15.26-.2.41-.12.52.29.97.66,1.35,1.12.11.13.09.32-.04.42-.06.05-.12.07-.19.07ZM87.82,65.96c-.12,0-.24-.08-.28-.2-.05-.16.03-.33.18-.38.64-.22,1.29-.42,1.94-.58.16-.04.32.06.36.22.04.16-.06.32-.22.36-.64.16-1.27.35-1.89.56-.03.01-.07.02-.1.02ZM50.48,65.41s-.05,0-.07,0c-.64-.16-1.29-.29-1.93-.39-.16-.02-.28-.18-.25-.34.02-.16.17-.28.34-.25.66.1,1.33.23,1.99.4.16.04.26.2.22.36-.03.14-.16.23-.29.23ZM44.61,65.35c-.11,0-.21-.06-.27-.16-.08-.15-.02-.33.13-.4.64-.33,1.32-.51,2.04-.55.17,0,.31.12.31.29s-.12.31-.29.31c-.63.03-1.23.19-1.79.48-.04.02-.09.03-.14.03ZM91.7,65c-.15,0-.27-.11-.3-.26-.02-.16.09-.32.25-.34.52-.08,1.05-.14,1.58-.18.17,0,.31,0,.47,0,.17,0,.29.15.29.31s-.15.28-.31.29c-.13,0-.27,0-.4,0-.5.04-1.02.09-1.53.17-.01,0-.03,0-.04,0Z"/><path d="M70.03,108.02c-.68,0-1.33-.02-1.96-.07-.17-.01-.29-.15-.28-.32.01-.17.16-.3.32-.28.63.04,1.26.07,1.89.07.05,0,.1.01.15.04.04-.02.09-.04.14-.04.65,0,1.32-.03,1.98-.08.16-.01.31.11.32.28s-.11.31-.28.32c-.67.05-1.35.08-2.02.08h0s-.07,0-.11-.02c-.03.01-.06.02-.1.02v-.08s-.02-.02-.03-.03l-.02.11h-.01ZM66.1,107.74s-.03,0-.04,0c-.67-.1-1.34-.22-1.99-.36-.16-.04-.26-.2-.23-.36.04-.16.2-.27.36-.23.64.14,1.29.26,1.95.35.16.02.28.18.25.34-.02.15-.15.26-.3.26ZM74.27,107.71c-.15,0-.27-.11-.3-.25-.02-.16.09-.32.25-.34.65-.1,1.3-.22,1.94-.37.16-.04.32.06.36.23.04.16-.06.32-.23.36-.66.15-1.32.28-1.99.38-.02,0-.03,0-.04,0ZM62.19,106.89s-.06,0-.09-.01c-.64-.19-1.29-.41-1.92-.65-.16-.06-.23-.23-.17-.39s.23-.23.39-.17c.61.23,1.24.44,1.87.63.16.05.25.21.2.37-.04.13-.16.21-.29.21ZM78.17,106.82c-.13,0-.25-.08-.29-.21-.05-.16.04-.33.2-.37.63-.19,1.26-.41,1.87-.65.15-.06.33.02.39.17s-.02.33-.17.39c-.62.24-1.27.46-1.91.66-.03,0-.06.01-.09.01ZM58.45,105.47s-.09,0-.13-.03c-.61-.28-1.21-.59-1.8-.92-.14-.08-.2-.26-.12-.41.08-.15.26-.19.41-.12.57.32,1.17.62,1.76.9.15.07.21.25.15.4-.05.11-.16.17-.27.17ZM81.89,105.38c-.11,0-.22-.06-.27-.17-.07-.15,0-.33.14-.4.6-.28,1.19-.59,1.75-.91.14-.08.33-.03.41.11.08.14.03.33-.11.41-.58.33-1.18.64-1.79.93-.04.02-.09.03-.13.03ZM54.96,103.52c-.06,0-.11-.02-.17-.05-.56-.37-1.11-.76-1.65-1.17-.13-.1-.16-.29-.06-.42.1-.13.29-.16.42-.06.52.4,1.06.79,1.61,1.15.14.09.18.28.09.42-.06.09-.15.13-.25.13ZM85.37,103.41c-.1,0-.19-.05-.25-.13-.09-.14-.06-.32.08-.42.55-.37,1.09-.76,1.6-1.16.13-.1.32-.08.42.05.1.13.08.32-.05.42-.53.41-1.08.81-1.64,1.19-.05.03-.11.05-.17.05ZM51.79,101.09c-.07,0-.14-.02-.2-.08-.5-.45-.99-.92-1.46-1.4-.12-.12-.11-.31,0-.42.12-.12.31-.11.42,0,.46.47.94.93,1.43,1.37.12.11.13.3.02.42-.06.07-.14.1-.22.1ZM88.52,100.95c-.08,0-.16-.03-.22-.1-.11-.12-.1-.31.02-.42.48-.44.96-.9,1.42-1.38.11-.12.3-.12.42,0,.12.11.12.3,0,.42-.47.49-.96.97-1.45,1.41-.06.05-.13.08-.2.08ZM49.02,98.22c-.09,0-.17-.04-.23-.11-.15-.18-.29-.36-.44-.54-.28-.34-.54-.7-.81-1.06-.1-.13-.07-.32.07-.42.13-.1.32-.07.42.07.25.35.52.7.79,1.03.14.18.29.35.43.53.11.13.09.32-.04.42-.06.05-.12.07-.19.07ZM91.28,98.05c-.07,0-.13-.02-.19-.07-.13-.1-.15-.29-.04-.42.1-.13.21-.25.31-.38.31-.39.61-.78.9-1.19.1-.14.28-.17.42-.07.13.1.17.28.07.42-.3.42-.6.82-.92,1.22-.1.13-.21.26-.31.39-.06.07-.15.11-.23.11ZM46.68,94.98c-.1,0-.2-.05-.26-.14-.34-.56-.68-1.15-.99-1.76-.08-.15-.02-.33.13-.4.15-.08.33-.02.4.13.31.59.64,1.17.97,1.72.09.14.04.33-.1.41-.05.03-.1.04-.16.04ZM93.59,94.79c-.05,0-.11-.01-.16-.04-.14-.09-.19-.27-.1-.41.33-.55.66-1.14.96-1.73.08-.15.26-.21.4-.13.15.08.21.26.13.4-.31.61-.64,1.2-.98,1.77-.06.09-.16.15-.26.15ZM44.84,91.44c-.12,0-.23-.07-.27-.18-.27-.61-.52-1.24-.75-1.87-.06-.16.02-.33.18-.39.16-.06.33.02.38.18.23.62.48,1.24.74,1.84.07.15,0,.33-.15.4-.04.02-.08.03-.12.03ZM95.42,91.23s-.08,0-.12-.02c-.15-.07-.22-.24-.16-.39.26-.6.5-1.22.73-1.84.06-.16.23-.24.38-.18.16.06.24.23.18.38-.23.63-.48,1.26-.74,1.88-.05.11-.16.18-.28.18ZM43.46,87.69c-.13,0-.25-.08-.29-.21-.19-.64-.37-1.3-.53-1.95-.04-.16.06-.32.22-.36.16-.04.32.06.36.22.15.64.33,1.28.52,1.91.05.16-.04.33-.2.37-.03,0-.06.01-.09.01ZM96.77,87.47s-.06,0-.08-.01c-.16-.05-.25-.21-.2-.37.18-.62.35-1.27.5-1.92.04-.16.2-.26.36-.22.16.04.26.2.22.36-.15.66-.33,1.32-.51,1.95-.04.13-.16.22-.29.22ZM42.53,83.8c-.14,0-.27-.1-.29-.25-.12-.65-.21-1.32-.29-2-.02-.16.1-.31.26-.33.16-.02.31.1.33.26.08.66.18,1.32.29,1.96.03.16-.08.32-.24.35-.02,0-.04,0-.05,0ZM97.67,83.57s-.03,0-.05,0c-.16-.03-.27-.18-.25-.35.11-.65.2-1.31.28-1.96.02-.16.17-.29.33-.27.17.02.28.17.27.33-.07.67-.17,1.34-.28,2-.03.15-.15.25-.3.25ZM42.07,79.82c-.16,0-.29-.12-.3-.28-.03-.59-.05-1.17-.05-1.75v-.27c0-.16.14-.3.3-.3h0c.17,0,.3.14.3.3v.26c0,.57.02,1.14.05,1.72,0,.17-.12.31-.28.32,0,0-.01,0-.02,0ZM98.1,79.6h-.01c-.17,0-.29-.15-.29-.31.02-.5.04-1,.04-1.5,0-.16,0-.32,0-.48,0-.17.13-.3.29-.31h0c.16,0,.3.13.3.29,0,.16,0,.33,0,.49,0,.51-.01,1.02-.04,1.53,0,.16-.14.29-.3.29ZM42.11,75.82s-.02,0-.02,0c-.17-.01-.29-.16-.28-.32.05-.68.13-1.35.23-2.01.02-.16.17-.28.34-.25.16.02.28.18.25.34-.1.64-.17,1.3-.22,1.96-.01.16-.14.28-.3.28ZM98.04,75.6c-.15,0-.29-.12-.3-.27-.06-.66-.14-1.32-.24-1.96-.03-.16.08-.32.25-.34.17-.02.32.09.34.25.11.66.19,1.33.25,2.01.01.17-.11.31-.27.32,0,0-.02,0-.03,0ZM42.71,71.87s-.05,0-.07,0c-.16-.04-.26-.2-.22-.36.16-.68.35-1.33.56-1.95.05-.16.22-.24.38-.19.16.05.24.22.19.38-.2.6-.39,1.24-.54,1.9-.03.14-.16.23-.29.23ZM97.4,71.66c-.13,0-.26-.09-.29-.23-.16-.65-.35-1.29-.56-1.89-.05-.16.03-.33.18-.38.15-.05.33.03.38.18.22.62.41,1.27.58,1.94.04.16-.06.32-.22.36-.02,0-.05,0-.07,0ZM70.97,70.28c-.16,0-.3-.13-.3-.3,0-.17.13-.3.29-.3.66-.01,1.33-.03,1.99-.06.17,0,.31.12.31.29s-.12.31-.29.31c-.67.03-1.34.05-2.01.06h0ZM68.97,70.28h0c-.67-.01-1.34-.04-2.01-.07-.17,0-.29-.15-.28-.31,0-.17.12-.28.32-.28.66.03,1.33.06,1.99.07.17,0,.3.14.29.31,0,.16-.14.29-.3.29ZM74.97,70.09c-.16,0-.29-.12-.3-.28-.01-.17.11-.31.28-.32.66-.05,1.32-.12,1.98-.19.18-.02.31.1.33.27.02.16-.1.31-.26.33-.67.07-1.33.14-2,.19,0,0-.02,0-.02,0ZM64.98,70.07s-.02,0-.02,0c-.67-.05-1.33-.12-2-.2-.16-.02-.28-.17-.26-.33.02-.16.15-.29.33-.26.66.08,1.32.14,1.98.19.17.01.29.16.27.32-.01.16-.14.28-.3.28ZM78.94,69.65c-.15,0-.28-.11-.3-.26-.02-.16.09-.32.25-.34.66-.09,1.31-.2,1.97-.31.17-.03.32.08.35.24.03.16-.08.32-.24.35-.66.12-1.32.22-1.98.32-.01,0-.03,0-.04,0ZM61,69.62s-.03,0-.04,0c-.66-.1-1.32-.21-1.98-.32-.16-.03-.27-.19-.24-.35s.19-.27.35-.24c.65.12,1.31.22,1.96.32.16.02.28.18.25.34-.02.15-.15.26-.3.26ZM82.88,68.96c-.14,0-.26-.1-.29-.24-.03-.16.07-.32.23-.35.65-.14,1.3-.28,1.94-.44.16-.04.32.06.36.22.04.16-.06.32-.22.36-.65.16-1.3.31-1.96.44-.02,0-.04,0-.06,0ZM57.07,68.91s-.04,0-.06,0c-.66-.14-1.31-.29-1.96-.45-.16-.04-.26-.2-.22-.36.04-.16.2-.26.36-.22.64.16,1.29.31,1.94.45.16.03.27.19.23.36-.03.14-.15.24-.29.24ZM44.04,68.12c-.05,0-.11-.01-.16-.04-.14-.09-.18-.27-.1-.41.45-.73.95-1.22,1.51-1.51.15-.08.33-.02.4.13.08.15.02.33-.13.4-.46.24-.88.66-1.27,1.29-.06.09-.16.14-.25.14ZM86.76,67.98c-.13,0-.25-.08-.29-.21-.05-.16.04-.33.2-.37.38-.11.75-.23,1.12-.35.25-.09.51-.18.78-.27.16-.05.33.03.38.19.05.16-.03.33-.19.38-.26.08-.51.17-.77.27-.39.12-.76.24-1.14.35-.03,0-.06.01-.09.01ZM96,67.93c-.1,0-.19-.05-.25-.13-.41-.61-.84-1-1.33-1.2-.15-.06-.23-.24-.17-.39.06-.15.23-.23.39-.17.6.24,1.13.71,1.61,1.42.09.14.06.32-.08.42-.05.03-.11.05-.17.05ZM53.2,67.92s-.06,0-.09-.01l-.92-.28c-.34-.12-.66-.24-.99-.34-.16-.05-.25-.22-.2-.38.05-.16.22-.25.38-.2.34.11.67.22,1,.34l.9.28c.16.05.25.22.2.37-.04.13-.16.21-.29.21ZM90.59,66.83c-.14,0-.26-.1-.29-.24-.04-.16.07-.32.23-.36.66-.15,1.33-.26,2-.34.18-.02.31.1.33.26.02.16-.1.31-.26.33-.65.08-1.31.19-1.94.33-.02,0-.04,0-.06,0ZM49.36,66.79s-.04,0-.06,0c-.64-.13-1.29-.24-1.95-.31-.17-.02-.28-.17-.27-.33.02-.16.17-.29.33-.27.67.07,1.34.18,2,.32.16.03.27.19.23.35-.03.14-.15.24-.29.24Z"/><g class="cls-10"><path id="_パス_10088" class="cls-5" d="M77.07,81c0,3.86-3.12,6.99-6.98,6.99-3.86,0-6.99-3.12-6.99-6.98,0-3.86,3.12-6.99,6.98-6.99h0c3.86,0,6.98,3.13,6.98,6.98h0"/></g><path d="M70.08,88.28c-1.45,0-2.88-.43-4.12-1.28-.14-.09-.17-.28-.08-.42.09-.14.28-.17.42-.08,1.89,1.3,4.27,1.54,6.38.65,1.65-.69,2.92-1.99,3.59-3.64.67-1.65.66-3.47-.04-5.12-.06-.15,0-.33.16-.39s.33,0,.39.16c.76,1.79.77,3.77.04,5.57s-2.12,3.21-3.92,3.97c-.92.39-1.88.58-2.84.58Z"/><path d="M63.92,84.59c-.11,0-.21-.06-.26-.16-1.91-3.53-.58-7.96,2.95-9.87,2.72-1.47,6.08-1.05,8.36,1.03.12.11.13.3.02.42-.11.12-.3.13-.42.02-2.09-1.91-5.18-2.29-7.67-.94-3.24,1.75-4.46,5.81-2.71,9.05.08.15.02.33-.12.41-.05.02-.09.04-.14.04Z"/><path d="M75.2,84.17s-.1-.01-.15-.04c-.14-.08-.2-.26-.11-.41.47-.83.71-1.77.71-2.73,0-.09,0-.18,0-.28,0-.17.12-.31.28-.32.15-.02.31.12.32.28,0,.11,0,.21,0,.31,0,1.06-.27,2.1-.79,3.02-.06.1-.16.15-.26.15Z"/><path d="M75.75,79.78c-.13,0-.25-.09-.29-.22-.12-.46-.3-.91-.54-1.32-.08-.14-.03-.33.11-.41.14-.08.33-.03.41.11.26.46.46.95.6,1.46.04.16-.05.32-.21.37-.03,0-.05.01-.08.01Z"/><path d="M64.3,80.29s-.03,0-.05,0c-.16-.03-.27-.18-.24-.35.46-2.64,2.56-4.67,5.21-5.04.16-.03.32.09.34.25.02.16-.09.32-.25.34-2.4.34-4.29,2.17-4.71,4.55-.03.15-.15.25-.3.25Z"/><path d="M64.62,83.43c-.12,0-.23-.07-.28-.19-.19-.49-.32-1.01-.38-1.54-.02-.16.1-.31.26-.33.16-.01.31.1.33.26.05.48.17.95.34,1.39.06.15-.02.33-.17.39-.04.01-.07.02-.11.02Z"/><path d="M68.15,80.63c-.78,0-1.42-.64-1.42-1.42s.64-1.42,1.42-1.42,1.42.64,1.42,1.42-.64,1.42-1.42,1.42ZM68.15,78.39c-.45,0-.82.37-.82.82s.37.82.82.82.82-.37.82-.82-.37-.82-.82-.82Z"/><path d="M72.02,80.63c-.78,0-1.42-.64-1.42-1.42s.64-1.42,1.42-1.42,1.42.64,1.42,1.42-.64,1.42-1.42,1.42ZM72.02,78.39c-.45,0-.82.37-.82.82s.37.82.82.82.82-.37.82-.82-.37-.82-.82-.82Z"/><path d="M68.15,84.2c-.78,0-1.42-.64-1.42-1.42s.64-1.42,1.42-1.42,1.42.64,1.42,1.42-.64,1.42-1.42,1.42ZM68.15,81.96c-.45,0-.82.37-.82.82s.37.82.82.82.82-.37.82-.82-.37-.82-.82-.82Z"/><path d="M72.02,84.2c-.78,0-1.42-.64-1.42-1.42s.64-1.42,1.42-1.42,1.42.64,1.42,1.42-.64,1.42-1.42,1.42ZM72.02,81.96c-.45,0-.82.37-.82.82s.37.82.82.82.82-.37.82-.82-.37-.82-.82-.82Z"/><path class="cls-11" d="M93.96,121.79h0c-2.14,0-4.29-.04-6.43-.09-2.59-.05-5.26-.1-7.9-.08h-.9c-7.01.06-14.27.12-21.41,0-.36,0-.64-.3-.64-.66,0-.36.3-.64.65-.64h.01c7.12.12,14.37.06,21.37,0h.9c2.65-.02,5.33.02,7.93.07,2.14.04,4.27.08,6.41.08.36,0,.65.29.65.65,0,.36-.29.65-.65.65Z"/><path class="cls-11" d="M31.79,108.47c-.26,0-.51-.16-.61-.43-1.24-3.37-2.2-6.87-2.85-10.41l-.18-.85c-.07-.35.15-.7.5-.77.35-.07.7.15.77.5l.18.86c.64,3.48,1.58,6.91,2.8,10.21.12.34-.05.71-.38.83-.07.03-.15.04-.23.04Z"/><path class="cls-11" d="M20.59,57.99c-.3,0-.57-.21-.64-.52l-1.04-4.98c-.07-.35.15-.7.5-.77.36-.07.7.15.77.5l1.04,4.98c.07.35-.15.7-.5.77-.04,0-.09.01-.13.01Z"/><path class="cls-11" d="M28.79,97.31c-.3,0-.57-.21-.64-.52l-7.32-35.11c-.07-.35.15-.7.5-.77.36-.07.7.15.77.5l7.32,35.11c.07.35-.15.7-.5.77-.04,0-.09.01-.13.01Z"/><path class="cls-11" d="M28.79,97.31c-.17,0-.34-.07-.46-.19-.12-.12-.19-.29-.19-.46s.07-.34.19-.46c.24-.25.68-.25.92,0,.12.12.19.29.19.46s-.07.34-.19.46c-.12.12-.29.19-.46.19Z"/><path class="cls-11" d="M127.65,50.89c-.27,0-.53-.17-.62-.45l-.19-.56c-.11-.34.07-.71.41-.82.34-.11.71.07.82.41l.19.57c.11.34-.08.71-.42.82-.07.02-.13.03-.2.03Z"/><path class="cls-11" d="M113,106.93s-.07,0-.11,0c-.35-.06-.59-.39-.53-.75.47-2.8,1.09-5.6,1.86-8.34,1.39-5.13,3.12-10.26,4.79-15.21l1.05-3.11c2.08-6.18,3.81-12.55,5.16-18.93.07-.35.42-.58.77-.5.35.07.58.42.5.77-1.35,6.43-3.1,12.84-5.2,19.07l-1.05,3.11c-1.67,4.94-3.39,10.04-4.77,15.14-.75,2.7-1.37,5.46-1.83,8.21-.05.32-.33.54-.64.54Z"/><path class="cls-11" d="M128.26,50.04c-.03-.1-.1-.19-.17-.26,0,0,0,0,0,0,.01-.07,0-.13,0-.2,0-.02,0-.04,0-.06,0-.02,0-.04,0-.05-2.55-7.51-6.47-14.37-11.63-20.39C94.2,3.15,55.02.16,29.1,22.4c-.27.23-.3.64-.07.92s.64.3.92.07C55.32,1.61,93.68,4.54,115.46,29.92c4.94,5.76,8.71,12.32,11.21,19.48-.17.11-.34.23-.5.32-3.55,1.77-7.86,2.48-13.14,2.17-.34-.01-.67.25-.69.61-.02.36.25.67.61.69.82.05,1.62.07,2.4.07,4.45,0,8.2-.79,11.41-2.39.11-.06.22-.14.33-.21,4.55,13.99,3.87,29.12-1.92,42.65-.14.33.01.71.34.85.08.04.17.05.26.05.25,0,.49-.15.6-.39,5.94-13.89,6.62-29.44,1.89-43.79Z"/><path class="cls-11" d="M107.45,52.59s-.07,0-.1,0c-1.37-.21-2.82-.47-4.56-.8-4.33-.88-8.62-1.96-12.78-3.01-2.4-.61-4.79-1.21-7.19-1.78-.35-.08-.57-.43-.48-.78.08-.35.43-.56.78-.48,2.41.57,4.81,1.17,7.21,1.78,4.14,1.05,8.42,2.13,12.71,3,1.72.33,3.16.58,4.51.8.35.06.6.39.54.74-.05.32-.33.55-.64.55Z"/><path class="cls-11" d="M22.26,48.85c-2.17-.02-4.33-.29-6.43-.81-.35-.09-.56-.44-.47-.79.09-.35.44-.56.79-.47,2,.5,4.06.76,6.12.77,3.19,0,6.41-.25,9.57-.71.35-.05.68.19.74.55.05.36-.19.69-.55.74-3.22.47-6.51.72-9.76.72Z"/><path class="cls-11" d="M121.97,101c-.31-.19-.71-.09-.89.21-2.63,4.25-5.78,8.18-9.36,11.66-2.85,2.78-5.99,5.28-9.33,7.45,0,0,0,0,0,0-18.93,12.27-42.87,13.03-62.55,2.02-.45-1.71-.87-3.22-1.27-4.64,2.97,1.96,6.72,3.12,11.65,3.6.02,0,.04,0,.06,0,.33,0,.61-.25.65-.59.04-.36-.23-.68-.58-.71-5.5-.54-9.45-1.93-12.42-4.38-.96-.79-1.83-1.7-2.58-2.7-.22-.29-.62-.34-.91-.13-.29.22-.34.62-.13.91.74.98,1.6,1.87,2.53,2.68.45,1.55.91,3.18,1.41,5.02-4.82-2.9-9.21-6.43-13.06-10.54l-4.23-14.98c1.27.39,2.64.63,4.04.84.03,0,.06,0,.1,0,.32,0,.59-.23.64-.55.05-.35-.19-.69-.55-.74-3.6-.54-6.73-1.22-8.5-4.21-1.62-2.72-1.49-5.96-1.35-9.39.04-.95.08-1.9.07-2.85-.19-7.86-.89-15.78-2.07-23.54-.05-.35-.38-.6-.74-.54-.36.05-.6.39-.54.74,1.17,7.71,1.86,15.58,2.05,23.37,0,.92-.04,1.85-.07,2.78-.14,3.47-.28,7.05,1.53,10.1.99,1.66,2.33,2.71,3.87,3.41l3.77,13.33c-14.01-16.48-18.21-39.03-10.91-59.56,0,0,0,0,0,0,.32-.9.67-1.8,1.03-2.69,2.89-7.03,7.02-13.39,12.28-18.88.25-.26.24-.67-.02-.92-.26-.25-.67-.24-.92.02-5.37,5.61-9.59,12.1-12.55,19.29-.37.91-.73,1.83-1.05,2.74,0,0,0,0,0,0-7.78,21.88-2.78,46.02,13.05,63,0,0,0,0,0,0,4.32,4.64,9.31,8.57,14.82,11.69,0,0,0,0,.01,0,9.51,5.38,20.01,8.05,30.48,8.05,11.71,0,23.4-3.34,33.64-9.98,0,0,0,0,0,0,3.41-2.21,6.62-4.77,9.54-7.61,3.66-3.56,6.88-7.57,9.56-11.91.19-.31.09-.71-.21-.9Z"/><path id="_パス_10117" class="cls-15" d="M48.92,53.05c4.34-2.04,6.21-7.22,4.17-11.56-2.04-4.34-7.22-6.21-11.56-4.17s-6.21,7.22-4.17,11.56c.86,1.83,2.34,3.31,4.17,4.17,1.23.57,2.31,1.41,3.16,2.47.23.29.65.34.95.11.04-.03.08-.07.11-.11.85-1.06,1.93-1.91,3.17-2.47"/><path class="cls-11" d="M45.23,56.28c-.35,0-.69-.15-.93-.45-.79-.99-1.82-1.8-2.98-2.33-1.94-.91-3.5-2.48-4.41-4.41-1.04-2.22-1.16-4.72-.33-7.02s2.51-4.16,4.74-5.2c2.22-1.04,4.71-1.16,7.02-.33,2.31.83,4.15,2.51,5.2,4.73,1.04,2.22,1.16,4.72.33,7.02-.83,2.31-2.51,4.16-4.74,5.2,0,0,0,0,0,0-1.16.53-2.19,1.34-2.99,2.33-.05.07-.12.14-.2.2-.21.17-.47.25-.72.25ZM45.22,37c-1.19,0-2.37.26-3.48.78-1.98.93-3.48,2.58-4.22,4.63-.74,2.06-.64,4.28.29,6.26.81,1.72,2.21,3.12,3.93,3.93,1.29.6,2.45,1.5,3.34,2.61.06.08.17.09.25.03.92-1.15,2.08-2.05,3.38-2.65,1.98-.93,3.48-2.58,4.22-4.63.74-2.06.64-4.28-.29-6.26-.93-1.98-2.58-3.48-4.63-4.22-.91-.33-1.85-.49-2.78-.49ZM48.92,53.05h0,0Z"/><path id="_パス_10119" class="cls-14" d="M74.95,47.08c5.71-2.68,8.16-9.49,5.48-15.19-2.68-5.71-9.49-8.16-15.19-5.48s-8.16,9.49-5.48,15.19c1.13,2.41,3.07,4.34,5.48,5.48,1.62.74,3.04,1.86,4.16,3.25h0c.3.39.86.45,1.25.15.06-.04.11-.1.15-.15,1.12-1.39,2.54-2.51,4.16-3.25"/><path class="cls-11" d="M70.09,51.17c-.41,0-.82-.18-1.1-.53-1.06-1.32-2.43-2.4-3.97-3.1-2.51-1.18-4.54-3.21-5.72-5.72-2.8-5.95-.23-13.06,5.72-15.86,5.95-2.8,13.06-.23,15.86,5.72,1.36,2.88,1.51,6.12.43,9.11s-3.26,5.39-6.14,6.75c0,0,0,0,0,0-1.54.71-2.92,1.78-3.98,3.11-.07.09-.15.17-.23.23-.25.2-.56.29-.85.29ZM70.07,25.83c-1.55,0-3.13.33-4.63,1.04-5.45,2.56-7.8,9.08-5.24,14.53,1.08,2.3,2.94,4.16,5.24,5.24,1.68.77,3.18,1.94,4.34,3.39.07.09.16.14.26.15.1.01.21-.02.29-.08,1.23-1.52,2.73-2.69,4.41-3.46,2.64-1.24,4.64-3.44,5.63-6.18.99-2.74.85-5.71-.39-8.35-1.86-3.95-5.8-6.27-9.9-6.27ZM74.94,47.08h0,0Z"/><path id="_パス_10121" class="cls-7" d="M98.5,53.89c4.24-1.99,6.06-7.04,4.07-11.28-1.99-4.24-7.04-6.06-11.28-4.07s-6.06,7.04-4.07,11.28c.84,1.79,2.28,3.23,4.07,4.07,1.2.55,2.26,1.38,3.09,2.41.22.29.64.34.93.11.04-.03.08-.07.11-.11.83-1.03,1.89-1.86,3.09-2.42"/><path class="cls-11" d="M94.89,57.05c-.34,0-.69-.15-.91-.44-.77-.96-1.78-1.75-2.9-2.27-1.89-.89-3.42-2.42-4.31-4.31-2.11-4.48-.17-9.84,4.31-11.95,4.48-2.1,9.84-.18,11.95,4.31,1.02,2.17,1.14,4.61.32,6.87-.81,2.26-2.46,4.06-4.63,5.08,0,0,0,0,0,0-1.13.52-2.13,1.3-2.91,2.27-.06.07-.12.14-.2.19-.21.17-.46.25-.71.25ZM94.88,38.23c-1.14,0-2.29.24-3.38.76-3.98,1.87-5.7,6.64-3.83,10.62.79,1.68,2.15,3.04,3.83,3.83,1.26.58,2.39,1.47,3.27,2.55.06.07.16.08.23.03.9-1.12,2.03-2,3.3-2.59,1.93-.91,3.39-2.51,4.11-4.52.72-2.01.62-4.17-.29-6.1-1.36-2.89-4.24-4.58-7.24-4.58ZM98.5,53.89h0,0Z"/><path id="_パス_10123" class="cls-6" d="M61.95,63.4c0,.74-.6,1.35-1.35,1.35s-1.35-.6-1.35-1.35.6-1.35,1.35-1.35,1.35.6,1.35,1.35h0"/></g></svg>