<?xml version="1.0" encoding="UTF-8"?><svg xmlns="http://www.w3.org/2000/svg" viewBox="0 0 113.28 62.59"><defs><style>.cls-1{fill:#231815;}.cls-2{fill:#fff;}.cls-3{fill:#fcf8f0;}</style></defs><g><path class="cls-2" d="M86.31,53.17h-31.27c-3.44,0-6.59,1.95-8.12,5.04l-1.11,2.24c-.61,1.24-2.12,1.74-3.35,1.13-.46-.23-.85-.6-1.09-1.06l-1.37-2.56c-1.58-2.95-4.65-4.79-7.99-4.79h-5.05c-14.48,0-26.21-11.74-26.21-26.21h0C.75,12.49,12.49.75,26.96.75h59.35c14.48,0,26.21,11.74,26.21,26.21h0c0,14.48-11.73,26.21-26.21,26.21h0"/><path class="cls-3" d="M26.96,47.06c-11.1.22-20.28-8.6-20.5-19.7S15.06,7.09,26.16,6.87c.27,0,.53,0,.8,0h59.35c11.1.22,19.92,9.4,19.7,20.5-.22,10.79-8.91,19.48-19.7,19.7H26.96Z"/><path class="cls-1" d="M43.57,62.59c-.5,0-.99-.11-1.44-.34-.61-.3-1.1-.78-1.42-1.38l-1.37-2.56c-1.45-2.71-4.26-4.39-7.33-4.39h-5.05C12.1,53.92,0,41.83,0,26.96,0,12.1,12.09,0,26.96,0c.41,0,.75.34.75.75s-.34.75-.75.75c-14.04,0-25.46,11.42-25.46,25.46,0,14.04,11.42,25.46,25.46,25.46h5.05c3.63,0,6.94,1.99,8.65,5.19l1.37,2.56c.17.32.44.58.76.74.42.21.89.24,1.34.09.44-.15.8-.46,1.01-.88l1.11-2.24c1.67-3.36,5.03-5.46,8.79-5.46h17.04c.41,0,.75.34.75.75s-.34.75-.75.75h-17.04c-3.18,0-6.03,1.77-7.45,4.62l-1.11,2.24c-.39.78-1.05,1.36-1.87,1.64-.34.11-.69.17-1.04.17Z"/><path class="cls-1" d="M86.31,53.92h-2.55c-.41,0-.75-.34-.75-.75s.34-.75.75-.75h2.55c14.04,0,25.46-11.42,25.46-25.46,0-14.04-11.42-25.46-25.46-25.46h-48.56c-.41,0-.75-.34-.75-.75s.34-.75.75-.75h48.56c14.87,0,26.96,12.1,26.96,26.96,0,14.87-12.1,26.96-26.96,26.96Z"/><path class="cls-1" d="M34.23,47.56c-.28,0-.5-.22-.5-.5s.22-.5.5-.5h52.08c10.55-.21,18.98-8.65,19.2-19.2.22-10.81-8.4-19.77-19.21-19.99h-3.36c-.28,0-.5-.22-.5-.5s.22-.5.5-.5h3.37c11.37.23,20.42,9.65,20.2,21.01-.22,11.1-9.09,19.96-20.19,20.19h-52.09Z"/><path class="cls-1" d="M24.05,47.35s-.05,0-.07,0c-5.44-.81-10.24-3.69-13.52-8.11-3.28-4.42-4.63-9.85-3.82-15.3,1.51-10.16,10.06-17.55,20.33-17.57h46.96c.28,0,.5.22.5.5s-.22.5-.5.5H26.96c-9.77.02-17.91,7.05-19.34,16.71-.77,5.18.52,10.35,3.64,14.55s7.69,6.95,12.86,7.72c.27.04.46.29.42.57-.04.25-.25.43-.49.43Z"/></g></svg>