<?xml version="1.0" encoding="UTF-8"?><svg xmlns="http://www.w3.org/2000/svg" viewBox="0 0 172.03 190.71"><defs><style>.cls-1{fill:#231815;}.cls-2{fill:#fcf8f0;}</style></defs><g><path class="cls-2" d="M85.97,190.13c2.13,0,4.14-.97,5.45-2.65,8.26-10.36,18.83-18.63,30.87-24.14,42.71-20.06,61.07-70.95,41.01-113.66C149.23,19.7,119.09.56,85.97.56c-2.06,0-4.15.08-6.21.22C32.69,4.21-2.68,45.13.74,92.2c2.24,30.79,20.92,57.98,48.86,71.12,12.06,5.52,22.65,13.8,30.92,24.16,1.31,1.68,3.32,2.65,5.45,2.65"/><path class="cls-1" d="M148.43,29.06c-.24,0-.48-.1-.66-.29C119.02-2.33,71.41-7.16,37.01,17.54c-.4.29-.97.2-1.26-.21-.29-.4-.2-.97.21-1.26,35.13-25.22,83.77-20.29,113.13,11.47.34.37.31.93-.05,1.27-.17.16-.39.24-.61.24Z"/><path class="cls-1" d="M7.79,120.64c-.35,0-.68-.2-.83-.54C-7.12,87.47.6,48.96,26.17,24.27c.36-.34.93-.34,1.27.02.35.36.34.93-.02,1.27C2.38,49.74-5.17,87.44,8.62,119.39c.2.46-.01.99-.47,1.18-.12.05-.24.07-.36.07Z"/><path class="cls-1" d="M85.96,190.71c-1.68,0-3.3-.56-4.63-1.61-.47-.37-.9-.79-1.26-1.26-8.18-10.22-18.8-18.52-30.7-23.99-14.72-6.94-27.13-17.85-35.9-31.54-.27-.42-.15-.98.27-1.24.42-.27.98-.15,1.24.27,8.59,13.41,20.74,24.09,35.14,30.88,12.15,5.59,22.99,14.06,31.35,24.5.29.36.61.69.97.97,1.2.94,2.7,1.36,4.22,1.18,1.52-.18,2.87-.94,3.82-2.15,1.53-1.94,3.16-3.82,4.84-5.6.34-.36.91-.38,1.27-.03.36.34.38.91.03,1.27-1.65,1.74-3.24,3.58-4.73,5.47-1.24,1.58-3.02,2.58-5.02,2.82-.3.04-.61.05-.91.05Z"/><path class="cls-1" d="M101.81,177.08c-.25,0-.51-.11-.68-.31-.32-.38-.28-.95.1-1.27,6.22-5.33,13.14-9.79,20.56-13.25,3.9-1.83,7.69-3.98,11.27-6.39,18.66-12.58,31.3-31.67,35.6-53.76s-.26-44.53-12.84-63.19c-.28-.41-.17-.97.24-1.25.41-.28.97-.17,1.25.24,12.85,19.06,17.5,41.98,13.11,64.53-4.39,22.56-17.3,42.06-36.36,54.9-3.65,2.46-7.52,4.66-11.51,6.53-7.28,3.39-14.06,7.77-20.15,12.99-.17.15-.38.22-.59.22Z"/><path class="cls-1" d="M86.13,163.85c-4.93,0-9.89-.47-14.83-1.42-20.43-3.92-38.1-15.56-49.77-32.77s-15.94-37.94-12.02-58.37c.09-.49.56-.81,1.05-.71.49.09.81.57.71,1.05-3.83,19.95.34,40.2,11.75,57.02,11.4,16.82,28.67,28.18,48.62,32.01,19.95,3.83,40.2-.34,57.02-11.75,16.82-11.4,28.18-28.67,32.01-48.62.64-3.35,1.06-6.77,1.25-10.18.03-.5.44-.88.95-.85.5.03.88.45.85.95-.19,3.49-.62,6.99-1.28,10.42-3.92,20.43-15.56,38.1-32.77,49.77-13.05,8.85-28.11,13.44-43.53,13.44Z"/><path class="cls-1" d="M162.41,77.97c-.45,0-.84-.34-.89-.8-2.35-20.18-12.43-38.24-28.36-50.85-15.94-12.61-35.83-18.25-56.01-15.9-29.34,3.42-54.26,23.77-63.47,51.85-.15.47-.66.73-1.14.57-.47-.15-.73-.66-.57-1.14C21.39,32.98,46.89,12.15,76.93,8.64c20.66-2.41,41.02,3.37,57.34,16.27,16.31,12.9,26.63,31.39,29.04,52.05.06.49-.3.94-.79,1-.04,0-.07,0-.11,0Z"/></g></svg>