<?xml version="1.0" encoding="UTF-8"?><svg id="_レイヤー_2" xmlns="http://www.w3.org/2000/svg" viewBox="0 0 237.33 263.14"><defs><style>.cls-1{fill:#231815;}.cls-2{fill:#fcf8f0;}</style></defs><g id="_レイヤー_1-2"><path id="_パス_4523" class="cls-2" d="M118.7,262.68c2.95,0,5.73-1.34,7.54-3.66,11.02-14.02,25.39-25.25,42.71-33.4,59.09-27.75,84.49-98.15,56.73-157.24C206.21,26.9,164.52.43,118.7.43c-2.85,0-5.74.1-8.59.3C45,5.45-3.95,62.07.78,127.17c3.09,42.61,28.94,80.24,67.61,98.41,17.37,8.18,31.76,19.43,42.77,33.42,1.81,2.32,4.6,3.67,7.54,3.66"/><path class="cls-1" d="M205.1,39.51c-.24,0-.48-.1-.66-.29C164.56-3.93,98.5-10.63,50.77,23.64c-.4.29-.97.2-1.26-.21-.29-.4-.2-.97.21-1.26,48.46-34.79,115.55-27.99,156.04,15.82.34.36.31.93-.05,1.27-.17.16-.39.24-.61.24Z"/><path class="cls-1" d="M10.55,166.21c-.35,0-.68-.2-.83-.54C.13,143.45-2.43,119.16,2.33,95.44s16.47-45.15,33.88-61.96c.36-.34.93-.34,1.27.02.35.36.33.93-.02,1.27C20.31,51.33,8.77,72.43,4.09,95.79s-2.17,47.28,7.28,69.16c.2.46-.01.99-.47,1.18-.12.05-.24.07-.36.07Z"/><path class="cls-1" d="M118.68,263.14c-2.24,0-4.41-.75-6.2-2.15-.63-.49-1.2-1.06-1.69-1.69-11.35-14.18-26.08-25.69-42.59-33.29-20.3-9.58-37.42-24.62-49.51-43.51-.27-.42-.15-.98.27-1.24.42-.27.97-.15,1.24.27,11.92,18.61,28.78,33.42,48.76,42.85,16.76,7.71,31.71,19.4,43.24,33.8.41.52.88.99,1.39,1.39,1.74,1.37,3.9,1.97,6.09,1.71,2.19-.26,4.15-1.36,5.52-3.1,2.11-2.67,4.35-5.27,6.68-7.72.34-.36.91-.37,1.27-.03.36.34.38.91.03,1.27-2.29,2.41-4.5,4.96-6.57,7.59-1.66,2.11-4.05,3.45-6.72,3.77-.41.05-.81.07-1.21.07Z"/><path class="cls-1" d="M140.61,244.28c-.25,0-.5-.11-.68-.31-.32-.38-.28-.95.1-1.27,8.58-7.36,18.12-13.51,28.36-18.29,5.41-2.54,10.67-5.53,15.63-8.87,53.44-36.03,67.61-108.82,31.59-162.26-.28-.41-.17-.97.24-1.25s.97-.17,1.25.24c36.58,54.27,22.19,128.18-32.07,164.76-5.03,3.39-10.37,6.42-15.87,9.01-10.1,4.71-19.5,10.77-27.95,18.02-.17.15-.38.22-.59.22Z"/><path class="cls-1" d="M118.91,225.97c-6.79,0-13.63-.65-20.45-1.95-28.17-5.4-52.54-21.45-68.64-45.19-16.1-23.74-21.98-52.32-16.58-80.49.09-.49.57-.81,1.05-.71.49.09.81.57.71,1.05-5.31,27.69.48,55.8,16.3,79.14,15.83,23.34,39.79,39.12,67.49,44.43,27.69,5.31,55.8-.48,79.14-16.3,23.34-15.83,39.12-39.79,44.43-67.49.89-4.65,1.47-9.41,1.73-14.13.03-.5.46-.88.95-.85.5.03.88.45.85.95-.26,4.81-.86,9.65-1.76,14.37-5.4,28.17-21.45,52.54-45.19,68.64-17.99,12.2-38.77,18.53-60.03,18.54Z"/><path class="cls-1" d="M224.45,107.17c-.45,0-.84-.34-.89-.8-3.27-28.01-17.25-53.08-39.37-70.57-22.12-17.5-49.73-25.33-77.74-22.06C65.72,18.49,31.14,46.74,18.36,85.7c-.16.47-.66.73-1.14.57-.47-.15-.73-.66-.58-1.14C29.65,45.51,64.82,16.79,106.23,11.95c28.5-3.33,56.57,4.64,79.07,22.44,22.5,17.79,36.72,43.28,40.04,71.77.06.49-.3.94-.79,1-.04,0-.07,0-.11,0Z"/></g></svg>