<?xml version="1.0" encoding="UTF-8"?><svg id="_レイヤー_2" xmlns="http://www.w3.org/2000/svg" viewBox="0 0 156.96 156.72"><defs><style>.cls-1{isolation:isolate;}.cls-2{fill:#f9f0e1;}.cls-3{fill:#231815;}.cls-4{fill:#fff;}.cls-5{fill:#ffd500;}</style></defs><g id="_レイヤー_1-2"><g class="cls-1"><path d="M54.18,97.62c-.1.81-.33,1.57-.71,2.26,1.2.57,2.69.94,4.45,1.09-.32.34-.73.98-.92,1.38-1.76-.22-3.24-.68-4.45-1.37-.62.57-1.51,1.05-2.66,1.39-.2-.34-.65-.96-.96-1.29,1.04-.23,1.81-.57,2.37-1-.64-.53-1.16-1.2-1.6-1.94l1.26-.39c.31.51.73.95,1.21,1.34.26-.47.4-.95.48-1.48h-2.9v-3.8h2.99v-.91h-3.26v-1.2c-.23.51-.49,1-.78,1.5v9.19h-1.47v-6.98c-.35.44-.7.86-1.07,1.22-.14-.38-.56-1.21-.82-1.59,1.24-1.17,2.44-3,3.15-4.85l1.43.47c-.12.27-.23.55-.35.83h3.17v-1.18h1.53v1.18h3.45v1.4h-3.45v.91h3.09v3.8h-3.17ZM52.73,96.37v-1.29h-1.6v1.29h1.6ZM54.26,95.09v1.29h1.61v-1.29h-1.61Z"/></g><g class="cls-1"><path d="M60.03,95.4c.88-.27,3.09-1.01,4.67-1.01,2.05,0,3.43,1.22,3.43,3.19,0,2.35-2.07,3.95-6.2,4.21l-.69-1.6c2.98-.08,5.16-.87,5.16-2.64,0-.97-.73-1.65-1.86-1.65-1.51,0-4.11,1.08-5.21,1.55l-.68-1.69c.39-.08.99-.23,1.38-.35Z"/><path d="M69.74,92.24c1.08-.09,3.22-.29,5.6-.49,1.34-.1,2.77-.2,3.68-.22v1.66c-.69.01-1.81.01-2.5.17-1.57.42-2.74,2.11-2.74,3.65,0,2.13,2,2.91,4.2,3.03l-.61,1.78c-2.72-.18-5.29-1.65-5.29-4.46,0-1.87,1.05-3.35,1.92-4.02-1.22.13-3.87.42-5.38.74l-.17-1.78c.52-.01,1.03-.04,1.29-.07Z"/><path d="M83.33,91.47c.74,0,2.12-.07,2.73-.12.32-.01.66-.09.88-.18l1.04.81c-.18.2-.34.36-.44.55-.34.56-.83,1.69-1.3,2.8,1.01.16,1.98.47,2.82.83.01-.16.03-.3.04-.44.04-.51.04-1.03,0-1.42l1.7.2c-.05.87-.12,1.68-.25,2.4.54.31,1.01.61,1.39.87l-.75,1.81c-.34-.31-.71-.61-1.12-.91-.57,1.47-1.56,2.61-3.3,3.52l-1.38-1.13c1.96-.84,2.87-2.08,3.3-3.26-.92-.51-1.96-.9-3.08-1.05-.47,1.1-1.01,2.4-1.47,3.12-.52.78-1.14,1.14-2.03,1.14-1.14,0-2-.79-2-2.11,0-2.01,1.83-3.55,4.45-3.67.37-.86.74-1.74,1.04-2.35-.52.03-1.64.06-2.24.1-.26.01-.71.05-1.05.1l-.07-1.68c.35.04.79.07,1.08.07ZM82.18,99.3c.26,0,.44-.13.68-.46.34-.48.69-1.3,1.05-2.12-1.46.22-2.28,1.11-2.28,1.92,0,.43.25.65.55.65Z"/><path d="M95.89,91.41c.69,0,3.47-.05,4.21-.12.53-.05.83-.09.99-.14l.85,1.16c-.3.2-.61.38-.91.6-.7.49-2.07,1.64-2.89,2.29.43-.1.82-.14,1.24-.14,2.21,0,3.89,1.38,3.89,3.28,0,2.05-1.56,3.68-4.71,3.68-1.81,0-3.17-.83-3.17-2.13,0-1.05.95-2.03,2.33-2.03,1.61,0,2.59.99,2.77,2.22.71-.38,1.08-.98,1.08-1.77,0-1.17-1.17-1.96-2.71-1.96-1.99,0-3.29,1.05-4.68,2.64l-1.18-1.22c.92-.74,2.5-2.07,3.26-2.7.73-.6,2.08-1.69,2.72-2.25-.66.01-2.46.09-3.15.13-.35.03-.77.07-1.07.1l-.05-1.69c.36.05.82.06,1.18.06ZM98.23,100.52c.27,0,.52-.01.75-.04-.08-.85-.56-1.39-1.26-1.39-.49,0-.81.3-.81.62,0,.48.53.81,1.31.81Z"/><path d="M105.43,100.18c0-.71.51-1.25,1.18-1.25s1.2.53,1.2,1.25-.52,1.25-1.2,1.25-1.18-.55-1.18-1.25ZM105.71,93.17l-.06-1.81h1.92l-.06,1.81-.27,4.8h-1.25l-.27-4.8Z"/></g><path id="_パス_10690" class="cls-5" d="M97.34,70.33c-1.82,4.38-5.21,7.92-9.5,9.94-2.7,1.24-5.07,3.1-6.93,5.42-.51.64-1.44.75-2.08.25-.09-.07-.18-.16-.25-.25-1.86-2.32-4.23-4.18-6.93-5.42-9.51-4.48-13.59-15.82-9.12-25.33,4.48-9.51,15.82-13.59,25.33-9.12,5.98,2.82,10.08,8.54,10.81,15.11"/><path d="M79.63,87c-.66,0-1.32-.29-1.76-.85-1.77-2.21-4.07-4.01-6.65-5.2-4.47-2.1-7.97-5.77-9.87-10.33-.16-.38.02-.82.4-.98.38-.16.82.02.98.4,1.75,4.21,4.99,7.6,9.12,9.55,2.79,1.28,5.28,3.23,7.19,5.63.25.32.71.38,1.03.13.05-.04.09-.08.12-.12,1.93-2.41,4.43-4.36,7.22-5.64,9.11-4.29,13.04-15.2,8.75-24.32-2.08-4.42-5.75-7.76-10.35-9.42-4.6-1.65-9.56-1.42-13.98.66-5.71,2.69-9.69,8.25-10.39,14.52-.05.41-.42.71-.83.66-.41-.05-.71-.42-.66-.83.76-6.78,5.06-12.8,11.24-15.71,4.78-2.25,10.15-2.5,15.12-.71,4.97,1.79,8.95,5.41,11.2,10.19,4.64,9.87.39,21.68-9.48,26.32-2.59,1.19-4.9,2.99-6.68,5.21-.1.13-.23.26-.37.37-.41.32-.89.48-1.38.48Z"/><path id="_パス_10692" class="cls-4" d="M78.92,55.05c4.28-.43,8.09,2.7,8.52,6.98.43,4.28-2.7,8.09-6.98,8.52s-8.09-2.7-8.52-6.98c0,0,0,0,0,0-.43-4.28,2.7-8.09,6.98-8.52"/><path d="M79.69,71.33c-2.3,0-4.59-.92-6.26-2.73-3.2-3.45-2.99-8.86.46-12.06,1.36-1.26,3.12-2.05,4.95-2.23,3.88-.39,7.52,1.9,8.86,5.55.14.39-.06.82-.45.96-.39.14-.82-.06-.96-.45-1.11-3.01-4.11-4.9-7.3-4.57-1.51.15-2.96.8-4.08,1.84-2.85,2.64-3.02,7.1-.38,9.94,2.64,2.85,7.1,3.02,9.94.38.3-.28.78-.26,1.06.04.28.3.26.78-.04,1.06-1.64,1.52-3.72,2.27-5.8,2.27Z"/><path id="_パス_10698" class="cls-2" d="M136.41,137.33c-2.22,2.21-5.82,2.21-8.04,0l-10.2-10.19c-.9-.9-2.33-.98-3.34-.2-26.75,20.09-64.72,14.7-84.82-12.05-17.05-22.7-16.05-54.21,2.42-75.78,1.03-1.19,2.11-2.37,3.22-3.48,23.69-23.63,62.04-23.58,85.67.1,21.28,21.33,23.65,55.05,5.57,79.15-.78,1-.7,2.43.2,3.34l10.19,10.19c2.21,2.22,2.21,5.82,0,8.04l-.88.88ZM73.44,124.24c24.95,2.6,47.28-15.53,49.88-40.48,2.6-24.95-15.53-47.28-40.48-49.88s-47.28,15.53-49.88,40.48c-2.58,24.85,15.38,47.12,40.21,49.85l.27.03Z"/><g class="cls-1"><path d="M96.75,150.31c-.91-.09-1.51-.61-1.78-1.53-.46-1.61.21-2.6,2.14-3.16l3.72-1.07c.62-.18,1.11.09,1.29.71l1.82,6.37c.18.63-.09,1.11-.71,1.29l-3.47.99c-1.92.55-3.02.07-3.48-1.53-.23-.81-.07-1.52.48-2.06v-.03ZM97.73,147.29c-.67.19-.94.58-.78,1.16.16.56.59.74,1.26.54l2.74-.78-.49-1.7-2.74.78ZM98.87,150.53c-.66.19-.94.55-.78,1.11s.59.75,1.26.56l2.54-.73-.48-1.67-2.54.73Z"/></g><g class="cls-1"><path d="M85.69,156.7c-2.71.22-4.7-1.46-4.92-4.12s1.47-4.65,4.18-4.87c2.7-.22,4.7,1.46,4.92,4.12.22,2.67-1.49,4.65-4.18,4.87ZM85.1,149.47c-1.53.12-2.49,1.33-2.36,2.94.13,1.62,1.27,2.65,2.8,2.52s2.49-1.32,2.36-2.94c-.13-1.62-1.27-2.65-2.8-2.52Z"/></g><g class="cls-1"><path d="M66.96,148.03c-.18-.25-.27-.51-.24-.79.07-.65.52-1.01,1.16-.94.33.04.6.22.8.51l2.62,3.89,1.29-.84.21-1.88c.08-.7.52-1.07,1.16-1,.65.07,1,.54.92,1.23l-.83,7.27c-.08.7-.52,1.07-1.17,1-.64-.07-.98-.54-.9-1.23l.33-2.87-4.67,3.21c-.23.16-.48.24-.76.21-.61-.07-.97-.52-.9-1.12.04-.33.2-.61.47-.79l3.2-2.09-2.7-3.77Z"/></g><g class="cls-1"><path d="M52.8,151.59l1.17-3.82c.75-2.46,2.44-3.39,4.81-2.66,2.4.74,3.29,2.45,2.53,4.91l-1.16,3.79c-.19.62-.65.89-1.22.71-.58-.18-.82-.66-.63-1.28l1.16-3.78c.42-1.38,0-2.29-1.2-2.67s-2.06.16-2.48,1.54l-1.17,3.8c-.19.61-.63.87-1.21.69-.57-.17-.8-.64-.61-1.25Z"/></g><g class="cls-1"><path d="M42.53,139.03c-.04-.25-.02-.51.11-.75.3-.57.85-.72,1.42-.42.32.17.49.45.55.81l.59,3.58,1.79.94,1.05-2c.32-.61.86-.8,1.43-.5.58.31.74.86.42,1.47l-3.36,6.42c-.33.62-.89.8-1.51.47l-3.34-1.75c-1.87-.98-2.41-2.4-1.52-4.1.66-1.27,1.64-1.8,2.85-1.61v-.03s-.48-2.53-.48-2.53ZM43.83,143.68c-.77-.4-1.39-.25-1.72.39-.34.66-.11,1.24.66,1.64l2.28,1.2,1.07-2.04-2.28-1.2Z"/></g><g class="cls-1"><path d="M29.39,133.65l2.51-3.16c.44-.55,1-.63,1.52-.22.5.4.55.97.12,1.52l-.99,1.25,3.62,2.88,1.01-1.27c.43-.54.99-.61,1.48-.22.5.4.55.95.12,1.49l-2.53,3.18c-1.79,2.25-4.03,2.52-6.21.79-2.18-1.73-2.43-3.99-.64-6.24ZM30.97,135.02c-1.01,1.27-.92,2.46.26,3.39,1.17.93,2.35.76,3.36-.52l.4-.5-3.62-2.88-.4.5Z"/></g><g class="cls-1"><path d="M17.09,125.22l5.48-4.65c.59-.5,1.27-.47,1.71.05.31.36.45.81.34,1.35l-1.51,6.84.02.02,3.89-3.3c.52-.44,1.08-.42,1.49.07.41.48.35,1.04-.17,1.49l-5.48,4.64c-.59.5-1.3.44-1.73-.07-.34-.41-.44-.78-.34-1.27l1.52-6.89-.02-.02-3.88,3.29c-.52.44-1.09.41-1.49-.07-.42-.49-.35-1.04.17-1.49Z"/></g><g class="cls-1"><path d="M9.95,116.86c-1.3-2.38-.58-4.88,1.77-6.17,2.35-1.28,4.84-.54,6.15,1.84,1.3,2.37.58,4.88-1.77,6.17-2.35,1.28-4.85.53-6.15-1.84ZM16.32,113.39c-.74-1.35-2.22-1.74-3.65-.96-1.43.78-1.9,2.24-1.17,3.59.73,1.35,2.22,1.73,3.65.96,1.43-.78,1.9-2.24,1.17-3.58Z"/></g><g class="cls-1"><path d="M1.28,75.56l6.53-.08c.65,0,1.04.35,1.05.95,0,.61-.38.98-1.03.99l-4.5.06v.03l3.39,1.97c.41.24.57.53.57.9,0,.38-.15.67-.53.9l-3.42,2.11v.03s4.59-.06,4.59-.06c.64,0,1.02.34,1.03.94,0,.58-.36.95-1,.96l-6.51.08c-.74,0-1.34-.42-1.35-1.2,0-.57.2-.93.7-1.24l4.08-2.51-4.14-2.4c-.51-.31-.72-.65-.73-1.23,0-.74.57-1.18,1.28-1.19Z"/></g><g class="cls-1"><path d="M6.97,60.19l3.96.79c.69.14,1.02.6.89,1.25-.13.63-.62.93-1.3.8l-1.57-.31-.91,4.53,1.59.32c.67.13,1,.6.87,1.22-.13.63-.6.92-1.27.79l-3.98-.8c-2.82-.56-4.08-2.43-3.54-5.16.55-2.73,2.44-3.98,5.25-3.42ZM6.48,62.22c-1.59-.32-2.61.31-2.9,1.78-.29,1.47.4,2.44,1.99,2.76l.63.13.91-4.53-.63-.13Z"/></g><g class="cls-1"><path d="M7.32,46.36c.24-.58.71-.8,1.26-.58.55.22.74.71.51,1.29l-.93,2.3,5.98,2.41c.65.26.89.78.65,1.38-.25.61-.78.82-1.43.56l-5.98-2.41-.93,2.3c-.24.58-.71.8-1.26.58-.54-.22-.74-.71-.51-1.29l2.63-6.53Z"/></g><g class="cls-1"><path d="M15.52,38.95c1.52-2.42,2.88-2.89,4.46-1.89,1.7,1.07,1.84,2.91.43,5.16-.94,1.49-2.03,2.38-3.2,2.61-.25.06-.52,0-.79-.17-.47-.3-.62-.83-.3-1.34.12-.19.29-.33.56-.42.86-.26,1.63-.89,2.21-1.8.63-1.01.64-1.81.03-2.2-.51-.32-1-.05-1.9,1.37-1.53,2.38-2.83,2.84-4.37,1.87-1.61-1.01-1.79-3-.45-5.13.75-1.19,1.64-1.95,2.63-2.27.27-.09.58-.06.89.13.47.3.62.83.3,1.34-.12.19-.28.32-.53.41-.75.29-1.34.79-1.79,1.51-.59.94-.6,1.79,0,2.17.47.3.96,0,1.81-1.35Z"/></g><g class="cls-1"><path d="M23.76,23.62l2.93,2.71c1.89,1.75,2,3.66.31,5.49-1.7,1.84-3.63,1.9-5.52.16l-2.91-2.69c-.48-.44-.52-.97-.11-1.41.41-.45.95-.45,1.43-.01l2.91,2.68c1.06.98,2.07,1,2.92.07.85-.93.75-1.93-.31-2.9l-2.92-2.7c-.47-.43-.51-.95-.1-1.38.4-.44.92-.44,1.39-.01Z"/></g><g class="cls-1"><path d="M37.05,13.29l3.78,5.32c.38.53.31,1.06-.18,1.41-.5.35-1.02.25-1.4-.28l-2.61-3.67h-.02s.31,3.93.31,3.93c.03.47-.11.76-.42.98-.31.22-.63.26-1.05.07l-3.68-1.61-.02.02,2.66,3.74c.37.52.3,1.03-.19,1.38-.48.34-.99.24-1.36-.28l-3.77-5.31c-.43-.6-.42-1.35.22-1.8.47-.33.87-.37,1.42-.13l4.38,1.93-.38-4.77c-.04-.59.13-.97.59-1.3.6-.43,1.29-.2,1.71.38Z"/></g><g class="cls-1"><path d="M46.84,6.64c2.49-1.1,4.91-.17,6,2.28,1.08,2.45.13,4.87-2.35,5.97-2.47,1.09-4.91.17-6-2.28-1.08-2.45-.12-4.88,2.35-5.97ZM49.77,13.27c1.4-.62,1.92-2.07,1.26-3.55-.66-1.49-2.07-2.08-3.47-1.46s-1.92,2.07-1.26,3.55c.66,1.49,2.07,2.08,3.47,1.46Z"/></g><g class="cls-1"><path d="M65.35,1.49c.62-.13,1.06.15,1.18.72s-.17,1.01-.79,1.14l-2.42.52,1.35,6.3c.15.68-.15,1.18-.78,1.31-.64.14-1.11-.19-1.26-.88l-1.35-6.3-2.42.52c-.62.13-1.06-.15-1.19-.72-.12-.58.17-1.01.79-1.14l6.89-1.47Z"/></g><g class="cls-1"><path d="M76.3,0c2.72-.05,4.59,1.76,4.64,4.43.04,2.68-1.77,4.54-4.49,4.59-2.7.04-4.59-1.76-4.64-4.44-.04-2.68,1.78-4.54,4.49-4.59ZM76.43,7.25c1.53-.03,2.57-1.16,2.54-2.79-.03-1.62-1.1-2.72-2.63-2.7-1.53.03-2.57,1.16-2.54,2.79.03,1.62,1.1,2.73,2.63,2.7Z"/></g><g class="cls-1"><path d="M105.39,5.29c3.05,1.16,4.19,3.44,3.13,6.21-1.06,2.77-3.42,3.71-6.47,2.55l-2.46-.94c-.65-.25-.9-.79-.65-1.44l2.54-6.67c.25-.65.79-.9,1.44-.65l2.46.94ZM102.83,12.31c1.7.65,3.08.06,3.7-1.57.62-1.63-.02-2.99-1.72-3.63l-1.66-.63-1.98,5.2,1.66.63Z"/></g><g class="cls-1"><path d="M116.87,11.31l-3.31,5.93c-.32.57-.82.73-1.35.44-.53-.3-.66-.82-.34-1.38l3.31-5.93c.32-.57.83-.73,1.36-.43.52.29.65.81.33,1.38Z"/></g><g class="cls-1"><path d="M126.28,22.02c.54.42.62,1.03.2,1.58l-.1.13c-1.49,1.94-4.01,2.14-6.19.46-2.29-1.77-2.68-4.55-.92-6.83s4.55-2.63,6.84-.86c1.3,1,1.98,2.27,2.03,3.47,0,.25-.08.49-.24.7-.37.48-.96.55-1.42.2-.24-.19-.39-.46-.42-.81-.04-.73-.37-1.47-1.1-2.03-1.31-1.01-2.94-.75-4.01.64s-.9,3.03.41,4.04c1.04.8,2.16.85,3,.21l-1.16-.9c-.49-.38-.57-.88-.22-1.34.36-.47.88-.52,1.37-.15l1.94,1.49Z"/></g><g class="cls-1"><path d="M134.8,25.39l-4.89,4.71c-.47.45-1,.46-1.42.03-.42-.44-.39-.97.07-1.42l4.89-4.71c.47-.45,1-.46,1.43-.02.41.43.39.96-.08,1.41Z"/></g><g class="cls-1"><path d="M143.54,35.28c.37.51.3,1.03-.18,1.38-.48.35-.99.25-1.36-.26l-1.46-2.01-5.22,3.78c-.57.41-1.14.34-1.52-.18-.39-.53-.28-1.1.29-1.51l5.22-3.78-1.46-2.01c-.37-.51-.3-1.03.18-1.38.48-.34.99-.25,1.36.26l4.14,5.71Z"/></g><g class="cls-1"><path d="M146.89,50.73l-3.65,1.72c-.63.3-1.18.12-1.46-.47-.27-.58-.06-1.12.57-1.42l1.45-.68-1.97-4.18-1.47.69c-.62.29-1.16.11-1.42-.46-.27-.58-.07-1.1.55-1.39l3.68-1.73c2.6-1.22,4.73-.47,5.92,2.05,1.19,2.52.41,4.65-2.19,5.88ZM146.08,48.81c1.47-.69,1.91-1.8,1.27-3.15-.64-1.36-1.77-1.72-3.24-1.03l-.58.27,1.97,4.18.58-.27Z"/></g><g class="cls-1"><path d="M148.19,62.73c.15.57-.09.99-.62,1.13-.53.14-.94-.12-1.09-.68l-1.34-5.12c-.17-.63.11-1.1.74-1.27l6.5-1.71c.62-.16,1.08.09,1.24.68.15.58-.13,1.03-.75,1.19l-5.8,1.52,1.12,4.25Z"/></g><g class="cls-1"><path d="M155.73,78.08l-6.52.37c-.65.04-1.06-.3-1.09-.9-.04-.61.33-1,.98-1.03l4.49-.25v-.03s-3.48-1.82-3.48-1.82c-.42-.22-.59-.5-.61-.88-.02-.38.12-.67.49-.93l3.32-2.26v-.03s-4.58.26-4.58.26c-.64.04-1.03-.29-1.07-.89-.03-.58.32-.97.96-1l6.5-.37c.74-.04,1.36.36,1.41,1.14.03.57-.15.93-.64,1.27l-3.96,2.69,4.24,2.22c.53.28.75.62.78,1.19.04.74-.52,1.2-1.23,1.24Z"/></g><g class="cls-1"><path d="M150.71,93.68l-3.99-.62c-.69-.11-1.05-.56-.95-1.21.1-.64.57-.96,1.27-.85l1.58.25.71-4.57-1.61-.25c-.68-.11-1.02-.56-.92-1.18.1-.64.56-.95,1.24-.84l4.01.62c2.84.44,4.19,2.25,3.76,5.01-.43,2.75-2.26,4.09-5.1,3.64ZM151.12,91.63c1.61.25,2.59-.42,2.82-1.9.23-1.48-.5-2.42-2.11-2.67l-.64-.1-.71,4.57.64.1Z"/></g><g class="cls-1"><path d="M151.74,105.29c-.71,1.99-2.1,2.71-3.99,2.04-1.9-.67-2.53-2.11-1.83-4.11l.95-2.69-2.06-.73c-.65-.23-.91-.74-.7-1.35.22-.62.75-.85,1.39-.62l6.82,2.42c.66.23.91.77.68,1.43l-1.28,3.6ZM147.8,103.64c-.3.84-.08,1.43.66,1.69.71.25,1.27-.06,1.57-.9l.88-2.47-2.23-.79-.88,2.47Z"/></g><path class="cls-3" d="M49.2,117.86c-.14,0-.28-.04-.39-.13-5.99-4.55-10.91-10.52-14.24-17.26-.16-.32-.03-.71.29-.87.33-.16.71-.03.87.29,3.24,6.56,8.04,12.37,13.86,16.8.29.22.34.62.12.91-.13.17-.32.26-.52.26Z"/><path class="cls-3" d="M78.13,127.62c-6.44,0-12.94-1.28-19.13-3.94-.33-.14-.48-.52-.34-.85.14-.33.53-.48.85-.34,18.64,8,40.25,3.22,53.78-11.89.24-.27.65-.29.92-.05.27.24.29.65.05.92-9.41,10.51-22.63,16.15-36.13,16.15Z"/><path class="cls-3" d="M120.21,102.59c-.1,0-.21-.03-.31-.08-.32-.17-.43-.57-.26-.88,5.94-10.92,7.34-23.51,3.95-35.47-.1-.35.1-.7.45-.8.35-.1.71.1.8.45,3.48,12.29,2.04,25.23-4.06,36.44-.12.22-.34.34-.57.34Z"/><path class="cls-3" d="M122.36,61.32c-.25,0-.5-.15-.6-.4-.53-1.26-1.11-2.5-1.74-3.7-.17-.32-.04-.71.27-.88.32-.17.71-.04.88.27.65,1.23,1.25,2.51,1.79,3.81.14.33-.02.71-.35.85-.08.03-.17.05-.25.05Z"/><path class="cls-3" d="M115.57,49.85c-.19,0-.38-.08-.51-.24-12.82-16.09-34.37-22.02-53.62-14.75-.33.13-.71-.04-.84-.38-.13-.34.04-.71.38-.84,19.78-7.47,41.92-1.38,55.1,15.15.22.28.18.69-.1.91-.12.1-.26.14-.41.14Z"/><path class="cls-3" d="M31.87,92.15c-.29,0-.55-.19-.63-.48-5.3-19.75,2.44-40.84,19.25-52.49.3-.21.7-.13.9.16s.13.7-.16.9c-16.36,11.33-23.88,31.86-18.73,51.08.09.35-.11.7-.46.8-.06.02-.11.02-.17.02Z"/><path class="cls-3" d="M132.39,139.89c-1.69,0-3.37-.64-4.66-1.93l-6.83-6.83c-.35-.35-.35-.92,0-1.27s.92-.35,1.27,0l6.83,6.83c1.87,1.87,4.91,1.87,6.77,0l.88-.88c1.87-1.87,1.87-4.9,0-6.77-.35-.35-.35-.92,0-1.27.35-.35.92-.35,1.27,0,2.57,2.57,2.57,6.75,0,9.32l-.88.88c-1.29,1.28-2.97,1.93-4.66,1.93Z"/><path class="cls-3" d="M132.48,124.5c-.23,0-.46-.09-.64-.26l-5.39-5.39c-1.21-1.23-1.32-3.17-.28-4.52,2.78-3.7,5.13-7.73,6.98-11.99.2-.46.73-.66,1.18-.47.46.2.67.73.47,1.18-1.9,4.38-4.33,8.54-7.2,12.36-.5.66-.45,1.58.12,2.16l5.39,5.38c.35.35.35.92,0,1.27-.18.18-.41.26-.64.26Z"/><path class="cls-3" d="M137.53,92.74c-.07,0-.13,0-.2-.02-.48-.11-.79-.59-.68-1.08,4.04-17.89-.25-36.34-11.75-50.63-.31-.39-.25-.95.14-1.27.39-.31.95-.25,1.27.14,11.85,14.71,16.26,33.72,12.1,52.15-.09.42-.47.7-.88.7Z"/><path class="cls-3" d="M119.68,35c-.22,0-.44-.08-.61-.24-9.85-9.16-22.67-14.76-36.09-15.75-.5-.04-.87-.47-.83-.96.04-.5.48-.86.96-.83,13.83,1.02,27.03,6.78,37.18,16.22.36.34.38.91.05,1.27-.18.19-.42.29-.66.29Z"/><path class="cls-3" d="M28.53,45.08c-.18,0-.35-.05-.51-.16-.41-.28-.51-.84-.23-1.25,1.23-1.78,2.56-3.52,3.97-5.15,10.65-12.46,25.51-20.01,41.85-21.28.49-.03.93.33.97.83.04.5-.33.93-.83.97-15.86,1.22-30.29,8.56-40.62,20.65-1.37,1.59-2.67,3.27-3.86,5-.17.25-.46.39-.74.39Z"/><path class="cls-3" d="M30.57,116.5c-.27,0-.54-.12-.71-.35-13.12-17.03-16.42-40.06-8.63-60.1.18-.46.7-.69,1.17-.51.46.18.69.7.51,1.17-7.57,19.45-4.36,41.81,8.37,58.34.3.39.23.96-.16,1.26-.16.13-.36.19-.55.19Z"/><path class="cls-3" d="M40.87,126.9c-.2,0-.39-.06-.56-.19-1.13-.89-2.25-1.85-3.34-2.84-.37-.33-.39-.9-.06-1.27.34-.37.91-.39,1.27-.06,1.06.96,2.15,1.89,3.24,2.76.39.31.46.87.15,1.26-.18.22-.44.34-.71.34Z"/><path class="cls-3" d="M78.45,139.94c-11.45,0-22.91-3.19-33-9.58-.42-.27-.54-.82-.28-1.24.27-.42.82-.54,1.24-.28,20.11,12.74,45.85,12.36,65.57-.98.41-.28.97-.17,1.25.24.28.41.17.97-.24,1.25-10.42,7.05-22.48,10.59-34.54,10.59Z"/></g></svg>