<?xml version="1.0" encoding="UTF-8"?><svg id="_レイヤー_2" xmlns="http://www.w3.org/2000/svg" viewBox="0 0 33.72 37.25"><defs><style>.cls-1{fill:none;}.cls-2{fill:#fbf5ea;}.cls-3{fill:#231815;}.cls-4{fill:#c5aced;}</style></defs><g id="_レイヤー_1-2"><path id="_パス_8263" class="cls-2" d="M16.85,36.51c-.38,0-.75-.18-.98-.48-1.57-1.96-3.57-3.53-5.86-4.58C1.96,27.68-1.52,18.09,2.25,10.04,4.9,4.38,10.59.76,16.84.76c.39,0,.79.01,1.18.04,8.87.64,15.54,8.35,14.9,17.22-.42,5.81-3.94,10.94-9.21,13.41-2.29,1.05-4.3,2.62-5.87,4.59-.24.3-.6.48-.98.48"/><path class="cls-3" d="M16.86,37.25c-.08,0-.16,0-.24-.01-.53-.06-1.01-.33-1.34-.75-1.49-1.86-3.42-3.37-5.58-4.37-1.97-.92-3.71-2.19-5.18-3.78C1.45,25.06-.15,20.76.01,16.27S2.08,7.6,5.37,4.54c.3-.28.78-.27,1.06.04.28.3.27.78-.04,1.06-3,2.79-4.74,6.59-4.88,10.69-.15,4.1,1.31,8.01,4.1,11.01,1.34,1.44,2.93,2.6,4.71,3.44,2.37,1.09,4.49,2.75,6.13,4.79.09.11.21.18.34.19.14.01.27-.02.37-.1.03-.03.06-.05.08-.08,1.64-2.05,3.77-3.71,6.15-4.8,3.71-1.74,6.52-4.83,7.91-8.69,1.39-3.86,1.2-8.03-.55-11.74-1.74-3.71-4.83-6.52-8.69-7.91-3.86-1.39-8.03-1.2-11.74.55-.38.18-.75.37-1.12.58-.36.21-.82.08-1.02-.28-.21-.36-.08-.82.28-1.02.4-.23.81-.45,1.23-.64,4.08-1.91,8.65-2.13,12.89-.6,4.24,1.53,7.62,4.61,9.54,8.69s2.13,8.65.6,12.89-4.61,7.62-8.69,9.54c-2.18,1-4.11,2.51-5.61,4.38-.1.12-.21.23-.33.33-.36.28-.79.43-1.23.43Z"/><path id="_パス_8265" class="cls-4" d="M16.86,29.81c-7.32.06-13.3-5.83-13.35-13.15.06-7.32,6.04-13.2,13.35-13.15,7.32-.06,13.3,5.83,13.35,13.14-.07,7.31-6.04,13.19-13.35,13.15"/><path class="cls-3" d="M16.9,30.4c-3.49,0-6.97-1.27-9.67-3.81C1.77,21.44,1.51,12.81,6.66,7.36l.21-.22c5.34-5.42,14.19-5.58,19.72-.35,3.83,3.61,5.24,9.17,3.58,14.17-.11.34-.48.53-.82.41-.34-.11-.53-.48-.41-.82,1.5-4.52.22-9.55-3.24-12.82-5.02-4.74-13.05-4.6-17.9.32l-.19.2c-4.65,4.94-4.42,12.74.51,17.39,5.02,4.74,13.05,4.59,17.9-.32.25-.26.67-.26.92,0,.26.25.26.66,0,.92-2.73,2.77-6.39,4.17-10.04,4.17Z"/><rect id="_長方形_1661" class="cls-1" x=".31" y=".32" width="33.09" height="36.62"/><path id="_パス_8303" class="cls-2" d="M17.99,9.72l1.17,2.99c.13.32.43.54.78.56l3.04.14c.64.03,1.14.57,1.11,1.22-.02.33-.17.64-.42.84l-2.22,1.82c-.26.21-.38.55-.3.88l.74,3.21c.14.63-.25,1.25-.87,1.39-.31.07-.64.01-.91-.17l-2.69-1.8c-.3-.2-.68-.2-.98,0l-2.69,1.8c-.53.36-1.25.22-1.61-.32-.18-.27-.24-.59-.17-.91l.74-3.21c.08-.33-.04-.67-.3-.88l-2.22-1.82c-.5-.41-.57-1.14-.16-1.64.21-.25.52-.41.84-.42l3.04-.14c.35-.02.65-.24.78-.56l1.17-2.99c.23-.6.91-.89,1.5-.66.3.12.54.36.66.66"/><path id="_パス_8304" class="cls-1" d="M17.9,21.14l-.5-.33c-.3-.2-.68-.2-.98,0l-2.69,1.81c-.53.36-1.25.22-1.61-.32-.18-.27-.24-.59-.17-.91l.74-3.21c.08-.33-.04-.67-.3-.88l-2.22-1.82c-.5-.41-.57-1.14-.16-1.64.21-.25.52-.41.84-.42l3.04-.14c.35-.02.65-.24.78-.56l.33-.85"/><path d="M13.08,23.46c-.58,0-1.16-.28-1.51-.8-.28-.41-.37-.93-.26-1.42l.74-3.21c.02-.09-.01-.17-.08-.23l-2.22-1.82c-.77-.63-.89-1.78-.26-2.55.32-.4.8-.64,1.32-.66l3.04-.14c.09,0,.17-.06.2-.15l.33-.85c.13-.33.51-.5.84-.37.33.13.5.51.37.84l-.33.85c-.22.56-.75.94-1.35.97l-3.04.14c-.14,0-.28.08-.37.19-.18.22-.15.54.07.72l2.22,1.82c.45.37.65.96.52,1.53l-.74,3.21c-.03.14,0,.28.07.4.16.23.48.3.71.14l2.69-1.81c.52-.35,1.19-.34,1.7,0l.5.33c.3.2.38.6.18.9-.2.3-.6.38-.9.18l-.5-.33c-.08-.05-.18-.05-.26,0l-2.69,1.8c-.31.21-.66.31-1.01.31Z"/><path id="_パス_8306" class="cls-1" d="M15.66,10.13l.16-.42c.23-.6.91-.89,1.51-.66.3.12.54.36.66.66l1.17,2.99c.13.32.43.54.78.56l3.04.14c.64.03,1.14.57,1.11,1.22-.02.33-.17.64-.42.84l-2.22,1.82c-.26.21-.37.55-.3.88l.74,3.21c.14.63-.25,1.25-.87,1.39-.31.07-.64.01-.91-.17l-1.05-.7"/><path d="M20.74,23.46c-.36,0-.71-.11-1.01-.31l-1.05-.7c-.3-.2-.38-.6-.18-.9.2-.3.6-.38.9-.18l1.05.7c.12.08.26.1.4.08.13-.03.25-.11.32-.23.07-.12.1-.25.06-.39l-.74-3.21c-.13-.57.07-1.15.52-1.53l2.22-1.82c.11-.09.18-.23.19-.37.01-.28-.21-.52-.49-.54l-3.04-.14c-.6-.03-1.13-.41-1.35-.97l-1.17-2.99c-.05-.13-.16-.24-.29-.29-.26-.11-.56.03-.66.29l-.16.42c-.13.33-.51.5-.84.37-.33-.13-.5-.51-.37-.84l.16-.42c.36-.93,1.42-1.39,2.35-1.03.47.18.84.56,1.03,1.03l1.17,2.99c.03.08.11.14.2.15l3.04.14c1,.05,1.77.9,1.72,1.9-.02.51-.27.99-.66,1.32l-2.22,1.82c-.07.06-.1.14-.08.23l.74,3.21c.11.47.03.96-.23,1.37-.26.41-.66.7-1.13.8-.13.03-.27.05-.4.05Z"/></g></svg>