<?xml version="1.0" encoding="UTF-8"?><svg id="_レイヤー_2" xmlns="http://www.w3.org/2000/svg" viewBox="0 0 491.9 545.59"><defs><style>.cls-1{fill:#fcf8f0;}.cls-2{fill:none;stroke:#231815;stroke-linecap:round;stroke-linejoin:round;stroke-width:1.8px;}</style></defs><g id="_レイヤー_1-2"><path id="_パス_4516" class="cls-1" d="M245.96,545.59c-6.13.02-11.92-2.8-15.69-7.62-22.93-29.16-52.82-52.53-88.85-69.47C18.49,410.76-34.35,264.31,23.39,141.39,63.91,55.12,150.64.03,245.96.04c5.92,0,11.94.21,17.88.63,135.45,9.86,237.26,127.64,227.4,263.09-6.45,88.62-60.2,166.87-140.61,204.68-36.14,17.02-66.08,40.42-88.98,69.53-3.77,4.83-9.56,7.64-15.69,7.62"/><path id="_パス_4517" class="cls-2" d="M388.37,46.79C288.12-25.17,149.97-11.17,66.21,79.46"/><path id="_パス_4518" class="cls-2" d="M470.95,343.04c15.16-35.14,21.87-73.34,19.59-111.54-3.61-62.9-31.44-119.82-74.27-161.36"/><path id="_パス_4519" class="cls-2" d="M217.2,521.48c4.82,5.08,9.41,10.39,13.78,15.93h0c6.51,8.28,18.5,9.71,26.77,3.2,1.19-.94,2.26-2.01,3.2-3.2,23.7-30.13,54.62-53.46,89.3-69.79,41.84-19.74,77.27-50.87,102.22-89.82"/><path id="_パス_4520" class="cls-2" d="M42.82,108.94C15.46,149.38.88,197.11.96,245.94c0,98.05,57.62,182.61,140.84,221.75,21.15,9.87,40.86,22.57,58.57,37.76"/><path id="_パス_4521" class="cls-2" d="M474.33,202c2.75,14.45,4.13,29.13,4.13,43.83,0,128.41-104.09,232.5-232.5,232.5S20.36,381.01,13.8,258.48"/><path id="_パス_4522" class="cls-2" d="M15,218.94C28.33,103.2,126.65,13.34,245.96,13.34c103.11,0,190.55,67.12,220.99,160.06"/></g></svg>