<?xml version="1.0" encoding="UTF-8"?><svg id="_レイヤー_2" xmlns="http://www.w3.org/2000/svg" viewBox="0 0 33.72 37.25"><defs><style>.cls-1{fill:none;}.cls-2{fill:#fbf5ea;}.cls-3{fill:#231815;}.cls-4{fill:#1f1f1f;}.cls-5{fill:#4dc1c1;}</style></defs><g id="_レイヤー_1-2"><path id="_パス_8263-2" class="cls-2" d="M16.85,36.51c-.38,0-.75-.18-.98-.48-1.57-1.96-3.57-3.53-5.86-4.58C1.95,27.68-1.52,18.09,2.25,10.04,4.9,4.38,10.58.76,16.84.76c.39,0,.79.01,1.18.04,8.87.64,15.54,8.35,14.9,17.22-.42,5.81-3.94,10.94-9.21,13.41-2.29,1.05-4.3,2.62-5.87,4.59-.24.3-.6.48-.98.48"/><path class="cls-3" d="M16.85,37.25c-.08,0-.16,0-.24-.01-.53-.06-1.01-.33-1.34-.75-1.49-1.86-3.42-3.37-5.59-4.37-1.96-.92-3.71-2.19-5.18-3.78C-1.82,21.55-1.44,10.87,5.36,4.54c.3-.28.78-.27,1.06.04.28.3.27.78-.04,1.06C.19,11.4-.16,21.13,5.61,27.33c1.34,1.44,2.93,2.6,4.71,3.44,2.37,1.09,4.49,2.75,6.13,4.79.09.11.21.18.34.19.14.01.27-.02.37-.1.03-.02.06-.05.08-.08,1.64-2.05,3.77-3.71,6.15-4.8,3.71-1.74,6.52-4.83,7.91-8.69,1.39-3.86,1.2-8.03-.55-11.74-1.74-3.71-4.83-6.52-8.69-7.91-3.86-1.39-8.03-1.2-11.74.55-.38.18-.75.37-1.12.58-.36.21-.82.08-1.02-.28-.21-.36-.08-.82.28-1.02.4-.23.81-.45,1.23-.64,4.08-1.91,8.65-2.13,12.89-.6,4.24,1.53,7.62,4.61,9.54,8.69s2.13,8.65.6,12.89c-1.53,4.24-4.61,7.62-8.69,9.54-2.18,1-4.11,2.51-5.61,4.38-.1.12-.21.23-.33.33-.36.28-.79.43-1.23.43Z"/><path id="_パス_8266-2" class="cls-5" d="M26.48,25.77c-5.14,5.21-13.49,5.36-18.81.34-5.21-4.91-5.45-13.1-.54-18.31.07-.07.13-.14.2-.21,5.14-5.21,13.49-5.36,18.81-.34,3.66,3.45,4.99,8.71,3.41,13.49"/><path class="cls-3" d="M16.89,30.4c-3.49,0-6.97-1.27-9.67-3.81C1.76,21.44,1.51,12.81,6.65,7.36l.21-.22c5.34-5.41,14.19-5.58,19.72-.35,3.83,3.61,5.23,9.17,3.58,14.17-.11.34-.48.53-.82.41-.34-.11-.53-.48-.41-.82,1.5-4.52.22-9.55-3.24-12.82-5.02-4.74-13.05-4.6-17.9.32l-.19.2c-4.65,4.94-4.42,12.74.52,17.39,5.02,4.74,13.05,4.59,17.9-.32.25-.26.66-.26.92,0,.26.25.26.66,0,.92-2.73,2.77-6.39,4.17-10.04,4.17Z"/><rect id="_長方形_1661-2" class="cls-1" x=".31" y=".32" width="33.09" height="36.62"/><path id="_パス_8267" class="cls-2" d="M9.33,22.15c-.34,0-.61-.27-.61-.61v-7.72c0-.34.27-.61.61-.61h2.57v8.33c0,.34-.27.61-.61.61h-1.96Z"/><path id="_パス_8268" class="cls-2" d="M16.87,22.3c-.89,0-1.77-.22-2.56-.64-.11-.06-.21-.12-.32-.17-.35-.18-.75-.28-1.15-.28h-.83v-8.07h.31c.57,0,1.11-.23,1.5-.64.87-1.03,1.64-2.15,2.3-3.32.29-.51.61-1.01.96-1.47.16-.18.39-.29.64-.28.08,0,.15.01.23.03.36.08.67.32.83.65.43.88.07,2.47-.49,3.66-.06.11-.09.23-.09.36,0,.41.33.75.75.75h4.85c.65,0,1.18.53,1.18,1.18,0,.65-.53,1.18-1.18,1.18h-.61c.65,0,1.18.53,1.18,1.18,0,.65-.53,1.18-1.18,1.18h-.5c.65,0,1.18.53,1.18,1.18,0,.65-.53,1.18-1.18,1.18h-.66c.65,0,1.18.53,1.18,1.18s-.53,1.18-1.18,1.18h-5.17Z"/><path class="cls-4" d="M11.3,22.79h-1.96c-.69,0-1.26-.57-1.26-1.26v-7.72c0-.7.57-1.26,1.26-1.26h2.86c.4-.03.77-.16,1.04-.44.25-.26.66-.27.92-.02.26.25.27.66.02.92-.43.45-1.01.73-1.62.81v7.7c0,.7-.56,1.26-1.26,1.26ZM11.26,13.85h-1.92l.04,7.68,1.92-.04-.04-7.64Z"/><path class="cls-4" d="M20.27,13.47h-1.32c-.77,0-1.4-.63-1.4-1.4,0-.2.04-.4.13-.58,0-.01.01-.03.02-.04.48-1.02.81-2.46.49-3.11-.08-.16-.19-.25-.37-.3-.02,0-.04,0-.06-.01-.07-.02-.15,0-.2.06-.17.19-.52.77-.89,1.37-.4.66-.86,1.41-1.34,2.11-.21.29-.61.37-.9.16-.29-.21-.37-.61-.16-.91.46-.66.9-1.39,1.3-2.04.45-.75.78-1.29,1.03-1.57.36-.4.9-.58,1.44-.47.02,0,.04,0,.06,0,.58.13,1.02.48,1.27,1,.71,1.45-.27,3.76-.46,4.18,0,.03-.02.05-.03.07-.01.1.03.14.09.14h1.32c.36,0,.65.29.65.65s-.29.65-.65.65Z"/><path class="cls-4" d="M25.71,14.06c0-1.01-.82-1.83-1.83-1.83h-2.21c-.36,0-.65.29-.65.65s.29.65.65.65h2.21c.29,0,.53.24.53.53s-.24.53-.53.53h-1.32c-.06,0-.11.02-.16.03h-.47c-.36,0-.65.29-.65.65s.29.65.65.65h1.32c.29,0,.53.24.53.53,0,.29-.24.53-.53.53h-1.32c-.06,0-.11.02-.16.03h-.34c-.36,0-.65.29-.65.65s.29.65.65.65h1.32c.29,0,.53.24.53.53s-.24.53-.53.53h-1.32c-.05,0-.1.02-.15.03h-.55c-.36,0-.65.29-.65.65s.29.65.65.65h1.32c.29,0,.53.24.53.53s-.24.53-.53.53h-5.17c-.78,0-1.56-.2-2.24-.56l-.33-.18c-.12-.06-.24-.12-.37-.16-.34-.13-.71.05-.83.39-.12.34.05.71.39.83.07.03.14.06.2.09l.31.17c.88.47,1.87.72,2.87.72h5.17c1.01,0,1.83-.82,1.83-1.83,0-.3-.08-.57-.2-.82.54-.32.91-.9.91-1.57,0-.34-.1-.65-.26-.92.45-.33.75-.87.75-1.47,0-.31-.08-.59-.22-.85.51-.32.85-.89.85-1.54Z"/></g></svg>